G04 #@! TF.GenerationSoftware,KiCad,Pcbnew,(5.1.12)-1*
G04 #@! TF.CreationDate,2021-12-01T17:13:29+09:00*
G04 #@! TF.ProjectId,kicad_arduino_LCD,6b696361-645f-4617-9264-75696e6f5f4c,rev?*
G04 #@! TF.SameCoordinates,PX7339f30PY4576b0c*
G04 #@! TF.FileFunction,Copper,L2,Bot*
G04 #@! TF.FilePolarity,Positive*
%FSLAX45Y45*%
G04 Gerber Fmt 4.5, Leading zero omitted, Abs format (unit mm)*
G04 Created by KiCad (PCBNEW (5.1.12)-1) date 2021-12-01 17:13:29*
%MOMM*%
%LPD*%
G01*
G04 APERTURE LIST*
G04 #@! TA.AperFunction,ComponentPad*
%ADD10O,1.000000X1.600000*%
G04 #@! TD*
G04 #@! TA.AperFunction,ComponentPad*
%ADD11R,1.000000X1.600000*%
G04 #@! TD*
G04 #@! TA.AperFunction,ComponentPad*
%ADD12C,1.600000*%
G04 #@! TD*
G04 #@! TA.AperFunction,ComponentPad*
%ADD13C,2.000000*%
G04 #@! TD*
G04 #@! TA.AperFunction,ComponentPad*
%ADD14O,1.727200X2.032000*%
G04 #@! TD*
G04 #@! TA.AperFunction,ComponentPad*
%ADD15C,4.064000*%
G04 #@! TD*
G04 #@! TA.AperFunction,ComponentPad*
%ADD16R,1.600000X1.600000*%
G04 #@! TD*
G04 #@! TA.AperFunction,ComponentPad*
%ADD17C,1.000000*%
G04 #@! TD*
G04 #@! TA.AperFunction,ViaPad*
%ADD18C,0.600000*%
G04 #@! TD*
G04 #@! TA.AperFunction,Conductor*
%ADD19C,1.500000*%
G04 #@! TD*
G04 #@! TA.AperFunction,Conductor*
%ADD20C,1.000000*%
G04 #@! TD*
G04 #@! TA.AperFunction,Conductor*
%ADD21C,0.254000*%
G04 #@! TD*
G04 #@! TA.AperFunction,Conductor*
%ADD22C,0.100000*%
G04 #@! TD*
G04 APERTURE END LIST*
D10*
X4111000Y-969000D03*
X4261000Y-969000D03*
X4411000Y-969000D03*
X4561000Y-969000D03*
X4711000Y-969000D03*
X4861000Y-969000D03*
X5011000Y-969000D03*
X5161000Y-969000D03*
D11*
X5311000Y-969000D03*
D12*
X762000Y-4826000D03*
X762000Y-5080000D03*
X508000Y-4826000D03*
X508000Y-5080000D03*
X254000Y-4826000D03*
X254000Y-5080000D03*
X5842000Y-4318000D03*
X5842000Y-4572000D03*
X5588000Y-4318000D03*
X5334000Y-4572000D03*
X5588000Y-4572000D03*
X5334000Y-4318000D03*
X4826000Y-4572000D03*
X4064000Y-4572000D03*
X5080000Y-4572000D03*
X4318000Y-4572000D03*
X4572000Y-4572000D03*
X4826000Y-4318000D03*
X4064000Y-4318000D03*
X5080000Y-4318000D03*
X4318000Y-4318000D03*
X4572000Y-4318000D03*
X3556000Y-4572000D03*
X2794000Y-4572000D03*
X3810000Y-4572000D03*
X3048000Y-4572000D03*
X3302000Y-4572000D03*
X3556000Y-4318000D03*
X2794000Y-4318000D03*
X3810000Y-4318000D03*
X3048000Y-4318000D03*
X3302000Y-4318000D03*
X2286000Y-4572000D03*
X1524000Y-4572000D03*
X2540000Y-4572000D03*
X1778000Y-4572000D03*
X2032000Y-4572000D03*
X2286000Y-4318000D03*
X1524000Y-4318000D03*
X2540000Y-4318000D03*
X1778000Y-4318000D03*
X2032000Y-4318000D03*
X1016000Y-4572000D03*
X254000Y-4572000D03*
X1270000Y-4572000D03*
X508000Y-4572000D03*
X762000Y-4572000D03*
X1016000Y-4318000D03*
X254000Y-4318000D03*
X1270000Y-4318000D03*
X508000Y-4318000D03*
X762000Y-4318000D03*
X1016000Y-4064000D03*
X254000Y-4064000D03*
X1270000Y-4064000D03*
X508000Y-4064000D03*
X762000Y-4064000D03*
X1016000Y-3810000D03*
X254000Y-3810000D03*
X1270000Y-3810000D03*
X508000Y-3810000D03*
X762000Y-3810000D03*
X1016000Y-3556000D03*
X254000Y-3556000D03*
X1270000Y-3556000D03*
X508000Y-3556000D03*
X762000Y-3556000D03*
X1016000Y-3302000D03*
X254000Y-3302000D03*
X1270000Y-3302000D03*
X508000Y-3302000D03*
X762000Y-3302000D03*
X1016000Y-3048000D03*
X254000Y-3048000D03*
X1270000Y-3048000D03*
X508000Y-3048000D03*
X762000Y-3048000D03*
X1016000Y-2794000D03*
X254000Y-2794000D03*
X1270000Y-2794000D03*
X508000Y-2794000D03*
X762000Y-2794000D03*
X1016000Y-2540000D03*
X254000Y-2540000D03*
X1270000Y-2540000D03*
X508000Y-2540000D03*
X762000Y-2540000D03*
X1016000Y-2286000D03*
X254000Y-2286000D03*
X1270000Y-2286000D03*
X508000Y-2286000D03*
X762000Y-2286000D03*
X1016000Y-2032000D03*
X254000Y-2032000D03*
X1270000Y-2032000D03*
X508000Y-2032000D03*
X762000Y-2032000D03*
X1016000Y-1778000D03*
X254000Y-1778000D03*
X1270000Y-1778000D03*
X508000Y-1778000D03*
X762000Y-1778000D03*
X1016000Y-1524000D03*
X254000Y-1524000D03*
X1270000Y-1524000D03*
X508000Y-1524000D03*
X762000Y-1524000D03*
X1016000Y-1270000D03*
X254000Y-1270000D03*
X1270000Y-1270000D03*
X508000Y-1270000D03*
X762000Y-1270000D03*
X1270000Y-1016000D03*
X1016000Y-1016000D03*
X762000Y-1016000D03*
X508000Y-1016000D03*
X254000Y-1016000D03*
D13*
X5969000Y-3487000D03*
X6619000Y-3487000D03*
X5969000Y-3937000D03*
X6619000Y-3937000D03*
D14*
X6350000Y-254000D03*
X6096000Y-254000D03*
X5842000Y-254000D03*
X5588000Y-254000D03*
X5334000Y-254000D03*
X5080000Y-254000D03*
X4826000Y-254000D03*
X4572000Y-254000D03*
D15*
X6604000Y-1778000D03*
X1524000Y-254000D03*
X6604000Y-4572000D03*
D14*
X4165600Y-254000D03*
X3911600Y-254000D03*
X3657600Y-254000D03*
X3403600Y-254000D03*
X3149600Y-254000D03*
X2895600Y-254000D03*
X2641600Y-254000D03*
X2387600Y-254000D03*
X2133600Y-254000D03*
X1879600Y-254000D03*
D15*
X1397000Y-5080000D03*
D14*
X6350000Y-5080000D03*
X6096000Y-5080000D03*
X5842000Y-5080000D03*
X5588000Y-5080000D03*
X5334000Y-5080000D03*
X5080000Y-5080000D03*
X4572000Y-5080000D03*
X4318000Y-5080000D03*
X4064000Y-5080000D03*
X3810000Y-5080000D03*
X3556000Y-5080000D03*
X3302000Y-5080000D03*
X3048000Y-5080000D03*
X2794000Y-5080000D03*
D16*
X317500Y-444500D03*
D12*
X317500Y-190500D03*
D13*
X5664600Y-3937000D03*
X5014600Y-3937000D03*
X5664600Y-3487000D03*
X5014600Y-3487000D03*
X4064600Y-3487000D03*
X4714600Y-3487000D03*
X4064600Y-3937000D03*
X4714600Y-3937000D03*
X3764600Y-3937000D03*
X3114600Y-3937000D03*
X3764600Y-3487000D03*
X3114600Y-3487000D03*
D17*
X2114000Y-3169000D03*
X2304000Y-3169000D03*
D16*
X2114000Y-2978500D03*
D12*
X2876000Y-2216500D03*
X2368000Y-2978500D03*
X2622000Y-2216500D03*
X2622000Y-2978500D03*
X2368000Y-2216500D03*
X2876000Y-2978500D03*
X2114000Y-2216500D03*
D16*
X2095500Y-1460500D03*
D12*
X2857500Y-698500D03*
X2349500Y-1460500D03*
X2603500Y-698500D03*
X2603500Y-1460500D03*
X2349500Y-698500D03*
X2857500Y-1460500D03*
X2095500Y-698500D03*
D18*
X4254500Y-444500D03*
X3556000Y-1778000D03*
X4064000Y-1778000D03*
X4064000Y-2286000D03*
X4572000Y-2286000D03*
X6604000Y-2286000D03*
X6604000Y-2794000D03*
X6096000Y-762000D03*
X3556000Y-1270000D03*
X4064000Y-1270000D03*
X4572000Y-1270000D03*
X4572000Y-1778000D03*
X5080000Y-1270000D03*
X6096000Y-1778000D03*
X6096000Y-2286000D03*
X6096000Y-1270000D03*
X1778000Y-3302000D03*
X1778000Y-3810000D03*
X5842000Y-3048000D03*
X5207000Y-2794000D03*
X2032000Y-5080000D03*
X2286000Y-5080000D03*
X889000Y-571500D03*
X698500Y-571500D03*
X1778000Y-2794000D03*
X1778000Y-2286000D03*
X1778000Y-1270000D03*
X2794000Y-3810000D03*
X2794000Y-3302000D03*
X3556000Y-2286000D03*
X2984500Y-2095500D03*
X5016500Y-1905000D03*
X1079500Y-571500D03*
X3810000Y-2794000D03*
D19*
X547500Y-444500D02*
X317500Y-444500D01*
X738000Y-254000D02*
X547500Y-444500D01*
X1524000Y-254000D02*
X738000Y-254000D01*
X2349500Y-1587500D02*
X2622000Y-1860000D01*
X2622000Y-1860000D02*
X2622000Y-2216500D01*
X2349500Y-1460500D02*
X2349500Y-1587500D01*
D20*
X2984500Y-1841500D02*
X2984500Y-2095500D01*
D19*
X2921000Y-1778000D02*
X2984500Y-1841500D01*
X2807863Y-1778000D02*
X2921000Y-1778000D01*
X2603500Y-1573637D02*
X2807863Y-1778000D01*
X2603500Y-1460500D02*
X2603500Y-1573637D01*
X6174000Y-4684500D02*
X6174000Y-3062500D01*
X6032500Y-4826000D02*
X6174000Y-4684500D01*
X3778135Y-4826000D02*
X6032500Y-4826000D01*
X3618639Y-4985496D02*
X3778135Y-4826000D01*
X6174000Y-3062500D02*
X5016500Y-1905000D01*
X3618639Y-5017361D02*
X3618639Y-4985496D01*
X3556000Y-5080000D02*
X3618639Y-5017361D01*
X1720636Y-513500D02*
X1662636Y-571500D01*
X2667965Y-513500D02*
X1720636Y-513500D01*
X2895600Y-285865D02*
X2667965Y-513500D01*
X2895600Y-254000D02*
X2895600Y-285865D01*
X1662636Y-571500D02*
X1079500Y-571500D01*
D20*
X5519091Y-693091D02*
X5080000Y-254000D01*
X5519091Y-1084909D02*
X5519091Y-693091D01*
X3810000Y-2794000D02*
X5519091Y-1084909D01*
X4204846Y-1129001D02*
X4261000Y-1072847D01*
X2780001Y-1129001D02*
X4204846Y-1129001D01*
X4261000Y-1072847D02*
X4261000Y-969000D01*
X2349500Y-698500D02*
X2780001Y-1129001D01*
X4411000Y-905151D02*
X4411000Y-969000D01*
X4314848Y-808999D02*
X4411000Y-905151D01*
X4057152Y-808999D02*
X4314848Y-808999D01*
X4007651Y-858500D02*
X4057152Y-808999D01*
X2763500Y-858500D02*
X4007651Y-858500D01*
X2603500Y-698500D02*
X2763500Y-858500D01*
D21*
X6527800Y-195761D02*
X6527800Y-1333500D01*
X6528044Y-1335978D01*
X6528767Y-1338360D01*
X6529940Y-1340556D01*
X6531520Y-1342480D01*
X6734133Y-1545094D01*
X6704537Y-1529583D01*
X6654142Y-1514742D01*
X6601819Y-1510018D01*
X6549580Y-1515593D01*
X6499433Y-1531252D01*
X6456931Y-1553970D01*
X6434934Y-1590974D01*
X6604000Y-1760039D01*
X6605414Y-1758625D01*
X6623375Y-1776586D01*
X6621960Y-1778000D01*
X6623375Y-1779414D01*
X6605414Y-1797375D01*
X6604000Y-1795960D01*
X6434934Y-1965026D01*
X6456931Y-2002030D01*
X6503463Y-2026417D01*
X6553858Y-2041258D01*
X6606181Y-2045981D01*
X6658419Y-2040407D01*
X6708567Y-2024748D01*
X6751069Y-2002030D01*
X6773066Y-1965027D01*
X6781800Y-1973761D01*
X6781800Y-3467377D01*
X6776217Y-3439309D01*
X6763892Y-3409554D01*
X6745999Y-3382775D01*
X6723225Y-3360001D01*
X6696446Y-3342108D01*
X6666691Y-3329783D01*
X6635103Y-3323500D01*
X6602897Y-3323500D01*
X6571309Y-3329783D01*
X6541554Y-3342108D01*
X6514775Y-3360001D01*
X6492001Y-3382775D01*
X6474108Y-3409554D01*
X6461783Y-3439309D01*
X6455500Y-3470897D01*
X6455500Y-3503103D01*
X6461783Y-3534691D01*
X6474108Y-3564446D01*
X6492001Y-3591225D01*
X6514775Y-3613999D01*
X6541554Y-3631892D01*
X6571309Y-3644217D01*
X6602897Y-3650500D01*
X6635103Y-3650500D01*
X6666691Y-3644217D01*
X6696446Y-3631892D01*
X6723225Y-3613999D01*
X6745999Y-3591225D01*
X6763892Y-3564446D01*
X6776217Y-3534691D01*
X6781800Y-3506622D01*
X6781800Y-3917377D01*
X6776217Y-3889309D01*
X6763892Y-3859554D01*
X6745999Y-3832775D01*
X6723225Y-3810001D01*
X6696446Y-3792108D01*
X6666691Y-3779783D01*
X6635103Y-3773500D01*
X6602897Y-3773500D01*
X6571309Y-3779783D01*
X6541554Y-3792108D01*
X6514775Y-3810001D01*
X6492001Y-3832775D01*
X6474108Y-3859554D01*
X6461783Y-3889309D01*
X6455500Y-3920897D01*
X6455500Y-3953103D01*
X6461783Y-3984691D01*
X6474108Y-4014446D01*
X6492001Y-4041225D01*
X6514775Y-4063999D01*
X6541554Y-4081892D01*
X6571309Y-4094217D01*
X6602897Y-4100500D01*
X6635103Y-4100500D01*
X6666691Y-4094217D01*
X6696446Y-4081892D01*
X6723225Y-4063999D01*
X6745999Y-4041225D01*
X6763892Y-4014446D01*
X6776217Y-3984691D01*
X6781800Y-3956622D01*
X6781800Y-4376239D01*
X6773066Y-4384973D01*
X6751069Y-4347970D01*
X6704537Y-4323583D01*
X6654142Y-4308742D01*
X6601819Y-4304019D01*
X6549580Y-4309593D01*
X6499433Y-4325252D01*
X6456931Y-4347970D01*
X6434934Y-4384974D01*
X6604000Y-4554040D01*
X6605414Y-4552625D01*
X6623375Y-4570586D01*
X6621960Y-4572000D01*
X6623375Y-4573414D01*
X6605414Y-4591375D01*
X6604000Y-4589961D01*
X6434934Y-4759026D01*
X6456931Y-4796030D01*
X6503463Y-4820417D01*
X6553858Y-4835258D01*
X6606181Y-4839982D01*
X6658419Y-4834407D01*
X6708567Y-4818748D01*
X6751069Y-4796030D01*
X6773066Y-4759027D01*
X6781800Y-4767761D01*
X6781800Y-4801791D01*
X6556262Y-5027329D01*
X6553553Y-5029553D01*
X6551329Y-5032262D01*
X6544680Y-5040364D01*
X6538087Y-5052698D01*
X6534027Y-5066082D01*
X6533762Y-5068778D01*
X6531520Y-5071020D01*
X6529940Y-5072944D01*
X6528767Y-5075140D01*
X6528044Y-5077522D01*
X6527800Y-5080000D01*
X6527800Y-5257800D01*
X1592761Y-5257800D01*
X1584027Y-5249066D01*
X1621030Y-5227069D01*
X1645417Y-5180537D01*
X1660258Y-5130142D01*
X1664981Y-5077819D01*
X1659407Y-5025581D01*
X1643748Y-4975433D01*
X1621030Y-4932931D01*
X1584026Y-4910934D01*
X1414960Y-5080000D01*
X1416375Y-5081414D01*
X1398414Y-5099375D01*
X1397000Y-5097961D01*
X1395586Y-5099375D01*
X1377625Y-5081414D01*
X1379040Y-5080000D01*
X1209974Y-4910934D01*
X1172970Y-4932931D01*
X1155700Y-4965883D01*
X1155700Y-4892974D01*
X1227934Y-4892974D01*
X1397000Y-5062040D01*
X1566066Y-4892974D01*
X1544069Y-4855970D01*
X1497537Y-4831583D01*
X1447142Y-4816742D01*
X1394819Y-4812019D01*
X1342581Y-4817593D01*
X1292433Y-4833252D01*
X1249931Y-4855970D01*
X1227934Y-4892974D01*
X1155700Y-4892974D01*
X1155700Y-4775200D01*
X3633066Y-4775200D01*
X3525515Y-4882751D01*
X3520231Y-4887088D01*
X3502923Y-4908177D01*
X3491677Y-4929217D01*
X3472339Y-4939553D01*
X3449520Y-4958280D01*
X3430793Y-4981100D01*
X3429000Y-4984454D01*
X3427207Y-4981099D01*
X3408480Y-4958280D01*
X3385660Y-4939553D01*
X3359626Y-4925638D01*
X3331378Y-4917068D01*
X3302000Y-4914175D01*
X3272622Y-4917068D01*
X3244374Y-4925638D01*
X3218339Y-4939553D01*
X3195520Y-4958280D01*
X3176793Y-4981100D01*
X3175000Y-4984454D01*
X3173207Y-4981099D01*
X3154480Y-4958280D01*
X3131660Y-4939553D01*
X3105626Y-4925638D01*
X3077378Y-4917068D01*
X3048000Y-4914175D01*
X3018622Y-4917068D01*
X2990374Y-4925638D01*
X2964339Y-4939553D01*
X2941520Y-4958280D01*
X2922793Y-4981100D01*
X2921000Y-4984454D01*
X2919207Y-4981099D01*
X2900480Y-4958280D01*
X2877660Y-4939553D01*
X2851626Y-4925638D01*
X2823378Y-4917068D01*
X2794000Y-4914175D01*
X2764622Y-4917068D01*
X2736374Y-4925638D01*
X2710339Y-4939553D01*
X2687520Y-4958280D01*
X2668793Y-4981100D01*
X2654878Y-5007134D01*
X2646308Y-5035382D01*
X2644140Y-5057398D01*
X2644140Y-5102602D01*
X2646308Y-5124618D01*
X2654878Y-5152866D01*
X2668793Y-5178901D01*
X2687520Y-5201720D01*
X2710340Y-5220447D01*
X2736374Y-5234363D01*
X2764622Y-5242932D01*
X2794000Y-5245825D01*
X2823378Y-5242932D01*
X2851626Y-5234363D01*
X2877661Y-5220447D01*
X2900480Y-5201720D01*
X2919207Y-5178901D01*
X2921000Y-5175546D01*
X2922793Y-5178901D01*
X2941520Y-5201720D01*
X2964339Y-5220447D01*
X2990374Y-5234363D01*
X3018622Y-5242932D01*
X3048000Y-5245825D01*
X3077378Y-5242932D01*
X3105626Y-5234363D01*
X3131661Y-5220447D01*
X3154480Y-5201720D01*
X3173207Y-5178901D01*
X3175000Y-5175546D01*
X3176793Y-5178901D01*
X3195520Y-5201720D01*
X3218339Y-5220447D01*
X3244374Y-5234363D01*
X3272622Y-5242932D01*
X3302000Y-5245825D01*
X3331378Y-5242932D01*
X3359626Y-5234363D01*
X3385661Y-5220447D01*
X3408480Y-5201720D01*
X3427207Y-5178901D01*
X3429000Y-5175546D01*
X3430793Y-5178901D01*
X3449520Y-5201720D01*
X3472339Y-5220447D01*
X3498374Y-5234363D01*
X3526622Y-5242932D01*
X3556000Y-5245825D01*
X3585378Y-5242932D01*
X3613626Y-5234363D01*
X3639661Y-5220447D01*
X3662480Y-5201720D01*
X3681207Y-5178901D01*
X3683000Y-5175546D01*
X3684793Y-5178901D01*
X3703520Y-5201720D01*
X3726339Y-5220447D01*
X3752374Y-5234363D01*
X3780622Y-5242932D01*
X3810000Y-5245825D01*
X3839378Y-5242932D01*
X3867626Y-5234363D01*
X3893661Y-5220447D01*
X3916480Y-5201720D01*
X3935207Y-5178901D01*
X3937342Y-5174905D01*
X3952151Y-5195173D01*
X3973796Y-5215073D01*
X3998908Y-5230369D01*
X4026521Y-5240471D01*
X4028097Y-5240736D01*
X4051300Y-5228622D01*
X4051300Y-5092700D01*
X4076700Y-5092700D01*
X4076700Y-5228622D01*
X4099903Y-5240736D01*
X4101479Y-5240471D01*
X4129092Y-5230369D01*
X4154203Y-5215073D01*
X4175849Y-5195173D01*
X4191000Y-5174437D01*
X4206151Y-5195173D01*
X4227797Y-5215073D01*
X4252908Y-5230369D01*
X4280521Y-5240471D01*
X4282097Y-5240736D01*
X4305300Y-5228622D01*
X4305300Y-5092700D01*
X4076700Y-5092700D01*
X4051300Y-5092700D01*
X4049300Y-5092700D01*
X4049300Y-5067300D01*
X4051300Y-5067300D01*
X4051300Y-5065300D01*
X4076700Y-5065300D01*
X4076700Y-5067300D01*
X4305300Y-5067300D01*
X4305300Y-5065300D01*
X4330700Y-5065300D01*
X4330700Y-5067300D01*
X4332700Y-5067300D01*
X4332700Y-5092700D01*
X4330700Y-5092700D01*
X4330700Y-5228622D01*
X4353903Y-5240736D01*
X4355479Y-5240471D01*
X4383092Y-5230369D01*
X4408204Y-5215073D01*
X4429849Y-5195173D01*
X4444658Y-5174905D01*
X4446793Y-5178901D01*
X4465520Y-5201720D01*
X4488340Y-5220447D01*
X4514374Y-5234363D01*
X4542622Y-5242932D01*
X4572000Y-5245825D01*
X4601378Y-5242932D01*
X4629626Y-5234363D01*
X4655661Y-5220447D01*
X4678480Y-5201720D01*
X4697207Y-5178901D01*
X4711123Y-5152866D01*
X4719692Y-5124618D01*
X4721860Y-5102602D01*
X4721860Y-5057398D01*
X4719692Y-5035382D01*
X4711123Y-5007134D01*
X4697207Y-4981099D01*
X4683584Y-4964500D01*
X4968416Y-4964500D01*
X4954793Y-4981100D01*
X4940878Y-5007134D01*
X4932308Y-5035382D01*
X4930140Y-5057398D01*
X4930140Y-5102602D01*
X4932308Y-5124618D01*
X4940878Y-5152866D01*
X4954793Y-5178901D01*
X4973520Y-5201720D01*
X4996340Y-5220447D01*
X5022374Y-5234363D01*
X5050622Y-5242932D01*
X5080000Y-5245825D01*
X5109378Y-5242932D01*
X5137626Y-5234363D01*
X5163661Y-5220447D01*
X5186480Y-5201720D01*
X5205207Y-5178901D01*
X5207000Y-5175546D01*
X5208793Y-5178901D01*
X5227520Y-5201720D01*
X5250340Y-5220447D01*
X5276374Y-5234363D01*
X5304622Y-5242932D01*
X5334000Y-5245825D01*
X5363378Y-5242932D01*
X5391626Y-5234363D01*
X5417661Y-5220447D01*
X5440480Y-5201720D01*
X5459207Y-5178901D01*
X5461000Y-5175546D01*
X5462793Y-5178901D01*
X5481520Y-5201720D01*
X5504340Y-5220447D01*
X5530374Y-5234363D01*
X5558622Y-5242932D01*
X5588000Y-5245825D01*
X5617378Y-5242932D01*
X5645626Y-5234363D01*
X5671661Y-5220447D01*
X5694480Y-5201720D01*
X5713207Y-5178901D01*
X5715000Y-5175546D01*
X5716793Y-5178901D01*
X5735520Y-5201720D01*
X5758339Y-5220447D01*
X5784374Y-5234363D01*
X5812622Y-5242932D01*
X5842000Y-5245825D01*
X5871378Y-5242932D01*
X5899626Y-5234363D01*
X5925661Y-5220447D01*
X5948480Y-5201720D01*
X5967207Y-5178901D01*
X5969000Y-5175546D01*
X5970793Y-5178901D01*
X5989520Y-5201720D01*
X6012339Y-5220447D01*
X6038374Y-5234363D01*
X6066622Y-5242932D01*
X6096000Y-5245825D01*
X6125378Y-5242932D01*
X6153626Y-5234363D01*
X6179661Y-5220447D01*
X6202480Y-5201720D01*
X6221207Y-5178901D01*
X6223000Y-5175546D01*
X6224793Y-5178901D01*
X6243520Y-5201720D01*
X6266339Y-5220447D01*
X6292374Y-5234363D01*
X6320622Y-5242932D01*
X6350000Y-5245825D01*
X6379378Y-5242932D01*
X6407626Y-5234363D01*
X6433661Y-5220447D01*
X6456480Y-5201720D01*
X6475207Y-5178901D01*
X6489122Y-5152866D01*
X6497692Y-5124618D01*
X6499860Y-5102602D01*
X6499860Y-5057398D01*
X6497692Y-5035382D01*
X6489122Y-5007134D01*
X6475207Y-4981099D01*
X6456480Y-4958280D01*
X6433660Y-4939553D01*
X6407626Y-4925638D01*
X6379378Y-4917068D01*
X6350000Y-4914175D01*
X6320622Y-4917068D01*
X6292374Y-4925638D01*
X6266339Y-4939553D01*
X6243520Y-4958280D01*
X6224793Y-4981100D01*
X6223000Y-4984454D01*
X6221207Y-4981099D01*
X6202480Y-4958280D01*
X6179660Y-4939553D01*
X6153626Y-4925638D01*
X6134629Y-4919875D01*
X6135245Y-4919123D01*
X6267124Y-4787244D01*
X6272408Y-4782908D01*
X6276745Y-4777624D01*
X6276745Y-4777623D01*
X6278734Y-4775200D01*
X6350000Y-4775200D01*
X6352478Y-4774956D01*
X6354860Y-4774233D01*
X6357056Y-4773060D01*
X6358980Y-4771480D01*
X6360560Y-4769556D01*
X6361733Y-4767360D01*
X6362456Y-4764978D01*
X6362700Y-4762500D01*
X6362700Y-4686760D01*
X6379970Y-4719069D01*
X6416974Y-4741066D01*
X6586039Y-4572000D01*
X6416974Y-4402934D01*
X6379970Y-4424931D01*
X6362700Y-4457883D01*
X6362700Y-4064000D01*
X6362456Y-4061522D01*
X6361733Y-4059140D01*
X6360560Y-4056944D01*
X6358980Y-4055020D01*
X6357056Y-4053440D01*
X6354860Y-4052267D01*
X6352478Y-4051544D01*
X6350000Y-4051300D01*
X6312500Y-4051300D01*
X6312500Y-3069303D01*
X6313170Y-3062500D01*
X6312500Y-3055697D01*
X6312500Y-3055696D01*
X6310496Y-3035349D01*
X6302576Y-3009242D01*
X6289716Y-2985181D01*
X6272408Y-2964092D01*
X6267124Y-2959755D01*
X5109623Y-1802255D01*
X5093819Y-1789284D01*
X5076787Y-1780181D01*
X6336018Y-1780181D01*
X6341593Y-1832419D01*
X6357252Y-1882567D01*
X6379970Y-1925069D01*
X6416974Y-1947066D01*
X6586039Y-1778000D01*
X6416974Y-1608934D01*
X6379970Y-1630931D01*
X6355583Y-1677463D01*
X6340742Y-1727858D01*
X6336018Y-1780181D01*
X5076787Y-1780181D01*
X5069758Y-1776424D01*
X5043651Y-1768504D01*
X5016500Y-1765830D01*
X4996737Y-1767776D01*
X5595405Y-1169108D01*
X5599736Y-1165554D01*
X5613919Y-1148271D01*
X5624459Y-1128554D01*
X5630569Y-1108412D01*
X5630949Y-1107159D01*
X5633140Y-1084909D01*
X5632591Y-1079334D01*
X5632591Y-698666D01*
X5633140Y-693091D01*
X5630949Y-670841D01*
X5624459Y-649446D01*
X5613919Y-629729D01*
X5609840Y-624758D01*
X5599736Y-612446D01*
X5595405Y-608892D01*
X5393744Y-407231D01*
X5417661Y-394447D01*
X5440480Y-375720D01*
X5459207Y-352901D01*
X5461000Y-349546D01*
X5462793Y-352901D01*
X5481520Y-375720D01*
X5504340Y-394447D01*
X5530374Y-408362D01*
X5558622Y-416932D01*
X5588000Y-419825D01*
X5617378Y-416932D01*
X5645626Y-408362D01*
X5671661Y-394447D01*
X5694480Y-375720D01*
X5713207Y-352901D01*
X5715000Y-349546D01*
X5716793Y-352901D01*
X5735520Y-375720D01*
X5758339Y-394447D01*
X5784374Y-408362D01*
X5812622Y-416932D01*
X5842000Y-419825D01*
X5871378Y-416932D01*
X5899626Y-408362D01*
X5925661Y-394447D01*
X5948480Y-375720D01*
X5967207Y-352901D01*
X5969000Y-349546D01*
X5970793Y-352901D01*
X5989520Y-375720D01*
X6012339Y-394447D01*
X6038374Y-408362D01*
X6066622Y-416932D01*
X6096000Y-419825D01*
X6125378Y-416932D01*
X6153626Y-408362D01*
X6179661Y-394447D01*
X6202480Y-375720D01*
X6221207Y-352901D01*
X6223000Y-349546D01*
X6224793Y-352901D01*
X6243520Y-375720D01*
X6266339Y-394447D01*
X6292374Y-408362D01*
X6320622Y-416932D01*
X6350000Y-419825D01*
X6379378Y-416932D01*
X6407626Y-408362D01*
X6433661Y-394447D01*
X6456480Y-375720D01*
X6475207Y-352901D01*
X6489122Y-326866D01*
X6497692Y-298618D01*
X6499860Y-276602D01*
X6499860Y-231398D01*
X6497692Y-209382D01*
X6489122Y-181134D01*
X6475207Y-155099D01*
X6456480Y-132280D01*
X6433660Y-113553D01*
X6407626Y-99637D01*
X6379378Y-91068D01*
X6350000Y-88175D01*
X6320622Y-91068D01*
X6292374Y-99637D01*
X6266339Y-113553D01*
X6243520Y-132280D01*
X6224793Y-155100D01*
X6223000Y-158454D01*
X6221207Y-155099D01*
X6202480Y-132280D01*
X6179660Y-113553D01*
X6153626Y-99637D01*
X6125378Y-91068D01*
X6096000Y-88175D01*
X6066622Y-91068D01*
X6038374Y-99637D01*
X6012339Y-113553D01*
X5989520Y-132280D01*
X5970793Y-155100D01*
X5969000Y-158454D01*
X5967207Y-155099D01*
X5948480Y-132280D01*
X5925660Y-113553D01*
X5899626Y-99637D01*
X5871378Y-91068D01*
X5842000Y-88175D01*
X5812622Y-91068D01*
X5784374Y-99637D01*
X5758339Y-113553D01*
X5735520Y-132280D01*
X5716793Y-155100D01*
X5715000Y-158454D01*
X5713207Y-155099D01*
X5694480Y-132280D01*
X5671660Y-113553D01*
X5645626Y-99637D01*
X5617378Y-91068D01*
X5588000Y-88175D01*
X5558622Y-91068D01*
X5530374Y-99637D01*
X5504339Y-113553D01*
X5481520Y-132280D01*
X5462793Y-155100D01*
X5461000Y-158454D01*
X5459207Y-155099D01*
X5440480Y-132280D01*
X5417661Y-113553D01*
X5391626Y-99637D01*
X5363378Y-91068D01*
X5334000Y-88175D01*
X5304622Y-91068D01*
X5276374Y-99637D01*
X5250339Y-113553D01*
X5227520Y-132280D01*
X5208793Y-155100D01*
X5207000Y-158454D01*
X5205207Y-155099D01*
X5186480Y-132280D01*
X5163661Y-113553D01*
X5137626Y-99637D01*
X5109378Y-91068D01*
X5080000Y-88175D01*
X5050622Y-91068D01*
X5022374Y-99637D01*
X4996339Y-113553D01*
X4973520Y-132280D01*
X4954793Y-155100D01*
X4953000Y-158454D01*
X4951207Y-155099D01*
X4932480Y-132280D01*
X4909661Y-113553D01*
X4883626Y-99637D01*
X4855378Y-91068D01*
X4826000Y-88175D01*
X4796622Y-91068D01*
X4768374Y-99637D01*
X4742339Y-113553D01*
X4719520Y-132280D01*
X4700793Y-155100D01*
X4699000Y-158454D01*
X4697207Y-155099D01*
X4678480Y-132280D01*
X4655661Y-113553D01*
X4629626Y-99637D01*
X4601378Y-91068D01*
X4572000Y-88175D01*
X4542622Y-91068D01*
X4514374Y-99637D01*
X4488339Y-113553D01*
X4465520Y-132280D01*
X4446793Y-155100D01*
X4432878Y-181134D01*
X4424308Y-209382D01*
X4422140Y-231398D01*
X4422140Y-276602D01*
X4424308Y-298618D01*
X4432878Y-326866D01*
X4446793Y-352901D01*
X4465520Y-375720D01*
X4488340Y-394447D01*
X4514374Y-408362D01*
X4542622Y-416932D01*
X4572000Y-419825D01*
X4601378Y-416932D01*
X4629626Y-408362D01*
X4655661Y-394447D01*
X4678480Y-375720D01*
X4697207Y-352901D01*
X4699000Y-349546D01*
X4700793Y-352901D01*
X4719520Y-375720D01*
X4742340Y-394447D01*
X4768374Y-408362D01*
X4796622Y-416932D01*
X4826000Y-419825D01*
X4855378Y-416932D01*
X4883626Y-408362D01*
X4909661Y-394447D01*
X4932480Y-375720D01*
X4951207Y-352901D01*
X4953000Y-349546D01*
X4954793Y-352901D01*
X4973520Y-375720D01*
X4996340Y-394447D01*
X5022374Y-408362D01*
X5050622Y-416932D01*
X5080000Y-419825D01*
X5084836Y-419349D01*
X5405591Y-740104D01*
X5405591Y-843449D01*
X5396449Y-835946D01*
X5385418Y-830050D01*
X5373448Y-826419D01*
X5361000Y-825193D01*
X5261000Y-825193D01*
X5248552Y-826419D01*
X5236582Y-830050D01*
X5225551Y-835946D01*
X5219012Y-841312D01*
X5204645Y-833632D01*
X5183250Y-827142D01*
X5161000Y-824951D01*
X5138750Y-827142D01*
X5117355Y-833632D01*
X5097638Y-844172D01*
X5086000Y-853722D01*
X5074362Y-844172D01*
X5054645Y-833632D01*
X5033250Y-827142D01*
X5011000Y-824951D01*
X4988750Y-827142D01*
X4967355Y-833632D01*
X4947638Y-844172D01*
X4936000Y-853722D01*
X4924362Y-844172D01*
X4904645Y-833632D01*
X4883250Y-827142D01*
X4861000Y-824951D01*
X4838750Y-827142D01*
X4817355Y-833632D01*
X4797638Y-844172D01*
X4786000Y-853722D01*
X4774362Y-844172D01*
X4754645Y-833632D01*
X4733250Y-827142D01*
X4711000Y-824951D01*
X4688750Y-827142D01*
X4667355Y-833632D01*
X4647638Y-844172D01*
X4636186Y-853570D01*
X4632276Y-849763D01*
X4613498Y-837572D01*
X4591187Y-829588D01*
X4573700Y-842205D01*
X4573700Y-956300D01*
X4575700Y-956300D01*
X4575700Y-981700D01*
X4573700Y-981700D01*
X4573700Y-1095795D01*
X4591187Y-1108412D01*
X4613498Y-1100428D01*
X4632276Y-1088237D01*
X4636186Y-1084430D01*
X4647638Y-1093828D01*
X4667355Y-1104368D01*
X4688750Y-1110858D01*
X4711000Y-1113049D01*
X4733250Y-1110858D01*
X4754645Y-1104368D01*
X4774362Y-1093828D01*
X4786000Y-1084278D01*
X4797638Y-1093828D01*
X4817355Y-1104368D01*
X4838750Y-1110858D01*
X4861000Y-1113049D01*
X4883250Y-1110858D01*
X4904645Y-1104368D01*
X4924362Y-1093828D01*
X4936000Y-1084278D01*
X4947638Y-1093828D01*
X4967355Y-1104368D01*
X4988750Y-1110858D01*
X5011000Y-1113049D01*
X5033250Y-1110858D01*
X5054645Y-1104368D01*
X5074362Y-1093828D01*
X5086000Y-1084278D01*
X5097638Y-1093828D01*
X5117355Y-1104368D01*
X5138750Y-1110858D01*
X5161000Y-1113049D01*
X5183250Y-1110858D01*
X5204645Y-1104368D01*
X5219012Y-1096688D01*
X5225551Y-1102054D01*
X5236582Y-1107950D01*
X5248552Y-1111581D01*
X5261000Y-1112807D01*
X5330680Y-1112807D01*
X3725801Y-2717686D01*
X3715172Y-2730638D01*
X3704632Y-2750355D01*
X3698142Y-2771750D01*
X3695951Y-2794000D01*
X3698142Y-2816250D01*
X3704632Y-2837645D01*
X3715172Y-2857362D01*
X3729355Y-2874645D01*
X3746638Y-2888828D01*
X3766355Y-2899368D01*
X3787750Y-2905858D01*
X3810000Y-2908049D01*
X3832250Y-2905858D01*
X3853645Y-2899368D01*
X3873362Y-2888828D01*
X3886314Y-2878199D01*
X4879276Y-1885237D01*
X4877330Y-1905000D01*
X4880004Y-1932151D01*
X4887924Y-1958258D01*
X4900784Y-1982319D01*
X4913755Y-1998123D01*
X6035500Y-3119869D01*
X6035500Y-3337574D01*
X6016691Y-3329783D01*
X5985103Y-3323500D01*
X5952897Y-3323500D01*
X5921309Y-3329783D01*
X5891554Y-3342108D01*
X5864775Y-3360001D01*
X5842001Y-3382775D01*
X5824108Y-3409554D01*
X5816800Y-3427197D01*
X5809492Y-3409554D01*
X5791599Y-3382775D01*
X5768825Y-3360001D01*
X5742046Y-3342108D01*
X5712291Y-3329783D01*
X5680703Y-3323500D01*
X5648497Y-3323500D01*
X5616909Y-3329783D01*
X5587154Y-3342108D01*
X5560375Y-3360001D01*
X5537601Y-3382775D01*
X5519708Y-3409554D01*
X5507383Y-3439309D01*
X5501100Y-3470897D01*
X5501100Y-3503103D01*
X5507383Y-3534691D01*
X5519708Y-3564446D01*
X5537601Y-3591225D01*
X5560375Y-3613999D01*
X5587154Y-3631892D01*
X5616909Y-3644217D01*
X5648497Y-3650500D01*
X5680703Y-3650500D01*
X5712291Y-3644217D01*
X5742046Y-3631892D01*
X5768825Y-3613999D01*
X5791599Y-3591225D01*
X5809492Y-3564446D01*
X5816800Y-3546803D01*
X5824108Y-3564446D01*
X5842001Y-3591225D01*
X5864775Y-3613999D01*
X5891554Y-3631892D01*
X5921309Y-3644217D01*
X5952897Y-3650500D01*
X5985103Y-3650500D01*
X6016691Y-3644217D01*
X6035500Y-3636426D01*
X6035500Y-3787574D01*
X6016691Y-3779783D01*
X5985103Y-3773500D01*
X5952897Y-3773500D01*
X5921309Y-3779783D01*
X5891554Y-3792108D01*
X5864775Y-3810001D01*
X5842001Y-3832775D01*
X5824108Y-3859554D01*
X5816800Y-3877197D01*
X5809492Y-3859554D01*
X5791599Y-3832775D01*
X5768825Y-3810001D01*
X5742046Y-3792108D01*
X5712291Y-3779783D01*
X5680703Y-3773500D01*
X5648497Y-3773500D01*
X5616909Y-3779783D01*
X5587154Y-3792108D01*
X5560375Y-3810001D01*
X5537601Y-3832775D01*
X5519708Y-3859554D01*
X5507383Y-3889309D01*
X5501100Y-3920897D01*
X5501100Y-3953103D01*
X5507383Y-3984691D01*
X5519708Y-4014446D01*
X5537601Y-4041225D01*
X5547676Y-4051300D01*
X5131524Y-4051300D01*
X5141599Y-4041225D01*
X5159492Y-4014446D01*
X5171817Y-3984691D01*
X5178100Y-3953103D01*
X5178100Y-3920897D01*
X5171817Y-3889309D01*
X5159492Y-3859554D01*
X5141599Y-3832775D01*
X5118825Y-3810001D01*
X5092046Y-3792108D01*
X5062291Y-3779783D01*
X5030703Y-3773500D01*
X4998497Y-3773500D01*
X4966909Y-3779783D01*
X4937154Y-3792108D01*
X4910375Y-3810001D01*
X4887601Y-3832775D01*
X4869708Y-3859554D01*
X4864600Y-3871886D01*
X4859492Y-3859554D01*
X4841599Y-3832775D01*
X4818825Y-3810001D01*
X4792046Y-3792108D01*
X4762291Y-3779783D01*
X4730703Y-3773500D01*
X4698497Y-3773500D01*
X4666909Y-3779783D01*
X4637154Y-3792108D01*
X4610375Y-3810001D01*
X4587601Y-3832775D01*
X4569708Y-3859554D01*
X4557383Y-3889309D01*
X4551100Y-3920897D01*
X4551100Y-3953103D01*
X4557383Y-3984691D01*
X4569708Y-4014446D01*
X4587601Y-4041225D01*
X4597676Y-4051300D01*
X4181524Y-4051300D01*
X4191599Y-4041225D01*
X4209492Y-4014446D01*
X4221817Y-3984691D01*
X4228100Y-3953103D01*
X4228100Y-3920897D01*
X4221817Y-3889309D01*
X4209492Y-3859554D01*
X4191599Y-3832775D01*
X4168825Y-3810001D01*
X4142046Y-3792108D01*
X4112291Y-3779783D01*
X4080703Y-3773500D01*
X4048497Y-3773500D01*
X4016909Y-3779783D01*
X3987154Y-3792108D01*
X3960375Y-3810001D01*
X3937601Y-3832775D01*
X3919708Y-3859554D01*
X3914600Y-3871886D01*
X3909492Y-3859554D01*
X3891599Y-3832775D01*
X3868825Y-3810001D01*
X3842046Y-3792108D01*
X3812291Y-3779783D01*
X3780703Y-3773500D01*
X3748497Y-3773500D01*
X3716909Y-3779783D01*
X3687154Y-3792108D01*
X3660375Y-3810001D01*
X3637601Y-3832775D01*
X3619708Y-3859554D01*
X3607383Y-3889309D01*
X3601100Y-3920897D01*
X3601100Y-3953103D01*
X3607383Y-3984691D01*
X3619708Y-4014446D01*
X3637601Y-4041225D01*
X3647676Y-4051300D01*
X3231524Y-4051300D01*
X3241599Y-4041225D01*
X3259492Y-4014446D01*
X3271817Y-3984691D01*
X3278100Y-3953103D01*
X3278100Y-3920897D01*
X3271817Y-3889309D01*
X3259492Y-3859554D01*
X3241599Y-3832775D01*
X3218825Y-3810001D01*
X3192046Y-3792108D01*
X3162291Y-3779783D01*
X3130703Y-3773500D01*
X3098497Y-3773500D01*
X3066909Y-3779783D01*
X3037154Y-3792108D01*
X3010375Y-3810001D01*
X2987601Y-3832775D01*
X2969708Y-3859554D01*
X2957383Y-3889309D01*
X2951100Y-3920897D01*
X2951100Y-3953103D01*
X2957383Y-3984691D01*
X2969708Y-4014446D01*
X2987601Y-4041225D01*
X2997676Y-4051300D01*
X1536700Y-4051300D01*
X1536700Y-3470897D01*
X2951100Y-3470897D01*
X2951100Y-3503103D01*
X2957383Y-3534691D01*
X2969708Y-3564446D01*
X2987601Y-3591225D01*
X3010375Y-3613999D01*
X3037154Y-3631892D01*
X3066909Y-3644217D01*
X3098497Y-3650500D01*
X3130703Y-3650500D01*
X3162291Y-3644217D01*
X3192046Y-3631892D01*
X3218825Y-3613999D01*
X3241599Y-3591225D01*
X3259492Y-3564446D01*
X3271817Y-3534691D01*
X3278100Y-3503103D01*
X3278100Y-3470897D01*
X3601100Y-3470897D01*
X3601100Y-3503103D01*
X3607383Y-3534691D01*
X3619708Y-3564446D01*
X3637601Y-3591225D01*
X3660375Y-3613999D01*
X3687154Y-3631892D01*
X3716909Y-3644217D01*
X3748497Y-3650500D01*
X3780703Y-3650500D01*
X3812291Y-3644217D01*
X3842046Y-3631892D01*
X3868825Y-3613999D01*
X3891599Y-3591225D01*
X3909492Y-3564446D01*
X3914600Y-3552114D01*
X3919708Y-3564446D01*
X3937601Y-3591225D01*
X3960375Y-3613999D01*
X3987154Y-3631892D01*
X4016909Y-3644217D01*
X4048497Y-3650500D01*
X4080703Y-3650500D01*
X4112291Y-3644217D01*
X4142046Y-3631892D01*
X4168825Y-3613999D01*
X4191599Y-3591225D01*
X4209492Y-3564446D01*
X4221817Y-3534691D01*
X4228100Y-3503103D01*
X4228100Y-3470897D01*
X4551100Y-3470897D01*
X4551100Y-3503103D01*
X4557383Y-3534691D01*
X4569708Y-3564446D01*
X4587601Y-3591225D01*
X4610375Y-3613999D01*
X4637154Y-3631892D01*
X4666909Y-3644217D01*
X4698497Y-3650500D01*
X4730703Y-3650500D01*
X4762291Y-3644217D01*
X4792046Y-3631892D01*
X4818825Y-3613999D01*
X4841599Y-3591225D01*
X4859492Y-3564446D01*
X4864600Y-3552114D01*
X4869708Y-3564446D01*
X4887601Y-3591225D01*
X4910375Y-3613999D01*
X4937154Y-3631892D01*
X4966909Y-3644217D01*
X4998497Y-3650500D01*
X5030703Y-3650500D01*
X5062291Y-3644217D01*
X5092046Y-3631892D01*
X5118825Y-3613999D01*
X5141599Y-3591225D01*
X5159492Y-3564446D01*
X5171817Y-3534691D01*
X5178100Y-3503103D01*
X5178100Y-3470897D01*
X5171817Y-3439309D01*
X5159492Y-3409554D01*
X5141599Y-3382775D01*
X5118825Y-3360001D01*
X5092046Y-3342108D01*
X5062291Y-3329783D01*
X5030703Y-3323500D01*
X4998497Y-3323500D01*
X4966909Y-3329783D01*
X4937154Y-3342108D01*
X4910375Y-3360001D01*
X4887601Y-3382775D01*
X4869708Y-3409554D01*
X4864600Y-3421886D01*
X4859492Y-3409554D01*
X4841599Y-3382775D01*
X4818825Y-3360001D01*
X4792046Y-3342108D01*
X4762291Y-3329783D01*
X4730703Y-3323500D01*
X4698497Y-3323500D01*
X4666909Y-3329783D01*
X4637154Y-3342108D01*
X4610375Y-3360001D01*
X4587601Y-3382775D01*
X4569708Y-3409554D01*
X4557383Y-3439309D01*
X4551100Y-3470897D01*
X4228100Y-3470897D01*
X4221817Y-3439309D01*
X4209492Y-3409554D01*
X4191599Y-3382775D01*
X4168825Y-3360001D01*
X4142046Y-3342108D01*
X4112291Y-3329783D01*
X4080703Y-3323500D01*
X4048497Y-3323500D01*
X4016909Y-3329783D01*
X3987154Y-3342108D01*
X3960375Y-3360001D01*
X3937601Y-3382775D01*
X3919708Y-3409554D01*
X3914600Y-3421886D01*
X3909492Y-3409554D01*
X3891599Y-3382775D01*
X3868825Y-3360001D01*
X3842046Y-3342108D01*
X3812291Y-3329783D01*
X3780703Y-3323500D01*
X3748497Y-3323500D01*
X3716909Y-3329783D01*
X3687154Y-3342108D01*
X3660375Y-3360001D01*
X3637601Y-3382775D01*
X3619708Y-3409554D01*
X3607383Y-3439309D01*
X3601100Y-3470897D01*
X3278100Y-3470897D01*
X3271817Y-3439309D01*
X3259492Y-3409554D01*
X3241599Y-3382775D01*
X3218825Y-3360001D01*
X3192046Y-3342108D01*
X3162291Y-3329783D01*
X3130703Y-3323500D01*
X3098497Y-3323500D01*
X3066909Y-3329783D01*
X3037154Y-3342108D01*
X3010375Y-3360001D01*
X2987601Y-3382775D01*
X2969708Y-3409554D01*
X2957383Y-3439309D01*
X2951100Y-3470897D01*
X1536700Y-3470897D01*
X1536700Y-2898500D01*
X1970193Y-2898500D01*
X1970193Y-3058500D01*
X1971419Y-3070948D01*
X1975050Y-3082918D01*
X1980946Y-3093949D01*
X1988881Y-3103618D01*
X1998551Y-3111554D01*
X2009582Y-3117450D01*
X2012175Y-3118237D01*
X2004862Y-3135893D01*
X2000500Y-3157821D01*
X2000500Y-3180179D01*
X2004862Y-3202107D01*
X2013418Y-3222762D01*
X2025839Y-3241352D01*
X2041648Y-3257161D01*
X2060238Y-3269582D01*
X2080893Y-3278138D01*
X2102821Y-3282500D01*
X2125179Y-3282500D01*
X2147107Y-3278138D01*
X2167762Y-3269582D01*
X2186352Y-3257161D01*
X2202161Y-3241352D01*
X2209000Y-3231117D01*
X2215839Y-3241352D01*
X2231648Y-3257161D01*
X2250238Y-3269582D01*
X2270893Y-3278138D01*
X2292821Y-3282500D01*
X2315179Y-3282500D01*
X2337107Y-3278138D01*
X2357762Y-3269582D01*
X2376352Y-3257161D01*
X2392161Y-3241352D01*
X2404582Y-3222762D01*
X2413138Y-3202107D01*
X2417500Y-3180179D01*
X2417500Y-3157821D01*
X2413138Y-3135893D01*
X2405461Y-3117360D01*
X2409857Y-3116485D01*
X2435973Y-3105668D01*
X2459476Y-3089964D01*
X2479464Y-3069976D01*
X2495000Y-3046724D01*
X2510536Y-3069976D01*
X2530524Y-3089964D01*
X2554027Y-3105668D01*
X2580143Y-3116485D01*
X2607867Y-3122000D01*
X2636134Y-3122000D01*
X2663857Y-3116485D01*
X2689973Y-3105668D01*
X2713476Y-3089964D01*
X2725669Y-3077770D01*
X2794690Y-3077770D01*
X2801849Y-3102167D01*
X2827400Y-3114257D01*
X2854818Y-3121130D01*
X2883051Y-3122522D01*
X2911013Y-3118379D01*
X2937629Y-3108860D01*
X2950151Y-3102167D01*
X2957310Y-3077770D01*
X2876000Y-2996460D01*
X2794690Y-3077770D01*
X2725669Y-3077770D01*
X2733464Y-3069976D01*
X2749092Y-3046587D01*
X2752333Y-3052651D01*
X2776730Y-3059810D01*
X2858039Y-2978500D01*
X2893960Y-2978500D01*
X2975270Y-3059810D01*
X2999667Y-3052651D01*
X3011757Y-3027100D01*
X3018630Y-2999682D01*
X3020022Y-2971449D01*
X3015879Y-2943487D01*
X3006360Y-2916871D01*
X2999667Y-2904349D01*
X2975270Y-2897190D01*
X2893960Y-2978500D01*
X2858039Y-2978500D01*
X2776730Y-2897190D01*
X2752333Y-2904349D01*
X2749281Y-2910799D01*
X2749168Y-2910527D01*
X2733464Y-2887024D01*
X2725669Y-2879230D01*
X2794690Y-2879230D01*
X2876000Y-2960539D01*
X2957310Y-2879230D01*
X2950151Y-2854833D01*
X2924600Y-2842743D01*
X2897182Y-2835870D01*
X2868949Y-2834478D01*
X2840987Y-2838621D01*
X2814371Y-2848140D01*
X2801849Y-2854833D01*
X2794690Y-2879230D01*
X2725669Y-2879230D01*
X2713476Y-2867036D01*
X2689973Y-2851332D01*
X2663857Y-2840515D01*
X2636134Y-2835000D01*
X2607867Y-2835000D01*
X2580143Y-2840515D01*
X2554027Y-2851332D01*
X2530524Y-2867036D01*
X2510536Y-2887024D01*
X2495000Y-2910276D01*
X2479464Y-2887024D01*
X2459476Y-2867036D01*
X2435973Y-2851332D01*
X2409857Y-2840515D01*
X2382134Y-2835000D01*
X2353867Y-2835000D01*
X2326143Y-2840515D01*
X2300027Y-2851332D01*
X2276524Y-2867036D01*
X2256664Y-2886896D01*
X2256581Y-2886052D01*
X2252950Y-2874082D01*
X2247054Y-2863051D01*
X2239119Y-2853381D01*
X2229449Y-2845446D01*
X2218418Y-2839550D01*
X2206448Y-2835919D01*
X2194000Y-2834693D01*
X2034000Y-2834693D01*
X2021552Y-2835919D01*
X2009582Y-2839550D01*
X1998551Y-2845446D01*
X1988881Y-2853381D01*
X1980946Y-2863051D01*
X1975050Y-2874082D01*
X1971419Y-2886052D01*
X1970193Y-2898500D01*
X1536700Y-2898500D01*
X1536700Y-1380500D01*
X1951693Y-1380500D01*
X1951693Y-1540500D01*
X1952919Y-1552948D01*
X1956550Y-1564918D01*
X1962446Y-1575949D01*
X1970381Y-1585618D01*
X1980051Y-1593554D01*
X1991082Y-1599450D01*
X2003052Y-1603081D01*
X2015500Y-1604307D01*
X2175500Y-1604307D01*
X2187948Y-1603081D01*
X2199918Y-1599450D01*
X2210927Y-1593565D01*
X2211000Y-1594303D01*
X2211000Y-1594304D01*
X2213004Y-1614651D01*
X2220924Y-1640758D01*
X2232270Y-1661985D01*
X2233784Y-1664819D01*
X2246755Y-1680623D01*
X2246755Y-1680624D01*
X2251092Y-1685908D01*
X2256376Y-1690245D01*
X2483500Y-1917369D01*
X2483500Y-2131065D01*
X2479464Y-2125024D01*
X2459476Y-2105036D01*
X2435973Y-2089332D01*
X2409857Y-2078515D01*
X2382134Y-2073000D01*
X2353867Y-2073000D01*
X2326143Y-2078515D01*
X2300027Y-2089332D01*
X2276524Y-2105036D01*
X2256536Y-2125024D01*
X2241000Y-2148276D01*
X2225464Y-2125024D01*
X2205476Y-2105036D01*
X2181973Y-2089332D01*
X2155857Y-2078515D01*
X2128134Y-2073000D01*
X2099867Y-2073000D01*
X2072143Y-2078515D01*
X2046027Y-2089332D01*
X2022524Y-2105036D01*
X2002536Y-2125024D01*
X1986832Y-2148527D01*
X1976015Y-2174643D01*
X1970500Y-2202367D01*
X1970500Y-2230634D01*
X1976015Y-2258357D01*
X1986832Y-2284473D01*
X2002536Y-2307976D01*
X2022524Y-2327964D01*
X2046027Y-2343668D01*
X2072143Y-2354485D01*
X2099867Y-2360000D01*
X2128134Y-2360000D01*
X2155857Y-2354485D01*
X2181973Y-2343668D01*
X2205476Y-2327964D01*
X2225464Y-2307976D01*
X2241000Y-2284724D01*
X2256536Y-2307976D01*
X2276524Y-2327964D01*
X2300027Y-2343668D01*
X2326143Y-2354485D01*
X2353867Y-2360000D01*
X2382134Y-2360000D01*
X2409857Y-2354485D01*
X2435973Y-2343668D01*
X2459476Y-2327964D01*
X2479464Y-2307976D01*
X2495000Y-2284724D01*
X2510536Y-2307976D01*
X2530524Y-2327964D01*
X2554027Y-2343668D01*
X2580143Y-2354485D01*
X2607867Y-2360000D01*
X2636134Y-2360000D01*
X2663857Y-2354485D01*
X2689973Y-2343668D01*
X2713476Y-2327964D01*
X2733464Y-2307976D01*
X2749000Y-2284724D01*
X2764536Y-2307976D01*
X2784524Y-2327964D01*
X2808027Y-2343668D01*
X2834143Y-2354485D01*
X2861866Y-2360000D01*
X2890133Y-2360000D01*
X2917857Y-2354485D01*
X2943973Y-2343668D01*
X2967476Y-2327964D01*
X2987464Y-2307976D01*
X3003168Y-2284473D01*
X3013985Y-2258357D01*
X3019500Y-2230634D01*
X3019500Y-2203490D01*
X3028145Y-2200868D01*
X3047862Y-2190328D01*
X3065145Y-2176145D01*
X3079328Y-2158862D01*
X3089868Y-2139145D01*
X3096358Y-2117750D01*
X3098000Y-2101075D01*
X3098000Y-1921519D01*
X3100216Y-1918819D01*
X3113076Y-1894758D01*
X3120996Y-1868651D01*
X3123670Y-1841500D01*
X3120996Y-1814349D01*
X3113076Y-1788242D01*
X3100216Y-1764181D01*
X3087245Y-1748377D01*
X3023745Y-1684877D01*
X3019408Y-1679592D01*
X2998319Y-1662284D01*
X2974258Y-1649424D01*
X2948151Y-1641504D01*
X2927804Y-1639500D01*
X2927803Y-1639500D01*
X2921000Y-1638830D01*
X2914197Y-1639500D01*
X2865232Y-1639500D01*
X2826346Y-1600614D01*
X2843366Y-1604000D01*
X2871633Y-1604000D01*
X2899357Y-1598485D01*
X2925473Y-1587668D01*
X2948976Y-1571964D01*
X2968964Y-1551976D01*
X2984668Y-1528473D01*
X2995485Y-1502357D01*
X3001000Y-1474633D01*
X3001000Y-1446366D01*
X2995485Y-1418643D01*
X2984668Y-1392527D01*
X2968964Y-1369024D01*
X2948976Y-1349036D01*
X2925473Y-1333332D01*
X2899357Y-1322515D01*
X2871633Y-1317000D01*
X2843366Y-1317000D01*
X2815643Y-1322515D01*
X2789527Y-1333332D01*
X2766024Y-1349036D01*
X2746036Y-1369024D01*
X2730500Y-1392276D01*
X2714964Y-1369024D01*
X2694976Y-1349036D01*
X2671473Y-1333332D01*
X2645357Y-1322515D01*
X2617634Y-1317000D01*
X2589367Y-1317000D01*
X2561643Y-1322515D01*
X2535527Y-1333332D01*
X2512024Y-1349036D01*
X2492036Y-1369024D01*
X2476500Y-1392276D01*
X2460964Y-1369024D01*
X2440976Y-1349036D01*
X2417473Y-1333332D01*
X2391357Y-1322515D01*
X2363634Y-1317000D01*
X2335367Y-1317000D01*
X2307643Y-1322515D01*
X2281527Y-1333332D01*
X2258024Y-1349036D01*
X2238164Y-1368896D01*
X2238081Y-1368052D01*
X2234450Y-1356082D01*
X2228554Y-1345051D01*
X2220619Y-1335382D01*
X2210949Y-1327446D01*
X2199918Y-1321550D01*
X2187948Y-1317919D01*
X2175500Y-1316693D01*
X2015500Y-1316693D01*
X2003052Y-1317919D01*
X1991082Y-1321550D01*
X1980051Y-1327446D01*
X1970381Y-1335382D01*
X1962446Y-1345051D01*
X1956550Y-1356082D01*
X1952919Y-1368052D01*
X1951693Y-1380500D01*
X1536700Y-1380500D01*
X1536700Y-710000D01*
X1655833Y-710000D01*
X1662636Y-710670D01*
X1669439Y-710000D01*
X1669440Y-710000D01*
X1689787Y-707996D01*
X1715894Y-700076D01*
X1739955Y-687216D01*
X1761044Y-669908D01*
X1765382Y-664623D01*
X1778005Y-652000D01*
X1959438Y-652000D01*
X1957515Y-656643D01*
X1952000Y-684367D01*
X1952000Y-712633D01*
X1957515Y-740357D01*
X1968332Y-766473D01*
X1984036Y-789976D01*
X2004024Y-809964D01*
X2027527Y-825668D01*
X2053643Y-836485D01*
X2081366Y-842000D01*
X2109634Y-842000D01*
X2137357Y-836485D01*
X2163473Y-825668D01*
X2186976Y-809964D01*
X2206964Y-789976D01*
X2222500Y-766724D01*
X2238036Y-789976D01*
X2258024Y-809964D01*
X2281527Y-825668D01*
X2307643Y-836485D01*
X2331772Y-841285D01*
X2695802Y-1205316D01*
X2699356Y-1209646D01*
X2703686Y-1213200D01*
X2703687Y-1213200D01*
X2716639Y-1223829D01*
X2736356Y-1234369D01*
X2757751Y-1240859D01*
X2780001Y-1243050D01*
X2785576Y-1242501D01*
X4199271Y-1242501D01*
X4204846Y-1243050D01*
X4210421Y-1242501D01*
X4210421Y-1242501D01*
X4227096Y-1240859D01*
X4248491Y-1234369D01*
X4268208Y-1223829D01*
X4285491Y-1209646D01*
X4289046Y-1205315D01*
X4337314Y-1157047D01*
X4341645Y-1153492D01*
X4355828Y-1136209D01*
X4366368Y-1116492D01*
X4369819Y-1105115D01*
X4388750Y-1110858D01*
X4411000Y-1113049D01*
X4433250Y-1110858D01*
X4454645Y-1104368D01*
X4474362Y-1093828D01*
X4485814Y-1084430D01*
X4489724Y-1088237D01*
X4508502Y-1100428D01*
X4530813Y-1108412D01*
X4548300Y-1095795D01*
X4548300Y-981700D01*
X4546300Y-981700D01*
X4546300Y-956300D01*
X4548300Y-956300D01*
X4548300Y-842205D01*
X4530813Y-829588D01*
X4508502Y-837572D01*
X4504500Y-840170D01*
X4491645Y-824506D01*
X4487314Y-820952D01*
X4399048Y-732685D01*
X4395493Y-728354D01*
X4378210Y-714171D01*
X4358493Y-703631D01*
X4337098Y-697141D01*
X4320423Y-695499D01*
X4320423Y-695499D01*
X4314848Y-694950D01*
X4309273Y-695499D01*
X4062726Y-695499D01*
X4057152Y-694950D01*
X4051578Y-695499D01*
X4051577Y-695499D01*
X4034902Y-697141D01*
X4013507Y-703631D01*
X3993790Y-714171D01*
X3976507Y-728354D01*
X3972952Y-732685D01*
X3960638Y-745000D01*
X2993784Y-745000D01*
X3000130Y-719682D01*
X3001522Y-691449D01*
X2997379Y-663487D01*
X2987860Y-636871D01*
X2981167Y-624349D01*
X2956770Y-617190D01*
X2875460Y-698500D01*
X2876875Y-699914D01*
X2858914Y-717875D01*
X2857500Y-716460D01*
X2856086Y-717875D01*
X2838125Y-699914D01*
X2839539Y-698500D01*
X2838125Y-697086D01*
X2856086Y-679125D01*
X2857500Y-680540D01*
X2938810Y-599230D01*
X2931651Y-574833D01*
X2906100Y-562743D01*
X2878682Y-555870D01*
X2850449Y-554478D01*
X2822487Y-558621D01*
X2816611Y-560723D01*
X2988724Y-388610D01*
X2994008Y-384273D01*
X2998858Y-378363D01*
X3002080Y-375720D01*
X3020807Y-352901D01*
X3022600Y-349546D01*
X3024393Y-352901D01*
X3043120Y-375720D01*
X3065939Y-394447D01*
X3091974Y-408362D01*
X3120222Y-416932D01*
X3149600Y-419825D01*
X3178978Y-416932D01*
X3207226Y-408362D01*
X3233261Y-394447D01*
X3256080Y-375720D01*
X3274807Y-352901D01*
X3276600Y-349546D01*
X3278393Y-352901D01*
X3297120Y-375720D01*
X3319939Y-394447D01*
X3345974Y-408362D01*
X3374222Y-416932D01*
X3403600Y-419825D01*
X3432978Y-416932D01*
X3461226Y-408362D01*
X3487261Y-394447D01*
X3510080Y-375720D01*
X3528807Y-352901D01*
X3530600Y-349546D01*
X3532393Y-352901D01*
X3551120Y-375720D01*
X3573939Y-394447D01*
X3599974Y-408362D01*
X3628222Y-416932D01*
X3657600Y-419825D01*
X3686978Y-416932D01*
X3715226Y-408362D01*
X3741261Y-394447D01*
X3764080Y-375720D01*
X3782807Y-352901D01*
X3784600Y-349546D01*
X3786393Y-352901D01*
X3805120Y-375720D01*
X3827939Y-394447D01*
X3853974Y-408362D01*
X3882222Y-416932D01*
X3911600Y-419825D01*
X3940978Y-416932D01*
X3969226Y-408362D01*
X3995261Y-394447D01*
X4018080Y-375720D01*
X4036807Y-352901D01*
X4038600Y-349546D01*
X4040393Y-352901D01*
X4059120Y-375720D01*
X4081939Y-394447D01*
X4107974Y-408362D01*
X4136222Y-416932D01*
X4165600Y-419825D01*
X4194978Y-416932D01*
X4223226Y-408362D01*
X4249261Y-394447D01*
X4272080Y-375720D01*
X4290807Y-352901D01*
X4304723Y-326866D01*
X4313292Y-298618D01*
X4315460Y-276602D01*
X4315460Y-231398D01*
X4313292Y-209382D01*
X4304723Y-181134D01*
X4290807Y-155099D01*
X4272080Y-132280D01*
X4249261Y-113553D01*
X4223226Y-99637D01*
X4194978Y-91068D01*
X4165600Y-88175D01*
X4136222Y-91068D01*
X4107974Y-99637D01*
X4081939Y-113553D01*
X4059120Y-132280D01*
X4040393Y-155100D01*
X4038600Y-158454D01*
X4036807Y-155099D01*
X4018080Y-132280D01*
X3995260Y-113553D01*
X3969226Y-99637D01*
X3940978Y-91068D01*
X3911600Y-88175D01*
X3882222Y-91068D01*
X3853974Y-99637D01*
X3827939Y-113553D01*
X3805120Y-132280D01*
X3786393Y-155100D01*
X3784600Y-158454D01*
X3782807Y-155099D01*
X3764080Y-132280D01*
X3741260Y-113553D01*
X3715226Y-99637D01*
X3686978Y-91068D01*
X3657600Y-88175D01*
X3628222Y-91068D01*
X3599974Y-99637D01*
X3573939Y-113553D01*
X3551120Y-132280D01*
X3532393Y-155100D01*
X3530600Y-158454D01*
X3528807Y-155099D01*
X3510080Y-132280D01*
X3487260Y-113553D01*
X3461226Y-99637D01*
X3432978Y-91068D01*
X3403600Y-88175D01*
X3374222Y-91068D01*
X3345974Y-99637D01*
X3319939Y-113553D01*
X3297120Y-132280D01*
X3278393Y-155100D01*
X3276600Y-158454D01*
X3274807Y-155099D01*
X3256080Y-132280D01*
X3233260Y-113553D01*
X3207226Y-99637D01*
X3178978Y-91068D01*
X3149600Y-88175D01*
X3120222Y-91068D01*
X3091974Y-99637D01*
X3065939Y-113553D01*
X3043120Y-132280D01*
X3024393Y-155100D01*
X3022600Y-158454D01*
X3020807Y-155099D01*
X3002080Y-132280D01*
X2979260Y-113553D01*
X2953226Y-99637D01*
X2924978Y-91068D01*
X2895600Y-88175D01*
X2866222Y-91068D01*
X2837974Y-99637D01*
X2811939Y-113553D01*
X2789120Y-132280D01*
X2770393Y-155100D01*
X2768258Y-159095D01*
X2753449Y-138827D01*
X2731804Y-118927D01*
X2706692Y-103631D01*
X2679079Y-93529D01*
X2677503Y-93264D01*
X2654300Y-105378D01*
X2654300Y-241300D01*
X2656300Y-241300D01*
X2656300Y-266700D01*
X2654300Y-266700D01*
X2654300Y-268700D01*
X2628900Y-268700D01*
X2628900Y-266700D01*
X2626900Y-266700D01*
X2626900Y-241300D01*
X2628900Y-241300D01*
X2628900Y-105378D01*
X2605697Y-93264D01*
X2604121Y-93529D01*
X2576508Y-103631D01*
X2551397Y-118927D01*
X2529751Y-138827D01*
X2514942Y-159095D01*
X2512807Y-155099D01*
X2494080Y-132280D01*
X2471261Y-113553D01*
X2445226Y-99637D01*
X2416978Y-91068D01*
X2387600Y-88175D01*
X2358222Y-91068D01*
X2329974Y-99637D01*
X2303939Y-113553D01*
X2281120Y-132280D01*
X2262393Y-155100D01*
X2260600Y-158454D01*
X2258807Y-155099D01*
X2240080Y-132280D01*
X2217261Y-113553D01*
X2191226Y-99637D01*
X2162978Y-91068D01*
X2133600Y-88175D01*
X2104222Y-91068D01*
X2075974Y-99637D01*
X2049939Y-113553D01*
X2027120Y-132280D01*
X2008393Y-155100D01*
X2006600Y-158454D01*
X2004807Y-155099D01*
X1986080Y-132280D01*
X1963260Y-113553D01*
X1937226Y-99637D01*
X1908978Y-91068D01*
X1879600Y-88175D01*
X1850222Y-91068D01*
X1821974Y-99637D01*
X1795939Y-113553D01*
X1773120Y-132280D01*
X1766131Y-140796D01*
X1748030Y-106931D01*
X1711027Y-84934D01*
X1719761Y-76200D01*
X6408239Y-76200D01*
X6527800Y-195761D01*
G04 #@! TA.AperFunction,Conductor*
D22*
G36*
X6527800Y-195761D02*
G01*
X6527800Y-1333500D01*
X6528044Y-1335978D01*
X6528767Y-1338360D01*
X6529940Y-1340556D01*
X6531520Y-1342480D01*
X6734133Y-1545094D01*
X6704537Y-1529583D01*
X6654142Y-1514742D01*
X6601819Y-1510018D01*
X6549580Y-1515593D01*
X6499433Y-1531252D01*
X6456931Y-1553970D01*
X6434934Y-1590974D01*
X6604000Y-1760039D01*
X6605414Y-1758625D01*
X6623375Y-1776586D01*
X6621960Y-1778000D01*
X6623375Y-1779414D01*
X6605414Y-1797375D01*
X6604000Y-1795960D01*
X6434934Y-1965026D01*
X6456931Y-2002030D01*
X6503463Y-2026417D01*
X6553858Y-2041258D01*
X6606181Y-2045981D01*
X6658419Y-2040407D01*
X6708567Y-2024748D01*
X6751069Y-2002030D01*
X6773066Y-1965027D01*
X6781800Y-1973761D01*
X6781800Y-3467377D01*
X6776217Y-3439309D01*
X6763892Y-3409554D01*
X6745999Y-3382775D01*
X6723225Y-3360001D01*
X6696446Y-3342108D01*
X6666691Y-3329783D01*
X6635103Y-3323500D01*
X6602897Y-3323500D01*
X6571309Y-3329783D01*
X6541554Y-3342108D01*
X6514775Y-3360001D01*
X6492001Y-3382775D01*
X6474108Y-3409554D01*
X6461783Y-3439309D01*
X6455500Y-3470897D01*
X6455500Y-3503103D01*
X6461783Y-3534691D01*
X6474108Y-3564446D01*
X6492001Y-3591225D01*
X6514775Y-3613999D01*
X6541554Y-3631892D01*
X6571309Y-3644217D01*
X6602897Y-3650500D01*
X6635103Y-3650500D01*
X6666691Y-3644217D01*
X6696446Y-3631892D01*
X6723225Y-3613999D01*
X6745999Y-3591225D01*
X6763892Y-3564446D01*
X6776217Y-3534691D01*
X6781800Y-3506622D01*
X6781800Y-3917377D01*
X6776217Y-3889309D01*
X6763892Y-3859554D01*
X6745999Y-3832775D01*
X6723225Y-3810001D01*
X6696446Y-3792108D01*
X6666691Y-3779783D01*
X6635103Y-3773500D01*
X6602897Y-3773500D01*
X6571309Y-3779783D01*
X6541554Y-3792108D01*
X6514775Y-3810001D01*
X6492001Y-3832775D01*
X6474108Y-3859554D01*
X6461783Y-3889309D01*
X6455500Y-3920897D01*
X6455500Y-3953103D01*
X6461783Y-3984691D01*
X6474108Y-4014446D01*
X6492001Y-4041225D01*
X6514775Y-4063999D01*
X6541554Y-4081892D01*
X6571309Y-4094217D01*
X6602897Y-4100500D01*
X6635103Y-4100500D01*
X6666691Y-4094217D01*
X6696446Y-4081892D01*
X6723225Y-4063999D01*
X6745999Y-4041225D01*
X6763892Y-4014446D01*
X6776217Y-3984691D01*
X6781800Y-3956622D01*
X6781800Y-4376239D01*
X6773066Y-4384973D01*
X6751069Y-4347970D01*
X6704537Y-4323583D01*
X6654142Y-4308742D01*
X6601819Y-4304019D01*
X6549580Y-4309593D01*
X6499433Y-4325252D01*
X6456931Y-4347970D01*
X6434934Y-4384974D01*
X6604000Y-4554040D01*
X6605414Y-4552625D01*
X6623375Y-4570586D01*
X6621960Y-4572000D01*
X6623375Y-4573414D01*
X6605414Y-4591375D01*
X6604000Y-4589961D01*
X6434934Y-4759026D01*
X6456931Y-4796030D01*
X6503463Y-4820417D01*
X6553858Y-4835258D01*
X6606181Y-4839982D01*
X6658419Y-4834407D01*
X6708567Y-4818748D01*
X6751069Y-4796030D01*
X6773066Y-4759027D01*
X6781800Y-4767761D01*
X6781800Y-4801791D01*
X6556262Y-5027329D01*
X6553553Y-5029553D01*
X6551329Y-5032262D01*
X6544680Y-5040364D01*
X6538087Y-5052698D01*
X6534027Y-5066082D01*
X6533762Y-5068778D01*
X6531520Y-5071020D01*
X6529940Y-5072944D01*
X6528767Y-5075140D01*
X6528044Y-5077522D01*
X6527800Y-5080000D01*
X6527800Y-5257800D01*
X1592761Y-5257800D01*
X1584027Y-5249066D01*
X1621030Y-5227069D01*
X1645417Y-5180537D01*
X1660258Y-5130142D01*
X1664981Y-5077819D01*
X1659407Y-5025581D01*
X1643748Y-4975433D01*
X1621030Y-4932931D01*
X1584026Y-4910934D01*
X1414960Y-5080000D01*
X1416375Y-5081414D01*
X1398414Y-5099375D01*
X1397000Y-5097961D01*
X1395586Y-5099375D01*
X1377625Y-5081414D01*
X1379040Y-5080000D01*
X1209974Y-4910934D01*
X1172970Y-4932931D01*
X1155700Y-4965883D01*
X1155700Y-4892974D01*
X1227934Y-4892974D01*
X1397000Y-5062040D01*
X1566066Y-4892974D01*
X1544069Y-4855970D01*
X1497537Y-4831583D01*
X1447142Y-4816742D01*
X1394819Y-4812019D01*
X1342581Y-4817593D01*
X1292433Y-4833252D01*
X1249931Y-4855970D01*
X1227934Y-4892974D01*
X1155700Y-4892974D01*
X1155700Y-4775200D01*
X3633066Y-4775200D01*
X3525515Y-4882751D01*
X3520231Y-4887088D01*
X3502923Y-4908177D01*
X3491677Y-4929217D01*
X3472339Y-4939553D01*
X3449520Y-4958280D01*
X3430793Y-4981100D01*
X3429000Y-4984454D01*
X3427207Y-4981099D01*
X3408480Y-4958280D01*
X3385660Y-4939553D01*
X3359626Y-4925638D01*
X3331378Y-4917068D01*
X3302000Y-4914175D01*
X3272622Y-4917068D01*
X3244374Y-4925638D01*
X3218339Y-4939553D01*
X3195520Y-4958280D01*
X3176793Y-4981100D01*
X3175000Y-4984454D01*
X3173207Y-4981099D01*
X3154480Y-4958280D01*
X3131660Y-4939553D01*
X3105626Y-4925638D01*
X3077378Y-4917068D01*
X3048000Y-4914175D01*
X3018622Y-4917068D01*
X2990374Y-4925638D01*
X2964339Y-4939553D01*
X2941520Y-4958280D01*
X2922793Y-4981100D01*
X2921000Y-4984454D01*
X2919207Y-4981099D01*
X2900480Y-4958280D01*
X2877660Y-4939553D01*
X2851626Y-4925638D01*
X2823378Y-4917068D01*
X2794000Y-4914175D01*
X2764622Y-4917068D01*
X2736374Y-4925638D01*
X2710339Y-4939553D01*
X2687520Y-4958280D01*
X2668793Y-4981100D01*
X2654878Y-5007134D01*
X2646308Y-5035382D01*
X2644140Y-5057398D01*
X2644140Y-5102602D01*
X2646308Y-5124618D01*
X2654878Y-5152866D01*
X2668793Y-5178901D01*
X2687520Y-5201720D01*
X2710340Y-5220447D01*
X2736374Y-5234363D01*
X2764622Y-5242932D01*
X2794000Y-5245825D01*
X2823378Y-5242932D01*
X2851626Y-5234363D01*
X2877661Y-5220447D01*
X2900480Y-5201720D01*
X2919207Y-5178901D01*
X2921000Y-5175546D01*
X2922793Y-5178901D01*
X2941520Y-5201720D01*
X2964339Y-5220447D01*
X2990374Y-5234363D01*
X3018622Y-5242932D01*
X3048000Y-5245825D01*
X3077378Y-5242932D01*
X3105626Y-5234363D01*
X3131661Y-5220447D01*
X3154480Y-5201720D01*
X3173207Y-5178901D01*
X3175000Y-5175546D01*
X3176793Y-5178901D01*
X3195520Y-5201720D01*
X3218339Y-5220447D01*
X3244374Y-5234363D01*
X3272622Y-5242932D01*
X3302000Y-5245825D01*
X3331378Y-5242932D01*
X3359626Y-5234363D01*
X3385661Y-5220447D01*
X3408480Y-5201720D01*
X3427207Y-5178901D01*
X3429000Y-5175546D01*
X3430793Y-5178901D01*
X3449520Y-5201720D01*
X3472339Y-5220447D01*
X3498374Y-5234363D01*
X3526622Y-5242932D01*
X3556000Y-5245825D01*
X3585378Y-5242932D01*
X3613626Y-5234363D01*
X3639661Y-5220447D01*
X3662480Y-5201720D01*
X3681207Y-5178901D01*
X3683000Y-5175546D01*
X3684793Y-5178901D01*
X3703520Y-5201720D01*
X3726339Y-5220447D01*
X3752374Y-5234363D01*
X3780622Y-5242932D01*
X3810000Y-5245825D01*
X3839378Y-5242932D01*
X3867626Y-5234363D01*
X3893661Y-5220447D01*
X3916480Y-5201720D01*
X3935207Y-5178901D01*
X3937342Y-5174905D01*
X3952151Y-5195173D01*
X3973796Y-5215073D01*
X3998908Y-5230369D01*
X4026521Y-5240471D01*
X4028097Y-5240736D01*
X4051300Y-5228622D01*
X4051300Y-5092700D01*
X4076700Y-5092700D01*
X4076700Y-5228622D01*
X4099903Y-5240736D01*
X4101479Y-5240471D01*
X4129092Y-5230369D01*
X4154203Y-5215073D01*
X4175849Y-5195173D01*
X4191000Y-5174437D01*
X4206151Y-5195173D01*
X4227797Y-5215073D01*
X4252908Y-5230369D01*
X4280521Y-5240471D01*
X4282097Y-5240736D01*
X4305300Y-5228622D01*
X4305300Y-5092700D01*
X4076700Y-5092700D01*
X4051300Y-5092700D01*
X4049300Y-5092700D01*
X4049300Y-5067300D01*
X4051300Y-5067300D01*
X4051300Y-5065300D01*
X4076700Y-5065300D01*
X4076700Y-5067300D01*
X4305300Y-5067300D01*
X4305300Y-5065300D01*
X4330700Y-5065300D01*
X4330700Y-5067300D01*
X4332700Y-5067300D01*
X4332700Y-5092700D01*
X4330700Y-5092700D01*
X4330700Y-5228622D01*
X4353903Y-5240736D01*
X4355479Y-5240471D01*
X4383092Y-5230369D01*
X4408204Y-5215073D01*
X4429849Y-5195173D01*
X4444658Y-5174905D01*
X4446793Y-5178901D01*
X4465520Y-5201720D01*
X4488340Y-5220447D01*
X4514374Y-5234363D01*
X4542622Y-5242932D01*
X4572000Y-5245825D01*
X4601378Y-5242932D01*
X4629626Y-5234363D01*
X4655661Y-5220447D01*
X4678480Y-5201720D01*
X4697207Y-5178901D01*
X4711123Y-5152866D01*
X4719692Y-5124618D01*
X4721860Y-5102602D01*
X4721860Y-5057398D01*
X4719692Y-5035382D01*
X4711123Y-5007134D01*
X4697207Y-4981099D01*
X4683584Y-4964500D01*
X4968416Y-4964500D01*
X4954793Y-4981100D01*
X4940878Y-5007134D01*
X4932308Y-5035382D01*
X4930140Y-5057398D01*
X4930140Y-5102602D01*
X4932308Y-5124618D01*
X4940878Y-5152866D01*
X4954793Y-5178901D01*
X4973520Y-5201720D01*
X4996340Y-5220447D01*
X5022374Y-5234363D01*
X5050622Y-5242932D01*
X5080000Y-5245825D01*
X5109378Y-5242932D01*
X5137626Y-5234363D01*
X5163661Y-5220447D01*
X5186480Y-5201720D01*
X5205207Y-5178901D01*
X5207000Y-5175546D01*
X5208793Y-5178901D01*
X5227520Y-5201720D01*
X5250340Y-5220447D01*
X5276374Y-5234363D01*
X5304622Y-5242932D01*
X5334000Y-5245825D01*
X5363378Y-5242932D01*
X5391626Y-5234363D01*
X5417661Y-5220447D01*
X5440480Y-5201720D01*
X5459207Y-5178901D01*
X5461000Y-5175546D01*
X5462793Y-5178901D01*
X5481520Y-5201720D01*
X5504340Y-5220447D01*
X5530374Y-5234363D01*
X5558622Y-5242932D01*
X5588000Y-5245825D01*
X5617378Y-5242932D01*
X5645626Y-5234363D01*
X5671661Y-5220447D01*
X5694480Y-5201720D01*
X5713207Y-5178901D01*
X5715000Y-5175546D01*
X5716793Y-5178901D01*
X5735520Y-5201720D01*
X5758339Y-5220447D01*
X5784374Y-5234363D01*
X5812622Y-5242932D01*
X5842000Y-5245825D01*
X5871378Y-5242932D01*
X5899626Y-5234363D01*
X5925661Y-5220447D01*
X5948480Y-5201720D01*
X5967207Y-5178901D01*
X5969000Y-5175546D01*
X5970793Y-5178901D01*
X5989520Y-5201720D01*
X6012339Y-5220447D01*
X6038374Y-5234363D01*
X6066622Y-5242932D01*
X6096000Y-5245825D01*
X6125378Y-5242932D01*
X6153626Y-5234363D01*
X6179661Y-5220447D01*
X6202480Y-5201720D01*
X6221207Y-5178901D01*
X6223000Y-5175546D01*
X6224793Y-5178901D01*
X6243520Y-5201720D01*
X6266339Y-5220447D01*
X6292374Y-5234363D01*
X6320622Y-5242932D01*
X6350000Y-5245825D01*
X6379378Y-5242932D01*
X6407626Y-5234363D01*
X6433661Y-5220447D01*
X6456480Y-5201720D01*
X6475207Y-5178901D01*
X6489122Y-5152866D01*
X6497692Y-5124618D01*
X6499860Y-5102602D01*
X6499860Y-5057398D01*
X6497692Y-5035382D01*
X6489122Y-5007134D01*
X6475207Y-4981099D01*
X6456480Y-4958280D01*
X6433660Y-4939553D01*
X6407626Y-4925638D01*
X6379378Y-4917068D01*
X6350000Y-4914175D01*
X6320622Y-4917068D01*
X6292374Y-4925638D01*
X6266339Y-4939553D01*
X6243520Y-4958280D01*
X6224793Y-4981100D01*
X6223000Y-4984454D01*
X6221207Y-4981099D01*
X6202480Y-4958280D01*
X6179660Y-4939553D01*
X6153626Y-4925638D01*
X6134629Y-4919875D01*
X6135245Y-4919123D01*
X6267124Y-4787244D01*
X6272408Y-4782908D01*
X6276745Y-4777624D01*
X6276745Y-4777623D01*
X6278734Y-4775200D01*
X6350000Y-4775200D01*
X6352478Y-4774956D01*
X6354860Y-4774233D01*
X6357056Y-4773060D01*
X6358980Y-4771480D01*
X6360560Y-4769556D01*
X6361733Y-4767360D01*
X6362456Y-4764978D01*
X6362700Y-4762500D01*
X6362700Y-4686760D01*
X6379970Y-4719069D01*
X6416974Y-4741066D01*
X6586039Y-4572000D01*
X6416974Y-4402934D01*
X6379970Y-4424931D01*
X6362700Y-4457883D01*
X6362700Y-4064000D01*
X6362456Y-4061522D01*
X6361733Y-4059140D01*
X6360560Y-4056944D01*
X6358980Y-4055020D01*
X6357056Y-4053440D01*
X6354860Y-4052267D01*
X6352478Y-4051544D01*
X6350000Y-4051300D01*
X6312500Y-4051300D01*
X6312500Y-3069303D01*
X6313170Y-3062500D01*
X6312500Y-3055697D01*
X6312500Y-3055696D01*
X6310496Y-3035349D01*
X6302576Y-3009242D01*
X6289716Y-2985181D01*
X6272408Y-2964092D01*
X6267124Y-2959755D01*
X5109623Y-1802255D01*
X5093819Y-1789284D01*
X5076787Y-1780181D01*
X6336018Y-1780181D01*
X6341593Y-1832419D01*
X6357252Y-1882567D01*
X6379970Y-1925069D01*
X6416974Y-1947066D01*
X6586039Y-1778000D01*
X6416974Y-1608934D01*
X6379970Y-1630931D01*
X6355583Y-1677463D01*
X6340742Y-1727858D01*
X6336018Y-1780181D01*
X5076787Y-1780181D01*
X5069758Y-1776424D01*
X5043651Y-1768504D01*
X5016500Y-1765830D01*
X4996737Y-1767776D01*
X5595405Y-1169108D01*
X5599736Y-1165554D01*
X5613919Y-1148271D01*
X5624459Y-1128554D01*
X5630569Y-1108412D01*
X5630949Y-1107159D01*
X5633140Y-1084909D01*
X5632591Y-1079334D01*
X5632591Y-698666D01*
X5633140Y-693091D01*
X5630949Y-670841D01*
X5624459Y-649446D01*
X5613919Y-629729D01*
X5609840Y-624758D01*
X5599736Y-612446D01*
X5595405Y-608892D01*
X5393744Y-407231D01*
X5417661Y-394447D01*
X5440480Y-375720D01*
X5459207Y-352901D01*
X5461000Y-349546D01*
X5462793Y-352901D01*
X5481520Y-375720D01*
X5504340Y-394447D01*
X5530374Y-408362D01*
X5558622Y-416932D01*
X5588000Y-419825D01*
X5617378Y-416932D01*
X5645626Y-408362D01*
X5671661Y-394447D01*
X5694480Y-375720D01*
X5713207Y-352901D01*
X5715000Y-349546D01*
X5716793Y-352901D01*
X5735520Y-375720D01*
X5758339Y-394447D01*
X5784374Y-408362D01*
X5812622Y-416932D01*
X5842000Y-419825D01*
X5871378Y-416932D01*
X5899626Y-408362D01*
X5925661Y-394447D01*
X5948480Y-375720D01*
X5967207Y-352901D01*
X5969000Y-349546D01*
X5970793Y-352901D01*
X5989520Y-375720D01*
X6012339Y-394447D01*
X6038374Y-408362D01*
X6066622Y-416932D01*
X6096000Y-419825D01*
X6125378Y-416932D01*
X6153626Y-408362D01*
X6179661Y-394447D01*
X6202480Y-375720D01*
X6221207Y-352901D01*
X6223000Y-349546D01*
X6224793Y-352901D01*
X6243520Y-375720D01*
X6266339Y-394447D01*
X6292374Y-408362D01*
X6320622Y-416932D01*
X6350000Y-419825D01*
X6379378Y-416932D01*
X6407626Y-408362D01*
X6433661Y-394447D01*
X6456480Y-375720D01*
X6475207Y-352901D01*
X6489122Y-326866D01*
X6497692Y-298618D01*
X6499860Y-276602D01*
X6499860Y-231398D01*
X6497692Y-209382D01*
X6489122Y-181134D01*
X6475207Y-155099D01*
X6456480Y-132280D01*
X6433660Y-113553D01*
X6407626Y-99637D01*
X6379378Y-91068D01*
X6350000Y-88175D01*
X6320622Y-91068D01*
X6292374Y-99637D01*
X6266339Y-113553D01*
X6243520Y-132280D01*
X6224793Y-155100D01*
X6223000Y-158454D01*
X6221207Y-155099D01*
X6202480Y-132280D01*
X6179660Y-113553D01*
X6153626Y-99637D01*
X6125378Y-91068D01*
X6096000Y-88175D01*
X6066622Y-91068D01*
X6038374Y-99637D01*
X6012339Y-113553D01*
X5989520Y-132280D01*
X5970793Y-155100D01*
X5969000Y-158454D01*
X5967207Y-155099D01*
X5948480Y-132280D01*
X5925660Y-113553D01*
X5899626Y-99637D01*
X5871378Y-91068D01*
X5842000Y-88175D01*
X5812622Y-91068D01*
X5784374Y-99637D01*
X5758339Y-113553D01*
X5735520Y-132280D01*
X5716793Y-155100D01*
X5715000Y-158454D01*
X5713207Y-155099D01*
X5694480Y-132280D01*
X5671660Y-113553D01*
X5645626Y-99637D01*
X5617378Y-91068D01*
X5588000Y-88175D01*
X5558622Y-91068D01*
X5530374Y-99637D01*
X5504339Y-113553D01*
X5481520Y-132280D01*
X5462793Y-155100D01*
X5461000Y-158454D01*
X5459207Y-155099D01*
X5440480Y-132280D01*
X5417661Y-113553D01*
X5391626Y-99637D01*
X5363378Y-91068D01*
X5334000Y-88175D01*
X5304622Y-91068D01*
X5276374Y-99637D01*
X5250339Y-113553D01*
X5227520Y-132280D01*
X5208793Y-155100D01*
X5207000Y-158454D01*
X5205207Y-155099D01*
X5186480Y-132280D01*
X5163661Y-113553D01*
X5137626Y-99637D01*
X5109378Y-91068D01*
X5080000Y-88175D01*
X5050622Y-91068D01*
X5022374Y-99637D01*
X4996339Y-113553D01*
X4973520Y-132280D01*
X4954793Y-155100D01*
X4953000Y-158454D01*
X4951207Y-155099D01*
X4932480Y-132280D01*
X4909661Y-113553D01*
X4883626Y-99637D01*
X4855378Y-91068D01*
X4826000Y-88175D01*
X4796622Y-91068D01*
X4768374Y-99637D01*
X4742339Y-113553D01*
X4719520Y-132280D01*
X4700793Y-155100D01*
X4699000Y-158454D01*
X4697207Y-155099D01*
X4678480Y-132280D01*
X4655661Y-113553D01*
X4629626Y-99637D01*
X4601378Y-91068D01*
X4572000Y-88175D01*
X4542622Y-91068D01*
X4514374Y-99637D01*
X4488339Y-113553D01*
X4465520Y-132280D01*
X4446793Y-155100D01*
X4432878Y-181134D01*
X4424308Y-209382D01*
X4422140Y-231398D01*
X4422140Y-276602D01*
X4424308Y-298618D01*
X4432878Y-326866D01*
X4446793Y-352901D01*
X4465520Y-375720D01*
X4488340Y-394447D01*
X4514374Y-408362D01*
X4542622Y-416932D01*
X4572000Y-419825D01*
X4601378Y-416932D01*
X4629626Y-408362D01*
X4655661Y-394447D01*
X4678480Y-375720D01*
X4697207Y-352901D01*
X4699000Y-349546D01*
X4700793Y-352901D01*
X4719520Y-375720D01*
X4742340Y-394447D01*
X4768374Y-408362D01*
X4796622Y-416932D01*
X4826000Y-419825D01*
X4855378Y-416932D01*
X4883626Y-408362D01*
X4909661Y-394447D01*
X4932480Y-375720D01*
X4951207Y-352901D01*
X4953000Y-349546D01*
X4954793Y-352901D01*
X4973520Y-375720D01*
X4996340Y-394447D01*
X5022374Y-408362D01*
X5050622Y-416932D01*
X5080000Y-419825D01*
X5084836Y-419349D01*
X5405591Y-740104D01*
X5405591Y-843449D01*
X5396449Y-835946D01*
X5385418Y-830050D01*
X5373448Y-826419D01*
X5361000Y-825193D01*
X5261000Y-825193D01*
X5248552Y-826419D01*
X5236582Y-830050D01*
X5225551Y-835946D01*
X5219012Y-841312D01*
X5204645Y-833632D01*
X5183250Y-827142D01*
X5161000Y-824951D01*
X5138750Y-827142D01*
X5117355Y-833632D01*
X5097638Y-844172D01*
X5086000Y-853722D01*
X5074362Y-844172D01*
X5054645Y-833632D01*
X5033250Y-827142D01*
X5011000Y-824951D01*
X4988750Y-827142D01*
X4967355Y-833632D01*
X4947638Y-844172D01*
X4936000Y-853722D01*
X4924362Y-844172D01*
X4904645Y-833632D01*
X4883250Y-827142D01*
X4861000Y-824951D01*
X4838750Y-827142D01*
X4817355Y-833632D01*
X4797638Y-844172D01*
X4786000Y-853722D01*
X4774362Y-844172D01*
X4754645Y-833632D01*
X4733250Y-827142D01*
X4711000Y-824951D01*
X4688750Y-827142D01*
X4667355Y-833632D01*
X4647638Y-844172D01*
X4636186Y-853570D01*
X4632276Y-849763D01*
X4613498Y-837572D01*
X4591187Y-829588D01*
X4573700Y-842205D01*
X4573700Y-956300D01*
X4575700Y-956300D01*
X4575700Y-981700D01*
X4573700Y-981700D01*
X4573700Y-1095795D01*
X4591187Y-1108412D01*
X4613498Y-1100428D01*
X4632276Y-1088237D01*
X4636186Y-1084430D01*
X4647638Y-1093828D01*
X4667355Y-1104368D01*
X4688750Y-1110858D01*
X4711000Y-1113049D01*
X4733250Y-1110858D01*
X4754645Y-1104368D01*
X4774362Y-1093828D01*
X4786000Y-1084278D01*
X4797638Y-1093828D01*
X4817355Y-1104368D01*
X4838750Y-1110858D01*
X4861000Y-1113049D01*
X4883250Y-1110858D01*
X4904645Y-1104368D01*
X4924362Y-1093828D01*
X4936000Y-1084278D01*
X4947638Y-1093828D01*
X4967355Y-1104368D01*
X4988750Y-1110858D01*
X5011000Y-1113049D01*
X5033250Y-1110858D01*
X5054645Y-1104368D01*
X5074362Y-1093828D01*
X5086000Y-1084278D01*
X5097638Y-1093828D01*
X5117355Y-1104368D01*
X5138750Y-1110858D01*
X5161000Y-1113049D01*
X5183250Y-1110858D01*
X5204645Y-1104368D01*
X5219012Y-1096688D01*
X5225551Y-1102054D01*
X5236582Y-1107950D01*
X5248552Y-1111581D01*
X5261000Y-1112807D01*
X5330680Y-1112807D01*
X3725801Y-2717686D01*
X3715172Y-2730638D01*
X3704632Y-2750355D01*
X3698142Y-2771750D01*
X3695951Y-2794000D01*
X3698142Y-2816250D01*
X3704632Y-2837645D01*
X3715172Y-2857362D01*
X3729355Y-2874645D01*
X3746638Y-2888828D01*
X3766355Y-2899368D01*
X3787750Y-2905858D01*
X3810000Y-2908049D01*
X3832250Y-2905858D01*
X3853645Y-2899368D01*
X3873362Y-2888828D01*
X3886314Y-2878199D01*
X4879276Y-1885237D01*
X4877330Y-1905000D01*
X4880004Y-1932151D01*
X4887924Y-1958258D01*
X4900784Y-1982319D01*
X4913755Y-1998123D01*
X6035500Y-3119869D01*
X6035500Y-3337574D01*
X6016691Y-3329783D01*
X5985103Y-3323500D01*
X5952897Y-3323500D01*
X5921309Y-3329783D01*
X5891554Y-3342108D01*
X5864775Y-3360001D01*
X5842001Y-3382775D01*
X5824108Y-3409554D01*
X5816800Y-3427197D01*
X5809492Y-3409554D01*
X5791599Y-3382775D01*
X5768825Y-3360001D01*
X5742046Y-3342108D01*
X5712291Y-3329783D01*
X5680703Y-3323500D01*
X5648497Y-3323500D01*
X5616909Y-3329783D01*
X5587154Y-3342108D01*
X5560375Y-3360001D01*
X5537601Y-3382775D01*
X5519708Y-3409554D01*
X5507383Y-3439309D01*
X5501100Y-3470897D01*
X5501100Y-3503103D01*
X5507383Y-3534691D01*
X5519708Y-3564446D01*
X5537601Y-3591225D01*
X5560375Y-3613999D01*
X5587154Y-3631892D01*
X5616909Y-3644217D01*
X5648497Y-3650500D01*
X5680703Y-3650500D01*
X5712291Y-3644217D01*
X5742046Y-3631892D01*
X5768825Y-3613999D01*
X5791599Y-3591225D01*
X5809492Y-3564446D01*
X5816800Y-3546803D01*
X5824108Y-3564446D01*
X5842001Y-3591225D01*
X5864775Y-3613999D01*
X5891554Y-3631892D01*
X5921309Y-3644217D01*
X5952897Y-3650500D01*
X5985103Y-3650500D01*
X6016691Y-3644217D01*
X6035500Y-3636426D01*
X6035500Y-3787574D01*
X6016691Y-3779783D01*
X5985103Y-3773500D01*
X5952897Y-3773500D01*
X5921309Y-3779783D01*
X5891554Y-3792108D01*
X5864775Y-3810001D01*
X5842001Y-3832775D01*
X5824108Y-3859554D01*
X5816800Y-3877197D01*
X5809492Y-3859554D01*
X5791599Y-3832775D01*
X5768825Y-3810001D01*
X5742046Y-3792108D01*
X5712291Y-3779783D01*
X5680703Y-3773500D01*
X5648497Y-3773500D01*
X5616909Y-3779783D01*
X5587154Y-3792108D01*
X5560375Y-3810001D01*
X5537601Y-3832775D01*
X5519708Y-3859554D01*
X5507383Y-3889309D01*
X5501100Y-3920897D01*
X5501100Y-3953103D01*
X5507383Y-3984691D01*
X5519708Y-4014446D01*
X5537601Y-4041225D01*
X5547676Y-4051300D01*
X5131524Y-4051300D01*
X5141599Y-4041225D01*
X5159492Y-4014446D01*
X5171817Y-3984691D01*
X5178100Y-3953103D01*
X5178100Y-3920897D01*
X5171817Y-3889309D01*
X5159492Y-3859554D01*
X5141599Y-3832775D01*
X5118825Y-3810001D01*
X5092046Y-3792108D01*
X5062291Y-3779783D01*
X5030703Y-3773500D01*
X4998497Y-3773500D01*
X4966909Y-3779783D01*
X4937154Y-3792108D01*
X4910375Y-3810001D01*
X4887601Y-3832775D01*
X4869708Y-3859554D01*
X4864600Y-3871886D01*
X4859492Y-3859554D01*
X4841599Y-3832775D01*
X4818825Y-3810001D01*
X4792046Y-3792108D01*
X4762291Y-3779783D01*
X4730703Y-3773500D01*
X4698497Y-3773500D01*
X4666909Y-3779783D01*
X4637154Y-3792108D01*
X4610375Y-3810001D01*
X4587601Y-3832775D01*
X4569708Y-3859554D01*
X4557383Y-3889309D01*
X4551100Y-3920897D01*
X4551100Y-3953103D01*
X4557383Y-3984691D01*
X4569708Y-4014446D01*
X4587601Y-4041225D01*
X4597676Y-4051300D01*
X4181524Y-4051300D01*
X4191599Y-4041225D01*
X4209492Y-4014446D01*
X4221817Y-3984691D01*
X4228100Y-3953103D01*
X4228100Y-3920897D01*
X4221817Y-3889309D01*
X4209492Y-3859554D01*
X4191599Y-3832775D01*
X4168825Y-3810001D01*
X4142046Y-3792108D01*
X4112291Y-3779783D01*
X4080703Y-3773500D01*
X4048497Y-3773500D01*
X4016909Y-3779783D01*
X3987154Y-3792108D01*
X3960375Y-3810001D01*
X3937601Y-3832775D01*
X3919708Y-3859554D01*
X3914600Y-3871886D01*
X3909492Y-3859554D01*
X3891599Y-3832775D01*
X3868825Y-3810001D01*
X3842046Y-3792108D01*
X3812291Y-3779783D01*
X3780703Y-3773500D01*
X3748497Y-3773500D01*
X3716909Y-3779783D01*
X3687154Y-3792108D01*
X3660375Y-3810001D01*
X3637601Y-3832775D01*
X3619708Y-3859554D01*
X3607383Y-3889309D01*
X3601100Y-3920897D01*
X3601100Y-3953103D01*
X3607383Y-3984691D01*
X3619708Y-4014446D01*
X3637601Y-4041225D01*
X3647676Y-4051300D01*
X3231524Y-4051300D01*
X3241599Y-4041225D01*
X3259492Y-4014446D01*
X3271817Y-3984691D01*
X3278100Y-3953103D01*
X3278100Y-3920897D01*
X3271817Y-3889309D01*
X3259492Y-3859554D01*
X3241599Y-3832775D01*
X3218825Y-3810001D01*
X3192046Y-3792108D01*
X3162291Y-3779783D01*
X3130703Y-3773500D01*
X3098497Y-3773500D01*
X3066909Y-3779783D01*
X3037154Y-3792108D01*
X3010375Y-3810001D01*
X2987601Y-3832775D01*
X2969708Y-3859554D01*
X2957383Y-3889309D01*
X2951100Y-3920897D01*
X2951100Y-3953103D01*
X2957383Y-3984691D01*
X2969708Y-4014446D01*
X2987601Y-4041225D01*
X2997676Y-4051300D01*
X1536700Y-4051300D01*
X1536700Y-3470897D01*
X2951100Y-3470897D01*
X2951100Y-3503103D01*
X2957383Y-3534691D01*
X2969708Y-3564446D01*
X2987601Y-3591225D01*
X3010375Y-3613999D01*
X3037154Y-3631892D01*
X3066909Y-3644217D01*
X3098497Y-3650500D01*
X3130703Y-3650500D01*
X3162291Y-3644217D01*
X3192046Y-3631892D01*
X3218825Y-3613999D01*
X3241599Y-3591225D01*
X3259492Y-3564446D01*
X3271817Y-3534691D01*
X3278100Y-3503103D01*
X3278100Y-3470897D01*
X3601100Y-3470897D01*
X3601100Y-3503103D01*
X3607383Y-3534691D01*
X3619708Y-3564446D01*
X3637601Y-3591225D01*
X3660375Y-3613999D01*
X3687154Y-3631892D01*
X3716909Y-3644217D01*
X3748497Y-3650500D01*
X3780703Y-3650500D01*
X3812291Y-3644217D01*
X3842046Y-3631892D01*
X3868825Y-3613999D01*
X3891599Y-3591225D01*
X3909492Y-3564446D01*
X3914600Y-3552114D01*
X3919708Y-3564446D01*
X3937601Y-3591225D01*
X3960375Y-3613999D01*
X3987154Y-3631892D01*
X4016909Y-3644217D01*
X4048497Y-3650500D01*
X4080703Y-3650500D01*
X4112291Y-3644217D01*
X4142046Y-3631892D01*
X4168825Y-3613999D01*
X4191599Y-3591225D01*
X4209492Y-3564446D01*
X4221817Y-3534691D01*
X4228100Y-3503103D01*
X4228100Y-3470897D01*
X4551100Y-3470897D01*
X4551100Y-3503103D01*
X4557383Y-3534691D01*
X4569708Y-3564446D01*
X4587601Y-3591225D01*
X4610375Y-3613999D01*
X4637154Y-3631892D01*
X4666909Y-3644217D01*
X4698497Y-3650500D01*
X4730703Y-3650500D01*
X4762291Y-3644217D01*
X4792046Y-3631892D01*
X4818825Y-3613999D01*
X4841599Y-3591225D01*
X4859492Y-3564446D01*
X4864600Y-3552114D01*
X4869708Y-3564446D01*
X4887601Y-3591225D01*
X4910375Y-3613999D01*
X4937154Y-3631892D01*
X4966909Y-3644217D01*
X4998497Y-3650500D01*
X5030703Y-3650500D01*
X5062291Y-3644217D01*
X5092046Y-3631892D01*
X5118825Y-3613999D01*
X5141599Y-3591225D01*
X5159492Y-3564446D01*
X5171817Y-3534691D01*
X5178100Y-3503103D01*
X5178100Y-3470897D01*
X5171817Y-3439309D01*
X5159492Y-3409554D01*
X5141599Y-3382775D01*
X5118825Y-3360001D01*
X5092046Y-3342108D01*
X5062291Y-3329783D01*
X5030703Y-3323500D01*
X4998497Y-3323500D01*
X4966909Y-3329783D01*
X4937154Y-3342108D01*
X4910375Y-3360001D01*
X4887601Y-3382775D01*
X4869708Y-3409554D01*
X4864600Y-3421886D01*
X4859492Y-3409554D01*
X4841599Y-3382775D01*
X4818825Y-3360001D01*
X4792046Y-3342108D01*
X4762291Y-3329783D01*
X4730703Y-3323500D01*
X4698497Y-3323500D01*
X4666909Y-3329783D01*
X4637154Y-3342108D01*
X4610375Y-3360001D01*
X4587601Y-3382775D01*
X4569708Y-3409554D01*
X4557383Y-3439309D01*
X4551100Y-3470897D01*
X4228100Y-3470897D01*
X4221817Y-3439309D01*
X4209492Y-3409554D01*
X4191599Y-3382775D01*
X4168825Y-3360001D01*
X4142046Y-3342108D01*
X4112291Y-3329783D01*
X4080703Y-3323500D01*
X4048497Y-3323500D01*
X4016909Y-3329783D01*
X3987154Y-3342108D01*
X3960375Y-3360001D01*
X3937601Y-3382775D01*
X3919708Y-3409554D01*
X3914600Y-3421886D01*
X3909492Y-3409554D01*
X3891599Y-3382775D01*
X3868825Y-3360001D01*
X3842046Y-3342108D01*
X3812291Y-3329783D01*
X3780703Y-3323500D01*
X3748497Y-3323500D01*
X3716909Y-3329783D01*
X3687154Y-3342108D01*
X3660375Y-3360001D01*
X3637601Y-3382775D01*
X3619708Y-3409554D01*
X3607383Y-3439309D01*
X3601100Y-3470897D01*
X3278100Y-3470897D01*
X3271817Y-3439309D01*
X3259492Y-3409554D01*
X3241599Y-3382775D01*
X3218825Y-3360001D01*
X3192046Y-3342108D01*
X3162291Y-3329783D01*
X3130703Y-3323500D01*
X3098497Y-3323500D01*
X3066909Y-3329783D01*
X3037154Y-3342108D01*
X3010375Y-3360001D01*
X2987601Y-3382775D01*
X2969708Y-3409554D01*
X2957383Y-3439309D01*
X2951100Y-3470897D01*
X1536700Y-3470897D01*
X1536700Y-2898500D01*
X1970193Y-2898500D01*
X1970193Y-3058500D01*
X1971419Y-3070948D01*
X1975050Y-3082918D01*
X1980946Y-3093949D01*
X1988881Y-3103618D01*
X1998551Y-3111554D01*
X2009582Y-3117450D01*
X2012175Y-3118237D01*
X2004862Y-3135893D01*
X2000500Y-3157821D01*
X2000500Y-3180179D01*
X2004862Y-3202107D01*
X2013418Y-3222762D01*
X2025839Y-3241352D01*
X2041648Y-3257161D01*
X2060238Y-3269582D01*
X2080893Y-3278138D01*
X2102821Y-3282500D01*
X2125179Y-3282500D01*
X2147107Y-3278138D01*
X2167762Y-3269582D01*
X2186352Y-3257161D01*
X2202161Y-3241352D01*
X2209000Y-3231117D01*
X2215839Y-3241352D01*
X2231648Y-3257161D01*
X2250238Y-3269582D01*
X2270893Y-3278138D01*
X2292821Y-3282500D01*
X2315179Y-3282500D01*
X2337107Y-3278138D01*
X2357762Y-3269582D01*
X2376352Y-3257161D01*
X2392161Y-3241352D01*
X2404582Y-3222762D01*
X2413138Y-3202107D01*
X2417500Y-3180179D01*
X2417500Y-3157821D01*
X2413138Y-3135893D01*
X2405461Y-3117360D01*
X2409857Y-3116485D01*
X2435973Y-3105668D01*
X2459476Y-3089964D01*
X2479464Y-3069976D01*
X2495000Y-3046724D01*
X2510536Y-3069976D01*
X2530524Y-3089964D01*
X2554027Y-3105668D01*
X2580143Y-3116485D01*
X2607867Y-3122000D01*
X2636134Y-3122000D01*
X2663857Y-3116485D01*
X2689973Y-3105668D01*
X2713476Y-3089964D01*
X2725669Y-3077770D01*
X2794690Y-3077770D01*
X2801849Y-3102167D01*
X2827400Y-3114257D01*
X2854818Y-3121130D01*
X2883051Y-3122522D01*
X2911013Y-3118379D01*
X2937629Y-3108860D01*
X2950151Y-3102167D01*
X2957310Y-3077770D01*
X2876000Y-2996460D01*
X2794690Y-3077770D01*
X2725669Y-3077770D01*
X2733464Y-3069976D01*
X2749092Y-3046587D01*
X2752333Y-3052651D01*
X2776730Y-3059810D01*
X2858039Y-2978500D01*
X2893960Y-2978500D01*
X2975270Y-3059810D01*
X2999667Y-3052651D01*
X3011757Y-3027100D01*
X3018630Y-2999682D01*
X3020022Y-2971449D01*
X3015879Y-2943487D01*
X3006360Y-2916871D01*
X2999667Y-2904349D01*
X2975270Y-2897190D01*
X2893960Y-2978500D01*
X2858039Y-2978500D01*
X2776730Y-2897190D01*
X2752333Y-2904349D01*
X2749281Y-2910799D01*
X2749168Y-2910527D01*
X2733464Y-2887024D01*
X2725669Y-2879230D01*
X2794690Y-2879230D01*
X2876000Y-2960539D01*
X2957310Y-2879230D01*
X2950151Y-2854833D01*
X2924600Y-2842743D01*
X2897182Y-2835870D01*
X2868949Y-2834478D01*
X2840987Y-2838621D01*
X2814371Y-2848140D01*
X2801849Y-2854833D01*
X2794690Y-2879230D01*
X2725669Y-2879230D01*
X2713476Y-2867036D01*
X2689973Y-2851332D01*
X2663857Y-2840515D01*
X2636134Y-2835000D01*
X2607867Y-2835000D01*
X2580143Y-2840515D01*
X2554027Y-2851332D01*
X2530524Y-2867036D01*
X2510536Y-2887024D01*
X2495000Y-2910276D01*
X2479464Y-2887024D01*
X2459476Y-2867036D01*
X2435973Y-2851332D01*
X2409857Y-2840515D01*
X2382134Y-2835000D01*
X2353867Y-2835000D01*
X2326143Y-2840515D01*
X2300027Y-2851332D01*
X2276524Y-2867036D01*
X2256664Y-2886896D01*
X2256581Y-2886052D01*
X2252950Y-2874082D01*
X2247054Y-2863051D01*
X2239119Y-2853381D01*
X2229449Y-2845446D01*
X2218418Y-2839550D01*
X2206448Y-2835919D01*
X2194000Y-2834693D01*
X2034000Y-2834693D01*
X2021552Y-2835919D01*
X2009582Y-2839550D01*
X1998551Y-2845446D01*
X1988881Y-2853381D01*
X1980946Y-2863051D01*
X1975050Y-2874082D01*
X1971419Y-2886052D01*
X1970193Y-2898500D01*
X1536700Y-2898500D01*
X1536700Y-1380500D01*
X1951693Y-1380500D01*
X1951693Y-1540500D01*
X1952919Y-1552948D01*
X1956550Y-1564918D01*
X1962446Y-1575949D01*
X1970381Y-1585618D01*
X1980051Y-1593554D01*
X1991082Y-1599450D01*
X2003052Y-1603081D01*
X2015500Y-1604307D01*
X2175500Y-1604307D01*
X2187948Y-1603081D01*
X2199918Y-1599450D01*
X2210927Y-1593565D01*
X2211000Y-1594303D01*
X2211000Y-1594304D01*
X2213004Y-1614651D01*
X2220924Y-1640758D01*
X2232270Y-1661985D01*
X2233784Y-1664819D01*
X2246755Y-1680623D01*
X2246755Y-1680624D01*
X2251092Y-1685908D01*
X2256376Y-1690245D01*
X2483500Y-1917369D01*
X2483500Y-2131065D01*
X2479464Y-2125024D01*
X2459476Y-2105036D01*
X2435973Y-2089332D01*
X2409857Y-2078515D01*
X2382134Y-2073000D01*
X2353867Y-2073000D01*
X2326143Y-2078515D01*
X2300027Y-2089332D01*
X2276524Y-2105036D01*
X2256536Y-2125024D01*
X2241000Y-2148276D01*
X2225464Y-2125024D01*
X2205476Y-2105036D01*
X2181973Y-2089332D01*
X2155857Y-2078515D01*
X2128134Y-2073000D01*
X2099867Y-2073000D01*
X2072143Y-2078515D01*
X2046027Y-2089332D01*
X2022524Y-2105036D01*
X2002536Y-2125024D01*
X1986832Y-2148527D01*
X1976015Y-2174643D01*
X1970500Y-2202367D01*
X1970500Y-2230634D01*
X1976015Y-2258357D01*
X1986832Y-2284473D01*
X2002536Y-2307976D01*
X2022524Y-2327964D01*
X2046027Y-2343668D01*
X2072143Y-2354485D01*
X2099867Y-2360000D01*
X2128134Y-2360000D01*
X2155857Y-2354485D01*
X2181973Y-2343668D01*
X2205476Y-2327964D01*
X2225464Y-2307976D01*
X2241000Y-2284724D01*
X2256536Y-2307976D01*
X2276524Y-2327964D01*
X2300027Y-2343668D01*
X2326143Y-2354485D01*
X2353867Y-2360000D01*
X2382134Y-2360000D01*
X2409857Y-2354485D01*
X2435973Y-2343668D01*
X2459476Y-2327964D01*
X2479464Y-2307976D01*
X2495000Y-2284724D01*
X2510536Y-2307976D01*
X2530524Y-2327964D01*
X2554027Y-2343668D01*
X2580143Y-2354485D01*
X2607867Y-2360000D01*
X2636134Y-2360000D01*
X2663857Y-2354485D01*
X2689973Y-2343668D01*
X2713476Y-2327964D01*
X2733464Y-2307976D01*
X2749000Y-2284724D01*
X2764536Y-2307976D01*
X2784524Y-2327964D01*
X2808027Y-2343668D01*
X2834143Y-2354485D01*
X2861866Y-2360000D01*
X2890133Y-2360000D01*
X2917857Y-2354485D01*
X2943973Y-2343668D01*
X2967476Y-2327964D01*
X2987464Y-2307976D01*
X3003168Y-2284473D01*
X3013985Y-2258357D01*
X3019500Y-2230634D01*
X3019500Y-2203490D01*
X3028145Y-2200868D01*
X3047862Y-2190328D01*
X3065145Y-2176145D01*
X3079328Y-2158862D01*
X3089868Y-2139145D01*
X3096358Y-2117750D01*
X3098000Y-2101075D01*
X3098000Y-1921519D01*
X3100216Y-1918819D01*
X3113076Y-1894758D01*
X3120996Y-1868651D01*
X3123670Y-1841500D01*
X3120996Y-1814349D01*
X3113076Y-1788242D01*
X3100216Y-1764181D01*
X3087245Y-1748377D01*
X3023745Y-1684877D01*
X3019408Y-1679592D01*
X2998319Y-1662284D01*
X2974258Y-1649424D01*
X2948151Y-1641504D01*
X2927804Y-1639500D01*
X2927803Y-1639500D01*
X2921000Y-1638830D01*
X2914197Y-1639500D01*
X2865232Y-1639500D01*
X2826346Y-1600614D01*
X2843366Y-1604000D01*
X2871633Y-1604000D01*
X2899357Y-1598485D01*
X2925473Y-1587668D01*
X2948976Y-1571964D01*
X2968964Y-1551976D01*
X2984668Y-1528473D01*
X2995485Y-1502357D01*
X3001000Y-1474633D01*
X3001000Y-1446366D01*
X2995485Y-1418643D01*
X2984668Y-1392527D01*
X2968964Y-1369024D01*
X2948976Y-1349036D01*
X2925473Y-1333332D01*
X2899357Y-1322515D01*
X2871633Y-1317000D01*
X2843366Y-1317000D01*
X2815643Y-1322515D01*
X2789527Y-1333332D01*
X2766024Y-1349036D01*
X2746036Y-1369024D01*
X2730500Y-1392276D01*
X2714964Y-1369024D01*
X2694976Y-1349036D01*
X2671473Y-1333332D01*
X2645357Y-1322515D01*
X2617634Y-1317000D01*
X2589367Y-1317000D01*
X2561643Y-1322515D01*
X2535527Y-1333332D01*
X2512024Y-1349036D01*
X2492036Y-1369024D01*
X2476500Y-1392276D01*
X2460964Y-1369024D01*
X2440976Y-1349036D01*
X2417473Y-1333332D01*
X2391357Y-1322515D01*
X2363634Y-1317000D01*
X2335367Y-1317000D01*
X2307643Y-1322515D01*
X2281527Y-1333332D01*
X2258024Y-1349036D01*
X2238164Y-1368896D01*
X2238081Y-1368052D01*
X2234450Y-1356082D01*
X2228554Y-1345051D01*
X2220619Y-1335382D01*
X2210949Y-1327446D01*
X2199918Y-1321550D01*
X2187948Y-1317919D01*
X2175500Y-1316693D01*
X2015500Y-1316693D01*
X2003052Y-1317919D01*
X1991082Y-1321550D01*
X1980051Y-1327446D01*
X1970381Y-1335382D01*
X1962446Y-1345051D01*
X1956550Y-1356082D01*
X1952919Y-1368052D01*
X1951693Y-1380500D01*
X1536700Y-1380500D01*
X1536700Y-710000D01*
X1655833Y-710000D01*
X1662636Y-710670D01*
X1669439Y-710000D01*
X1669440Y-710000D01*
X1689787Y-707996D01*
X1715894Y-700076D01*
X1739955Y-687216D01*
X1761044Y-669908D01*
X1765382Y-664623D01*
X1778005Y-652000D01*
X1959438Y-652000D01*
X1957515Y-656643D01*
X1952000Y-684367D01*
X1952000Y-712633D01*
X1957515Y-740357D01*
X1968332Y-766473D01*
X1984036Y-789976D01*
X2004024Y-809964D01*
X2027527Y-825668D01*
X2053643Y-836485D01*
X2081366Y-842000D01*
X2109634Y-842000D01*
X2137357Y-836485D01*
X2163473Y-825668D01*
X2186976Y-809964D01*
X2206964Y-789976D01*
X2222500Y-766724D01*
X2238036Y-789976D01*
X2258024Y-809964D01*
X2281527Y-825668D01*
X2307643Y-836485D01*
X2331772Y-841285D01*
X2695802Y-1205316D01*
X2699356Y-1209646D01*
X2703686Y-1213200D01*
X2703687Y-1213200D01*
X2716639Y-1223829D01*
X2736356Y-1234369D01*
X2757751Y-1240859D01*
X2780001Y-1243050D01*
X2785576Y-1242501D01*
X4199271Y-1242501D01*
X4204846Y-1243050D01*
X4210421Y-1242501D01*
X4210421Y-1242501D01*
X4227096Y-1240859D01*
X4248491Y-1234369D01*
X4268208Y-1223829D01*
X4285491Y-1209646D01*
X4289046Y-1205315D01*
X4337314Y-1157047D01*
X4341645Y-1153492D01*
X4355828Y-1136209D01*
X4366368Y-1116492D01*
X4369819Y-1105115D01*
X4388750Y-1110858D01*
X4411000Y-1113049D01*
X4433250Y-1110858D01*
X4454645Y-1104368D01*
X4474362Y-1093828D01*
X4485814Y-1084430D01*
X4489724Y-1088237D01*
X4508502Y-1100428D01*
X4530813Y-1108412D01*
X4548300Y-1095795D01*
X4548300Y-981700D01*
X4546300Y-981700D01*
X4546300Y-956300D01*
X4548300Y-956300D01*
X4548300Y-842205D01*
X4530813Y-829588D01*
X4508502Y-837572D01*
X4504500Y-840170D01*
X4491645Y-824506D01*
X4487314Y-820952D01*
X4399048Y-732685D01*
X4395493Y-728354D01*
X4378210Y-714171D01*
X4358493Y-703631D01*
X4337098Y-697141D01*
X4320423Y-695499D01*
X4320423Y-695499D01*
X4314848Y-694950D01*
X4309273Y-695499D01*
X4062726Y-695499D01*
X4057152Y-694950D01*
X4051578Y-695499D01*
X4051577Y-695499D01*
X4034902Y-697141D01*
X4013507Y-703631D01*
X3993790Y-714171D01*
X3976507Y-728354D01*
X3972952Y-732685D01*
X3960638Y-745000D01*
X2993784Y-745000D01*
X3000130Y-719682D01*
X3001522Y-691449D01*
X2997379Y-663487D01*
X2987860Y-636871D01*
X2981167Y-624349D01*
X2956770Y-617190D01*
X2875460Y-698500D01*
X2876875Y-699914D01*
X2858914Y-717875D01*
X2857500Y-716460D01*
X2856086Y-717875D01*
X2838125Y-699914D01*
X2839539Y-698500D01*
X2838125Y-697086D01*
X2856086Y-679125D01*
X2857500Y-680540D01*
X2938810Y-599230D01*
X2931651Y-574833D01*
X2906100Y-562743D01*
X2878682Y-555870D01*
X2850449Y-554478D01*
X2822487Y-558621D01*
X2816611Y-560723D01*
X2988724Y-388610D01*
X2994008Y-384273D01*
X2998858Y-378363D01*
X3002080Y-375720D01*
X3020807Y-352901D01*
X3022600Y-349546D01*
X3024393Y-352901D01*
X3043120Y-375720D01*
X3065939Y-394447D01*
X3091974Y-408362D01*
X3120222Y-416932D01*
X3149600Y-419825D01*
X3178978Y-416932D01*
X3207226Y-408362D01*
X3233261Y-394447D01*
X3256080Y-375720D01*
X3274807Y-352901D01*
X3276600Y-349546D01*
X3278393Y-352901D01*
X3297120Y-375720D01*
X3319939Y-394447D01*
X3345974Y-408362D01*
X3374222Y-416932D01*
X3403600Y-419825D01*
X3432978Y-416932D01*
X3461226Y-408362D01*
X3487261Y-394447D01*
X3510080Y-375720D01*
X3528807Y-352901D01*
X3530600Y-349546D01*
X3532393Y-352901D01*
X3551120Y-375720D01*
X3573939Y-394447D01*
X3599974Y-408362D01*
X3628222Y-416932D01*
X3657600Y-419825D01*
X3686978Y-416932D01*
X3715226Y-408362D01*
X3741261Y-394447D01*
X3764080Y-375720D01*
X3782807Y-352901D01*
X3784600Y-349546D01*
X3786393Y-352901D01*
X3805120Y-375720D01*
X3827939Y-394447D01*
X3853974Y-408362D01*
X3882222Y-416932D01*
X3911600Y-419825D01*
X3940978Y-416932D01*
X3969226Y-408362D01*
X3995261Y-394447D01*
X4018080Y-375720D01*
X4036807Y-352901D01*
X4038600Y-349546D01*
X4040393Y-352901D01*
X4059120Y-375720D01*
X4081939Y-394447D01*
X4107974Y-408362D01*
X4136222Y-416932D01*
X4165600Y-419825D01*
X4194978Y-416932D01*
X4223226Y-408362D01*
X4249261Y-394447D01*
X4272080Y-375720D01*
X4290807Y-352901D01*
X4304723Y-326866D01*
X4313292Y-298618D01*
X4315460Y-276602D01*
X4315460Y-231398D01*
X4313292Y-209382D01*
X4304723Y-181134D01*
X4290807Y-155099D01*
X4272080Y-132280D01*
X4249261Y-113553D01*
X4223226Y-99637D01*
X4194978Y-91068D01*
X4165600Y-88175D01*
X4136222Y-91068D01*
X4107974Y-99637D01*
X4081939Y-113553D01*
X4059120Y-132280D01*
X4040393Y-155100D01*
X4038600Y-158454D01*
X4036807Y-155099D01*
X4018080Y-132280D01*
X3995260Y-113553D01*
X3969226Y-99637D01*
X3940978Y-91068D01*
X3911600Y-88175D01*
X3882222Y-91068D01*
X3853974Y-99637D01*
X3827939Y-113553D01*
X3805120Y-132280D01*
X3786393Y-155100D01*
X3784600Y-158454D01*
X3782807Y-155099D01*
X3764080Y-132280D01*
X3741260Y-113553D01*
X3715226Y-99637D01*
X3686978Y-91068D01*
X3657600Y-88175D01*
X3628222Y-91068D01*
X3599974Y-99637D01*
X3573939Y-113553D01*
X3551120Y-132280D01*
X3532393Y-155100D01*
X3530600Y-158454D01*
X3528807Y-155099D01*
X3510080Y-132280D01*
X3487260Y-113553D01*
X3461226Y-99637D01*
X3432978Y-91068D01*
X3403600Y-88175D01*
X3374222Y-91068D01*
X3345974Y-99637D01*
X3319939Y-113553D01*
X3297120Y-132280D01*
X3278393Y-155100D01*
X3276600Y-158454D01*
X3274807Y-155099D01*
X3256080Y-132280D01*
X3233260Y-113553D01*
X3207226Y-99637D01*
X3178978Y-91068D01*
X3149600Y-88175D01*
X3120222Y-91068D01*
X3091974Y-99637D01*
X3065939Y-113553D01*
X3043120Y-132280D01*
X3024393Y-155100D01*
X3022600Y-158454D01*
X3020807Y-155099D01*
X3002080Y-132280D01*
X2979260Y-113553D01*
X2953226Y-99637D01*
X2924978Y-91068D01*
X2895600Y-88175D01*
X2866222Y-91068D01*
X2837974Y-99637D01*
X2811939Y-113553D01*
X2789120Y-132280D01*
X2770393Y-155100D01*
X2768258Y-159095D01*
X2753449Y-138827D01*
X2731804Y-118927D01*
X2706692Y-103631D01*
X2679079Y-93529D01*
X2677503Y-93264D01*
X2654300Y-105378D01*
X2654300Y-241300D01*
X2656300Y-241300D01*
X2656300Y-266700D01*
X2654300Y-266700D01*
X2654300Y-268700D01*
X2628900Y-268700D01*
X2628900Y-266700D01*
X2626900Y-266700D01*
X2626900Y-241300D01*
X2628900Y-241300D01*
X2628900Y-105378D01*
X2605697Y-93264D01*
X2604121Y-93529D01*
X2576508Y-103631D01*
X2551397Y-118927D01*
X2529751Y-138827D01*
X2514942Y-159095D01*
X2512807Y-155099D01*
X2494080Y-132280D01*
X2471261Y-113553D01*
X2445226Y-99637D01*
X2416978Y-91068D01*
X2387600Y-88175D01*
X2358222Y-91068D01*
X2329974Y-99637D01*
X2303939Y-113553D01*
X2281120Y-132280D01*
X2262393Y-155100D01*
X2260600Y-158454D01*
X2258807Y-155099D01*
X2240080Y-132280D01*
X2217261Y-113553D01*
X2191226Y-99637D01*
X2162978Y-91068D01*
X2133600Y-88175D01*
X2104222Y-91068D01*
X2075974Y-99637D01*
X2049939Y-113553D01*
X2027120Y-132280D01*
X2008393Y-155100D01*
X2006600Y-158454D01*
X2004807Y-155099D01*
X1986080Y-132280D01*
X1963260Y-113553D01*
X1937226Y-99637D01*
X1908978Y-91068D01*
X1879600Y-88175D01*
X1850222Y-91068D01*
X1821974Y-99637D01*
X1795939Y-113553D01*
X1773120Y-132280D01*
X1766131Y-140796D01*
X1748030Y-106931D01*
X1711027Y-84934D01*
X1719761Y-76200D01*
X6408239Y-76200D01*
X6527800Y-195761D01*
G37*
G04 #@! TD.AperFunction*
D21*
X226024Y-79036D02*
X206036Y-99024D01*
X190332Y-122527D01*
X179515Y-148643D01*
X174000Y-176366D01*
X174000Y-204633D01*
X179515Y-232357D01*
X190332Y-258473D01*
X206036Y-281976D01*
X225896Y-301836D01*
X225052Y-301919D01*
X213082Y-305550D01*
X202051Y-311446D01*
X192381Y-319382D01*
X184446Y-329051D01*
X178550Y-340082D01*
X174919Y-352052D01*
X173693Y-364500D01*
X174000Y-415925D01*
X189875Y-431800D01*
X304800Y-431800D01*
X304800Y-429800D01*
X330200Y-429800D01*
X330200Y-431800D01*
X445125Y-431800D01*
X461000Y-415925D01*
X461307Y-364500D01*
X460081Y-352052D01*
X456450Y-340082D01*
X450554Y-329051D01*
X442618Y-319382D01*
X432949Y-311446D01*
X421918Y-305550D01*
X409948Y-301919D01*
X409104Y-301836D01*
X428964Y-281976D01*
X444668Y-258473D01*
X455485Y-232357D01*
X461000Y-204633D01*
X461000Y-176366D01*
X455485Y-148643D01*
X444668Y-122527D01*
X428964Y-99024D01*
X408976Y-79036D01*
X404731Y-76200D01*
X1328239Y-76200D01*
X1336973Y-84934D01*
X1299970Y-106931D01*
X1275583Y-153463D01*
X1260742Y-203858D01*
X1256019Y-256181D01*
X1261593Y-308420D01*
X1277252Y-358567D01*
X1299970Y-401069D01*
X1336973Y-423066D01*
X1327039Y-433000D01*
X1072696Y-433000D01*
X1052349Y-435004D01*
X1026242Y-442924D01*
X1002181Y-455784D01*
X981092Y-473092D01*
X963784Y-494181D01*
X950924Y-518242D01*
X943004Y-544349D01*
X940330Y-571500D01*
X943004Y-598651D01*
X950924Y-624758D01*
X963784Y-648819D01*
X981092Y-669908D01*
X1000456Y-685800D01*
X76200Y-685800D01*
X76200Y-524500D01*
X173693Y-524500D01*
X174919Y-536948D01*
X178550Y-548918D01*
X184446Y-559949D01*
X192381Y-569619D01*
X202051Y-577554D01*
X213082Y-583450D01*
X225052Y-587081D01*
X237500Y-588307D01*
X288925Y-588000D01*
X304800Y-572125D01*
X304800Y-457200D01*
X330200Y-457200D01*
X330200Y-572125D01*
X346075Y-588000D01*
X397500Y-588307D01*
X409948Y-587081D01*
X421918Y-583450D01*
X432949Y-577554D01*
X442618Y-569619D01*
X450554Y-559949D01*
X456450Y-548918D01*
X460081Y-536948D01*
X461307Y-524500D01*
X461000Y-473075D01*
X445125Y-457200D01*
X330200Y-457200D01*
X304800Y-457200D01*
X189875Y-457200D01*
X174000Y-473075D01*
X173693Y-524500D01*
X76200Y-524500D01*
X76200Y-76200D01*
X230269Y-76200D01*
X226024Y-79036D01*
G04 #@! TA.AperFunction,Conductor*
D22*
G36*
X226024Y-79036D02*
G01*
X206036Y-99024D01*
X190332Y-122527D01*
X179515Y-148643D01*
X174000Y-176366D01*
X174000Y-204633D01*
X179515Y-232357D01*
X190332Y-258473D01*
X206036Y-281976D01*
X225896Y-301836D01*
X225052Y-301919D01*
X213082Y-305550D01*
X202051Y-311446D01*
X192381Y-319382D01*
X184446Y-329051D01*
X178550Y-340082D01*
X174919Y-352052D01*
X173693Y-364500D01*
X174000Y-415925D01*
X189875Y-431800D01*
X304800Y-431800D01*
X304800Y-429800D01*
X330200Y-429800D01*
X330200Y-431800D01*
X445125Y-431800D01*
X461000Y-415925D01*
X461307Y-364500D01*
X460081Y-352052D01*
X456450Y-340082D01*
X450554Y-329051D01*
X442618Y-319382D01*
X432949Y-311446D01*
X421918Y-305550D01*
X409948Y-301919D01*
X409104Y-301836D01*
X428964Y-281976D01*
X444668Y-258473D01*
X455485Y-232357D01*
X461000Y-204633D01*
X461000Y-176366D01*
X455485Y-148643D01*
X444668Y-122527D01*
X428964Y-99024D01*
X408976Y-79036D01*
X404731Y-76200D01*
X1328239Y-76200D01*
X1336973Y-84934D01*
X1299970Y-106931D01*
X1275583Y-153463D01*
X1260742Y-203858D01*
X1256019Y-256181D01*
X1261593Y-308420D01*
X1277252Y-358567D01*
X1299970Y-401069D01*
X1336973Y-423066D01*
X1327039Y-433000D01*
X1072696Y-433000D01*
X1052349Y-435004D01*
X1026242Y-442924D01*
X1002181Y-455784D01*
X981092Y-473092D01*
X963784Y-494181D01*
X950924Y-518242D01*
X943004Y-544349D01*
X940330Y-571500D01*
X943004Y-598651D01*
X950924Y-624758D01*
X963784Y-648819D01*
X981092Y-669908D01*
X1000456Y-685800D01*
X76200Y-685800D01*
X76200Y-524500D01*
X173693Y-524500D01*
X174919Y-536948D01*
X178550Y-548918D01*
X184446Y-559949D01*
X192381Y-569619D01*
X202051Y-577554D01*
X213082Y-583450D01*
X225052Y-587081D01*
X237500Y-588307D01*
X288925Y-588000D01*
X304800Y-572125D01*
X304800Y-457200D01*
X330200Y-457200D01*
X330200Y-572125D01*
X346075Y-588000D01*
X397500Y-588307D01*
X409948Y-587081D01*
X421918Y-583450D01*
X432949Y-577554D01*
X442618Y-569619D01*
X450554Y-559949D01*
X456450Y-548918D01*
X460081Y-536948D01*
X461307Y-524500D01*
X461000Y-473075D01*
X445125Y-457200D01*
X330200Y-457200D01*
X304800Y-457200D01*
X189875Y-457200D01*
X174000Y-473075D01*
X173693Y-524500D01*
X76200Y-524500D01*
X76200Y-76200D01*
X230269Y-76200D01*
X226024Y-79036D01*
G37*
G04 #@! TD.AperFunction*
D21*
X1543375Y-252586D02*
X1541960Y-254000D01*
X1543375Y-255414D01*
X1525414Y-273375D01*
X1524000Y-271961D01*
X1522586Y-273375D01*
X1504625Y-255414D01*
X1506039Y-254000D01*
X1504625Y-252586D01*
X1522586Y-234625D01*
X1524000Y-236039D01*
X1525414Y-234625D01*
X1543375Y-252586D01*
G04 #@! TA.AperFunction,Conductor*
D22*
G36*
X1543375Y-252586D02*
G01*
X1541960Y-254000D01*
X1543375Y-255414D01*
X1525414Y-273375D01*
X1524000Y-271961D01*
X1522586Y-273375D01*
X1504625Y-255414D01*
X1506039Y-254000D01*
X1504625Y-252586D01*
X1522586Y-234625D01*
X1524000Y-236039D01*
X1525414Y-234625D01*
X1543375Y-252586D01*
G37*
G04 #@! TD.AperFunction*
M02*
