G04 #@! TF.GenerationSoftware,KiCad,Pcbnew,(5.1.12)-1*
G04 #@! TF.CreationDate,2021-12-10T10:06:53+09:00*
G04 #@! TF.ProjectId,kicad_arduino_LCD,6b696361-645f-4617-9264-75696e6f5f4c,rev?*
G04 #@! TF.SameCoordinates,PX7339f30PY4576b0c*
G04 #@! TF.FileFunction,Soldermask,Top*
G04 #@! TF.FilePolarity,Negative*
%FSLAX45Y45*%
G04 Gerber Fmt 4.5, Leading zero omitted, Abs format (unit mm)*
G04 Created by KiCad (PCBNEW (5.1.12)-1) date 2021-12-10 10:06:53*
%MOMM*%
%LPD*%
G01*
G04 APERTURE LIST*
%ADD10O,1.827200X2.132000*%
%ADD11O,1.100000X1.700000*%
%ADD12C,1.700000*%
%ADD13C,2.100000*%
%ADD14C,4.164000*%
%ADD15C,1.100000*%
G04 APERTURE END LIST*
D10*
X4165600Y-254000D03*
X3911600Y-254000D03*
X3657600Y-254000D03*
X3403600Y-254000D03*
X3149600Y-254000D03*
X2895600Y-254000D03*
X2641600Y-254000D03*
X2387600Y-254000D03*
X2133600Y-254000D03*
X1879600Y-254000D03*
D11*
X4111000Y-969000D03*
X4261000Y-969000D03*
X4411000Y-969000D03*
X4561000Y-969000D03*
X4711000Y-969000D03*
X4861000Y-969000D03*
X5011000Y-969000D03*
X5161000Y-969000D03*
G36*
G01*
X5366000Y-889000D02*
X5366000Y-1049000D01*
G75*
G02*
X5361000Y-1054000I-5000J0D01*
G01*
X5261000Y-1054000D01*
G75*
G02*
X5256000Y-1049000I0J5000D01*
G01*
X5256000Y-889000D01*
G75*
G02*
X5261000Y-884000I5000J0D01*
G01*
X5361000Y-884000D01*
G75*
G02*
X5366000Y-889000I0J-5000D01*
G01*
G37*
D12*
X762000Y-4826000D03*
X762000Y-5080000D03*
X508000Y-4826000D03*
X508000Y-5080000D03*
X254000Y-4826000D03*
X254000Y-5080000D03*
X5842000Y-4318000D03*
X5842000Y-4572000D03*
X5588000Y-4318000D03*
X5334000Y-4572000D03*
X5588000Y-4572000D03*
X5334000Y-4318000D03*
X4826000Y-4572000D03*
X4064000Y-4572000D03*
X5080000Y-4572000D03*
X4318000Y-4572000D03*
X4572000Y-4572000D03*
X4826000Y-4318000D03*
X4064000Y-4318000D03*
X5080000Y-4318000D03*
X4318000Y-4318000D03*
X4572000Y-4318000D03*
X3556000Y-4572000D03*
X2794000Y-4572000D03*
X3810000Y-4572000D03*
X3048000Y-4572000D03*
X3302000Y-4572000D03*
X3556000Y-4318000D03*
X2794000Y-4318000D03*
X3810000Y-4318000D03*
X3048000Y-4318000D03*
X3302000Y-4318000D03*
X2286000Y-4572000D03*
X1524000Y-4572000D03*
X2540000Y-4572000D03*
X1778000Y-4572000D03*
X2032000Y-4572000D03*
X2286000Y-4318000D03*
X1524000Y-4318000D03*
X2540000Y-4318000D03*
X1778000Y-4318000D03*
X2032000Y-4318000D03*
X1016000Y-4572000D03*
X254000Y-4572000D03*
X1270000Y-4572000D03*
X508000Y-4572000D03*
X762000Y-4572000D03*
X1016000Y-4318000D03*
X254000Y-4318000D03*
X1270000Y-4318000D03*
X508000Y-4318000D03*
X762000Y-4318000D03*
X1016000Y-4064000D03*
X254000Y-4064000D03*
X1270000Y-4064000D03*
X508000Y-4064000D03*
X762000Y-4064000D03*
X1016000Y-3810000D03*
X254000Y-3810000D03*
X1270000Y-3810000D03*
X508000Y-3810000D03*
X762000Y-3810000D03*
X1016000Y-3556000D03*
X254000Y-3556000D03*
X1270000Y-3556000D03*
X508000Y-3556000D03*
X762000Y-3556000D03*
X1016000Y-3302000D03*
X254000Y-3302000D03*
X1270000Y-3302000D03*
X508000Y-3302000D03*
X762000Y-3302000D03*
X1016000Y-3048000D03*
X254000Y-3048000D03*
X1270000Y-3048000D03*
X508000Y-3048000D03*
X762000Y-3048000D03*
X1016000Y-2794000D03*
X254000Y-2794000D03*
X1270000Y-2794000D03*
X508000Y-2794000D03*
X762000Y-2794000D03*
X1016000Y-2540000D03*
X254000Y-2540000D03*
X1270000Y-2540000D03*
X508000Y-2540000D03*
X762000Y-2540000D03*
X1016000Y-2286000D03*
X254000Y-2286000D03*
X1270000Y-2286000D03*
X508000Y-2286000D03*
X762000Y-2286000D03*
X1016000Y-2032000D03*
X254000Y-2032000D03*
X1270000Y-2032000D03*
X508000Y-2032000D03*
X762000Y-2032000D03*
X1016000Y-1778000D03*
X254000Y-1778000D03*
X1270000Y-1778000D03*
X508000Y-1778000D03*
X762000Y-1778000D03*
X1016000Y-1524000D03*
X254000Y-1524000D03*
X1270000Y-1524000D03*
X508000Y-1524000D03*
X762000Y-1524000D03*
X1016000Y-1270000D03*
X254000Y-1270000D03*
X1270000Y-1270000D03*
X508000Y-1270000D03*
X762000Y-1270000D03*
X1270000Y-1016000D03*
X1016000Y-1016000D03*
X762000Y-1016000D03*
X508000Y-1016000D03*
X254000Y-1016000D03*
G36*
G01*
X2155500Y-1843000D02*
X2035500Y-1843000D01*
G75*
G02*
X2030500Y-1838000I0J5000D01*
G01*
X2030500Y-1718000D01*
G75*
G02*
X2035500Y-1713000I5000J0D01*
G01*
X2155500Y-1713000D01*
G75*
G02*
X2160500Y-1718000I0J-5000D01*
G01*
X2160500Y-1838000D01*
G75*
G02*
X2155500Y-1843000I-5000J0D01*
G01*
G37*
G36*
G01*
X2155500Y-2003000D02*
X2035500Y-2003000D01*
G75*
G02*
X2030500Y-1998000I0J5000D01*
G01*
X2030500Y-1878000D01*
G75*
G02*
X2035500Y-1873000I5000J0D01*
G01*
X2155500Y-1873000D01*
G75*
G02*
X2160500Y-1878000I0J-5000D01*
G01*
X2160500Y-1998000D01*
G75*
G02*
X2155500Y-2003000I-5000J0D01*
G01*
G37*
G36*
G01*
X2473000Y-2003000D02*
X2353000Y-2003000D01*
G75*
G02*
X2348000Y-1998000I0J5000D01*
G01*
X2348000Y-1878000D01*
G75*
G02*
X2353000Y-1873000I5000J0D01*
G01*
X2473000Y-1873000D01*
G75*
G02*
X2478000Y-1878000I0J-5000D01*
G01*
X2478000Y-1998000D01*
G75*
G02*
X2473000Y-2003000I-5000J0D01*
G01*
G37*
G36*
G01*
X2473000Y-1843000D02*
X2353000Y-1843000D01*
G75*
G02*
X2348000Y-1838000I0J5000D01*
G01*
X2348000Y-1718000D01*
G75*
G02*
X2353000Y-1713000I5000J0D01*
G01*
X2473000Y-1713000D01*
G75*
G02*
X2478000Y-1718000I0J-5000D01*
G01*
X2478000Y-1838000D01*
G75*
G02*
X2473000Y-1843000I-5000J0D01*
G01*
G37*
D13*
X5969000Y-3487000D03*
X6619000Y-3487000D03*
X5969000Y-3937000D03*
X6619000Y-3937000D03*
D10*
X6350000Y-254000D03*
X6096000Y-254000D03*
X5842000Y-254000D03*
X5588000Y-254000D03*
X5334000Y-254000D03*
X5080000Y-254000D03*
X4826000Y-254000D03*
X4572000Y-254000D03*
D14*
X6604000Y-1778000D03*
X1524000Y-254000D03*
X6604000Y-4572000D03*
X1397000Y-5080000D03*
D10*
X6350000Y-5080000D03*
X6096000Y-5080000D03*
X5842000Y-5080000D03*
X5588000Y-5080000D03*
X5334000Y-5080000D03*
X5080000Y-5080000D03*
X4572000Y-5080000D03*
X4318000Y-5080000D03*
X4064000Y-5080000D03*
X3810000Y-5080000D03*
X3556000Y-5080000D03*
X3302000Y-5080000D03*
X3048000Y-5080000D03*
X2794000Y-5080000D03*
G36*
G01*
X397500Y-529500D02*
X237500Y-529500D01*
G75*
G02*
X232500Y-524500I0J5000D01*
G01*
X232500Y-364500D01*
G75*
G02*
X237500Y-359500I5000J0D01*
G01*
X397500Y-359500D01*
G75*
G02*
X402500Y-364500I0J-5000D01*
G01*
X402500Y-524500D01*
G75*
G02*
X397500Y-529500I-5000J0D01*
G01*
G37*
D12*
X317500Y-190500D03*
G36*
G01*
X1616500Y-2092000D02*
X1616500Y-1972000D01*
G75*
G02*
X1621500Y-1967000I5000J0D01*
G01*
X1741500Y-1967000D01*
G75*
G02*
X1746500Y-1972000I0J-5000D01*
G01*
X1746500Y-2092000D01*
G75*
G02*
X1741500Y-2097000I-5000J0D01*
G01*
X1621500Y-2097000D01*
G75*
G02*
X1616500Y-2092000I0J5000D01*
G01*
G37*
G36*
G01*
X1776500Y-2092000D02*
X1776500Y-1972000D01*
G75*
G02*
X1781500Y-1967000I5000J0D01*
G01*
X1901500Y-1967000D01*
G75*
G02*
X1906500Y-1972000I0J-5000D01*
G01*
X1906500Y-2092000D01*
G75*
G02*
X1901500Y-2097000I-5000J0D01*
G01*
X1781500Y-2097000D01*
G75*
G02*
X1776500Y-2092000I0J5000D01*
G01*
G37*
G36*
G01*
X5176000Y-655000D02*
X5176000Y-775000D01*
G75*
G02*
X5171000Y-780000I-5000J0D01*
G01*
X5051000Y-780000D01*
G75*
G02*
X5046000Y-775000I0J5000D01*
G01*
X5046000Y-655000D01*
G75*
G02*
X5051000Y-650000I5000J0D01*
G01*
X5171000Y-650000D01*
G75*
G02*
X5176000Y-655000I0J-5000D01*
G01*
G37*
G36*
G01*
X5016000Y-655000D02*
X5016000Y-775000D01*
G75*
G02*
X5011000Y-780000I-5000J0D01*
G01*
X4891000Y-780000D01*
G75*
G02*
X4886000Y-775000I0J5000D01*
G01*
X4886000Y-655000D01*
G75*
G02*
X4891000Y-650000I5000J0D01*
G01*
X5011000Y-650000D01*
G75*
G02*
X5016000Y-655000I0J-5000D01*
G01*
G37*
G36*
G01*
X4707500Y-796500D02*
X4587500Y-796500D01*
G75*
G02*
X4582500Y-791500I0J5000D01*
G01*
X4582500Y-671500D01*
G75*
G02*
X4587500Y-666500I5000J0D01*
G01*
X4707500Y-666500D01*
G75*
G02*
X4712500Y-671500I0J-5000D01*
G01*
X4712500Y-791500D01*
G75*
G02*
X4707500Y-796500I-5000J0D01*
G01*
G37*
G36*
G01*
X4707500Y-636500D02*
X4587500Y-636500D01*
G75*
G02*
X4582500Y-631500I0J5000D01*
G01*
X4582500Y-511500D01*
G75*
G02*
X4587500Y-506500I5000J0D01*
G01*
X4707500Y-506500D01*
G75*
G02*
X4712500Y-511500I0J-5000D01*
G01*
X4712500Y-631500D01*
G75*
G02*
X4707500Y-636500I-5000J0D01*
G01*
G37*
G36*
G01*
X5425000Y-620000D02*
X5305000Y-620000D01*
G75*
G02*
X5300000Y-615000I0J5000D01*
G01*
X5300000Y-495000D01*
G75*
G02*
X5305000Y-490000I5000J0D01*
G01*
X5425000Y-490000D01*
G75*
G02*
X5430000Y-495000I0J-5000D01*
G01*
X5430000Y-615000D01*
G75*
G02*
X5425000Y-620000I-5000J0D01*
G01*
G37*
G36*
G01*
X5425000Y-780000D02*
X5305000Y-780000D01*
G75*
G02*
X5300000Y-775000I0J5000D01*
G01*
X5300000Y-655000D01*
G75*
G02*
X5305000Y-650000I5000J0D01*
G01*
X5425000Y-650000D01*
G75*
G02*
X5430000Y-655000I0J-5000D01*
G01*
X5430000Y-775000D01*
G75*
G02*
X5425000Y-780000I-5000J0D01*
G01*
G37*
G36*
G01*
X2924500Y-1853000D02*
X3044500Y-1853000D01*
G75*
G02*
X3049500Y-1858000I0J-5000D01*
G01*
X3049500Y-1978000D01*
G75*
G02*
X3044500Y-1983000I-5000J0D01*
G01*
X2924500Y-1983000D01*
G75*
G02*
X2919500Y-1978000I0J5000D01*
G01*
X2919500Y-1858000D01*
G75*
G02*
X2924500Y-1853000I5000J0D01*
G01*
G37*
G36*
G01*
X2924500Y-1693000D02*
X3044500Y-1693000D01*
G75*
G02*
X3049500Y-1698000I0J-5000D01*
G01*
X3049500Y-1818000D01*
G75*
G02*
X3044500Y-1823000I-5000J0D01*
G01*
X2924500Y-1823000D01*
G75*
G02*
X2919500Y-1818000I0J5000D01*
G01*
X2919500Y-1698000D01*
G75*
G02*
X2924500Y-1693000I5000J0D01*
G01*
G37*
G36*
G01*
X2670500Y-1693000D02*
X2790500Y-1693000D01*
G75*
G02*
X2795500Y-1698000I0J-5000D01*
G01*
X2795500Y-1818000D01*
G75*
G02*
X2790500Y-1823000I-5000J0D01*
G01*
X2670500Y-1823000D01*
G75*
G02*
X2665500Y-1818000I0J5000D01*
G01*
X2665500Y-1698000D01*
G75*
G02*
X2670500Y-1693000I5000J0D01*
G01*
G37*
G36*
G01*
X2670500Y-1853000D02*
X2790500Y-1853000D01*
G75*
G02*
X2795500Y-1858000I0J-5000D01*
G01*
X2795500Y-1978000D01*
G75*
G02*
X2790500Y-1983000I-5000J0D01*
G01*
X2670500Y-1983000D01*
G75*
G02*
X2665500Y-1978000I0J5000D01*
G01*
X2665500Y-1858000D01*
G75*
G02*
X2670500Y-1853000I5000J0D01*
G01*
G37*
G36*
G01*
X4270000Y-666500D02*
X4390000Y-666500D01*
G75*
G02*
X4395000Y-671500I0J-5000D01*
G01*
X4395000Y-791500D01*
G75*
G02*
X4390000Y-796500I-5000J0D01*
G01*
X4270000Y-796500D01*
G75*
G02*
X4265000Y-791500I0J5000D01*
G01*
X4265000Y-671500D01*
G75*
G02*
X4270000Y-666500I5000J0D01*
G01*
G37*
G36*
G01*
X4270000Y-506500D02*
X4390000Y-506500D01*
G75*
G02*
X4395000Y-511500I0J-5000D01*
G01*
X4395000Y-631500D01*
G75*
G02*
X4390000Y-636500I-5000J0D01*
G01*
X4270000Y-636500D01*
G75*
G02*
X4265000Y-631500I0J5000D01*
G01*
X4265000Y-511500D01*
G75*
G02*
X4270000Y-506500I5000J0D01*
G01*
G37*
G36*
G01*
X3952500Y-683000D02*
X4072500Y-683000D01*
G75*
G02*
X4077500Y-688000I0J-5000D01*
G01*
X4077500Y-808000D01*
G75*
G02*
X4072500Y-813000I-5000J0D01*
G01*
X3952500Y-813000D01*
G75*
G02*
X3947500Y-808000I0J5000D01*
G01*
X3947500Y-688000D01*
G75*
G02*
X3952500Y-683000I5000J0D01*
G01*
G37*
G36*
G01*
X3952500Y-523000D02*
X4072500Y-523000D01*
G75*
G02*
X4077500Y-528000I0J-5000D01*
G01*
X4077500Y-648000D01*
G75*
G02*
X4072500Y-653000I-5000J0D01*
G01*
X3952500Y-653000D01*
G75*
G02*
X3947500Y-648000I0J5000D01*
G01*
X3947500Y-528000D01*
G75*
G02*
X3952500Y-523000I5000J0D01*
G01*
G37*
G36*
G01*
X3698500Y-523000D02*
X3818500Y-523000D01*
G75*
G02*
X3823500Y-528000I0J-5000D01*
G01*
X3823500Y-648000D01*
G75*
G02*
X3818500Y-653000I-5000J0D01*
G01*
X3698500Y-653000D01*
G75*
G02*
X3693500Y-648000I0J5000D01*
G01*
X3693500Y-528000D01*
G75*
G02*
X3698500Y-523000I5000J0D01*
G01*
G37*
G36*
G01*
X3698500Y-683000D02*
X3818500Y-683000D01*
G75*
G02*
X3823500Y-688000I0J-5000D01*
G01*
X3823500Y-808000D01*
G75*
G02*
X3818500Y-813000I-5000J0D01*
G01*
X3698500Y-813000D01*
G75*
G02*
X3693500Y-808000I0J5000D01*
G01*
X3693500Y-688000D01*
G75*
G02*
X3698500Y-683000I5000J0D01*
G01*
G37*
D13*
X5664600Y-3937000D03*
X5014600Y-3937000D03*
X5664600Y-3487000D03*
X5014600Y-3487000D03*
X4064600Y-3487000D03*
X4714600Y-3487000D03*
X4064600Y-3937000D03*
X4714600Y-3937000D03*
X3764600Y-3937000D03*
X3114600Y-3937000D03*
X3764600Y-3487000D03*
X3114600Y-3487000D03*
D15*
X2114000Y-3169000D03*
X2304000Y-3169000D03*
G36*
G01*
X2194000Y-3063500D02*
X2034000Y-3063500D01*
G75*
G02*
X2029000Y-3058500I0J5000D01*
G01*
X2029000Y-2898500D01*
G75*
G02*
X2034000Y-2893500I5000J0D01*
G01*
X2194000Y-2893500D01*
G75*
G02*
X2199000Y-2898500I0J-5000D01*
G01*
X2199000Y-3058500D01*
G75*
G02*
X2194000Y-3063500I-5000J0D01*
G01*
G37*
D12*
X2876000Y-2216500D03*
X2368000Y-2978500D03*
X2622000Y-2216500D03*
X2622000Y-2978500D03*
X2368000Y-2216500D03*
X2876000Y-2978500D03*
X2114000Y-2216500D03*
G36*
G01*
X807500Y-250500D02*
X807500Y-130500D01*
G75*
G02*
X812500Y-125500I5000J0D01*
G01*
X932500Y-125500D01*
G75*
G02*
X937500Y-130500I0J-5000D01*
G01*
X937500Y-250500D01*
G75*
G02*
X932500Y-255500I-5000J0D01*
G01*
X812500Y-255500D01*
G75*
G02*
X807500Y-250500I0J5000D01*
G01*
G37*
G36*
G01*
X967500Y-250500D02*
X967500Y-130500D01*
G75*
G02*
X972500Y-125500I5000J0D01*
G01*
X1092500Y-125500D01*
G75*
G02*
X1097500Y-130500I0J-5000D01*
G01*
X1097500Y-250500D01*
G75*
G02*
X1092500Y-255500I-5000J0D01*
G01*
X972500Y-255500D01*
G75*
G02*
X967500Y-250500I0J5000D01*
G01*
G37*
G36*
G01*
X6111000Y-3235000D02*
X6111000Y-3115000D01*
G75*
G02*
X6116000Y-3110000I5000J0D01*
G01*
X6236000Y-3110000D01*
G75*
G02*
X6241000Y-3115000I0J-5000D01*
G01*
X6241000Y-3235000D01*
G75*
G02*
X6236000Y-3240000I-5000J0D01*
G01*
X6116000Y-3240000D01*
G75*
G02*
X6111000Y-3235000I0J5000D01*
G01*
G37*
G36*
G01*
X5951000Y-3235000D02*
X5951000Y-3115000D01*
G75*
G02*
X5956000Y-3110000I5000J0D01*
G01*
X6076000Y-3110000D01*
G75*
G02*
X6081000Y-3115000I0J-5000D01*
G01*
X6081000Y-3235000D01*
G75*
G02*
X6076000Y-3240000I-5000J0D01*
G01*
X5956000Y-3240000D01*
G75*
G02*
X5951000Y-3235000I0J5000D01*
G01*
G37*
G36*
G01*
X5045500Y-3235000D02*
X5045500Y-3115000D01*
G75*
G02*
X5050500Y-3110000I5000J0D01*
G01*
X5170500Y-3110000D01*
G75*
G02*
X5175500Y-3115000I0J-5000D01*
G01*
X5175500Y-3235000D01*
G75*
G02*
X5170500Y-3240000I-5000J0D01*
G01*
X5050500Y-3240000D01*
G75*
G02*
X5045500Y-3235000I0J5000D01*
G01*
G37*
G36*
G01*
X5205500Y-3235000D02*
X5205500Y-3115000D01*
G75*
G02*
X5210500Y-3110000I5000J0D01*
G01*
X5330500Y-3110000D01*
G75*
G02*
X5335500Y-3115000I0J-5000D01*
G01*
X5335500Y-3235000D01*
G75*
G02*
X5330500Y-3240000I-5000J0D01*
G01*
X5210500Y-3240000D01*
G75*
G02*
X5205500Y-3235000I0J5000D01*
G01*
G37*
G36*
G01*
X4399500Y-3115000D02*
X4399500Y-3235000D01*
G75*
G02*
X4394500Y-3240000I-5000J0D01*
G01*
X4274500Y-3240000D01*
G75*
G02*
X4269500Y-3235000I0J5000D01*
G01*
X4269500Y-3115000D01*
G75*
G02*
X4274500Y-3110000I5000J0D01*
G01*
X4394500Y-3110000D01*
G75*
G02*
X4399500Y-3115000I0J-5000D01*
G01*
G37*
G36*
G01*
X4239500Y-3115000D02*
X4239500Y-3235000D01*
G75*
G02*
X4234500Y-3240000I-5000J0D01*
G01*
X4114500Y-3240000D01*
G75*
G02*
X4109500Y-3235000I0J5000D01*
G01*
X4109500Y-3115000D01*
G75*
G02*
X4114500Y-3110000I5000J0D01*
G01*
X4234500Y-3110000D01*
G75*
G02*
X4239500Y-3115000I0J-5000D01*
G01*
G37*
G36*
G01*
X3397500Y-3115000D02*
X3397500Y-3235000D01*
G75*
G02*
X3392500Y-3240000I-5000J0D01*
G01*
X3272500Y-3240000D01*
G75*
G02*
X3267500Y-3235000I0J5000D01*
G01*
X3267500Y-3115000D01*
G75*
G02*
X3272500Y-3110000I5000J0D01*
G01*
X3392500Y-3110000D01*
G75*
G02*
X3397500Y-3115000I0J-5000D01*
G01*
G37*
G36*
G01*
X3557500Y-3115000D02*
X3557500Y-3235000D01*
G75*
G02*
X3552500Y-3240000I-5000J0D01*
G01*
X3432500Y-3240000D01*
G75*
G02*
X3427500Y-3235000I0J5000D01*
G01*
X3427500Y-3115000D01*
G75*
G02*
X3432500Y-3110000I5000J0D01*
G01*
X3552500Y-3110000D01*
G75*
G02*
X3557500Y-3115000I0J-5000D01*
G01*
G37*
G36*
G01*
X6542000Y-3115000D02*
X6542000Y-3235000D01*
G75*
G02*
X6537000Y-3240000I-5000J0D01*
G01*
X6417000Y-3240000D01*
G75*
G02*
X6412000Y-3235000I0J5000D01*
G01*
X6412000Y-3115000D01*
G75*
G02*
X6417000Y-3110000I5000J0D01*
G01*
X6537000Y-3110000D01*
G75*
G02*
X6542000Y-3115000I0J-5000D01*
G01*
G37*
G36*
G01*
X6702000Y-3115000D02*
X6702000Y-3235000D01*
G75*
G02*
X6697000Y-3240000I-5000J0D01*
G01*
X6577000Y-3240000D01*
G75*
G02*
X6572000Y-3235000I0J5000D01*
G01*
X6572000Y-3115000D01*
G75*
G02*
X6577000Y-3110000I5000J0D01*
G01*
X6697000Y-3110000D01*
G75*
G02*
X6702000Y-3115000I0J-5000D01*
G01*
G37*
G36*
G01*
X5749500Y-3115000D02*
X5749500Y-3235000D01*
G75*
G02*
X5744500Y-3240000I-5000J0D01*
G01*
X5624500Y-3240000D01*
G75*
G02*
X5619500Y-3235000I0J5000D01*
G01*
X5619500Y-3115000D01*
G75*
G02*
X5624500Y-3110000I5000J0D01*
G01*
X5744500Y-3110000D01*
G75*
G02*
X5749500Y-3115000I0J-5000D01*
G01*
G37*
G36*
G01*
X5589500Y-3115000D02*
X5589500Y-3235000D01*
G75*
G02*
X5584500Y-3240000I-5000J0D01*
G01*
X5464500Y-3240000D01*
G75*
G02*
X5459500Y-3235000I0J5000D01*
G01*
X5459500Y-3115000D01*
G75*
G02*
X5464500Y-3110000I5000J0D01*
G01*
X5584500Y-3110000D01*
G75*
G02*
X5589500Y-3115000I0J-5000D01*
G01*
G37*
G36*
G01*
X4667500Y-3115000D02*
X4667500Y-3235000D01*
G75*
G02*
X4662500Y-3240000I-5000J0D01*
G01*
X4542500Y-3240000D01*
G75*
G02*
X4537500Y-3235000I0J5000D01*
G01*
X4537500Y-3115000D01*
G75*
G02*
X4542500Y-3110000I5000J0D01*
G01*
X4662500Y-3110000D01*
G75*
G02*
X4667500Y-3115000I0J-5000D01*
G01*
G37*
G36*
G01*
X4827500Y-3115000D02*
X4827500Y-3235000D01*
G75*
G02*
X4822500Y-3240000I-5000J0D01*
G01*
X4702500Y-3240000D01*
G75*
G02*
X4697500Y-3235000I0J5000D01*
G01*
X4697500Y-3115000D01*
G75*
G02*
X4702500Y-3110000I5000J0D01*
G01*
X4822500Y-3110000D01*
G75*
G02*
X4827500Y-3115000I0J-5000D01*
G01*
G37*
G36*
G01*
X3971500Y-3115000D02*
X3971500Y-3235000D01*
G75*
G02*
X3966500Y-3240000I-5000J0D01*
G01*
X3846500Y-3240000D01*
G75*
G02*
X3841500Y-3235000I0J5000D01*
G01*
X3841500Y-3115000D01*
G75*
G02*
X3846500Y-3110000I5000J0D01*
G01*
X3966500Y-3110000D01*
G75*
G02*
X3971500Y-3115000I0J-5000D01*
G01*
G37*
G36*
G01*
X3811500Y-3115000D02*
X3811500Y-3235000D01*
G75*
G02*
X3806500Y-3240000I-5000J0D01*
G01*
X3686500Y-3240000D01*
G75*
G02*
X3681500Y-3235000I0J5000D01*
G01*
X3681500Y-3115000D01*
G75*
G02*
X3686500Y-3110000I5000J0D01*
G01*
X3806500Y-3110000D01*
G75*
G02*
X3811500Y-3115000I0J-5000D01*
G01*
G37*
G36*
G01*
X3430500Y-702000D02*
X3430500Y-822000D01*
G75*
G02*
X3425500Y-827000I-5000J0D01*
G01*
X3305500Y-827000D01*
G75*
G02*
X3300500Y-822000I0J5000D01*
G01*
X3300500Y-702000D01*
G75*
G02*
X3305500Y-697000I5000J0D01*
G01*
X3425500Y-697000D01*
G75*
G02*
X3430500Y-702000I0J-5000D01*
G01*
G37*
G36*
G01*
X3270500Y-702000D02*
X3270500Y-822000D01*
G75*
G02*
X3265500Y-827000I-5000J0D01*
G01*
X3145500Y-827000D01*
G75*
G02*
X3140500Y-822000I0J5000D01*
G01*
X3140500Y-702000D01*
G75*
G02*
X3145500Y-697000I5000J0D01*
G01*
X3265500Y-697000D01*
G75*
G02*
X3270500Y-702000I0J-5000D01*
G01*
G37*
G36*
G01*
X2175500Y-1545500D02*
X2015500Y-1545500D01*
G75*
G02*
X2010500Y-1540500I0J5000D01*
G01*
X2010500Y-1380500D01*
G75*
G02*
X2015500Y-1375500I5000J0D01*
G01*
X2175500Y-1375500D01*
G75*
G02*
X2180500Y-1380500I0J-5000D01*
G01*
X2180500Y-1540500D01*
G75*
G02*
X2175500Y-1545500I-5000J0D01*
G01*
G37*
X2857500Y-698500D03*
X2349500Y-1460500D03*
X2603500Y-698500D03*
X2603500Y-1460500D03*
X2349500Y-698500D03*
X2857500Y-1460500D03*
X2095500Y-698500D03*
M02*
