G04 #@! TF.GenerationSoftware,KiCad,Pcbnew,(5.1.12)-1*
G04 #@! TF.CreationDate,2021-12-10T10:06:53+09:00*
G04 #@! TF.ProjectId,kicad_arduino_LCD,6b696361-645f-4617-9264-75696e6f5f4c,rev?*
G04 #@! TF.SameCoordinates,PX7339f30PY4576b0c*
G04 #@! TF.FileFunction,Copper,L1,Top*
G04 #@! TF.FilePolarity,Positive*
%FSLAX45Y45*%
G04 Gerber Fmt 4.5, Leading zero omitted, Abs format (unit mm)*
G04 Created by KiCad (PCBNEW (5.1.12)-1) date 2021-12-10 10:06:53*
%MOMM*%
%LPD*%
G01*
G04 APERTURE LIST*
G04 #@! TA.AperFunction,ComponentPad*
%ADD10O,1.727200X2.032000*%
G04 #@! TD*
G04 #@! TA.AperFunction,ComponentPad*
%ADD11O,1.000000X1.600000*%
G04 #@! TD*
G04 #@! TA.AperFunction,ComponentPad*
%ADD12R,1.000000X1.600000*%
G04 #@! TD*
G04 #@! TA.AperFunction,ComponentPad*
%ADD13C,1.600000*%
G04 #@! TD*
G04 #@! TA.AperFunction,SMDPad,CuDef*
%ADD14R,1.200000X1.200000*%
G04 #@! TD*
G04 #@! TA.AperFunction,ComponentPad*
%ADD15C,2.000000*%
G04 #@! TD*
G04 #@! TA.AperFunction,ComponentPad*
%ADD16C,4.064000*%
G04 #@! TD*
G04 #@! TA.AperFunction,ComponentPad*
%ADD17R,1.600000X1.600000*%
G04 #@! TD*
G04 #@! TA.AperFunction,ComponentPad*
%ADD18C,1.000000*%
G04 #@! TD*
G04 #@! TA.AperFunction,ViaPad*
%ADD19C,0.600000*%
G04 #@! TD*
G04 #@! TA.AperFunction,Conductor*
%ADD20C,0.600000*%
G04 #@! TD*
G04 #@! TA.AperFunction,Conductor*
%ADD21C,1.000000*%
G04 #@! TD*
G04 #@! TA.AperFunction,Conductor*
%ADD22C,1.500000*%
G04 #@! TD*
G04 #@! TA.AperFunction,Conductor*
%ADD23C,0.800000*%
G04 #@! TD*
G04 #@! TA.AperFunction,Conductor*
%ADD24C,0.300000*%
G04 #@! TD*
G04 #@! TA.AperFunction,Conductor*
%ADD25C,0.100000*%
G04 #@! TD*
G04 APERTURE END LIST*
D10*
X4165600Y-254000D03*
X3911600Y-254000D03*
X3657600Y-254000D03*
X3403600Y-254000D03*
X3149600Y-254000D03*
X2895600Y-254000D03*
X2641600Y-254000D03*
X2387600Y-254000D03*
X2133600Y-254000D03*
X1879600Y-254000D03*
D11*
X4111000Y-969000D03*
X4261000Y-969000D03*
X4411000Y-969000D03*
X4561000Y-969000D03*
X4711000Y-969000D03*
X4861000Y-969000D03*
X5011000Y-969000D03*
X5161000Y-969000D03*
D12*
X5311000Y-969000D03*
D13*
X762000Y-4826000D03*
X762000Y-5080000D03*
X508000Y-4826000D03*
X508000Y-5080000D03*
X254000Y-4826000D03*
X254000Y-5080000D03*
X5842000Y-4318000D03*
X5842000Y-4572000D03*
X5588000Y-4318000D03*
X5334000Y-4572000D03*
X5588000Y-4572000D03*
X5334000Y-4318000D03*
X4826000Y-4572000D03*
X4064000Y-4572000D03*
X5080000Y-4572000D03*
X4318000Y-4572000D03*
X4572000Y-4572000D03*
X4826000Y-4318000D03*
X4064000Y-4318000D03*
X5080000Y-4318000D03*
X4318000Y-4318000D03*
X4572000Y-4318000D03*
X3556000Y-4572000D03*
X2794000Y-4572000D03*
X3810000Y-4572000D03*
X3048000Y-4572000D03*
X3302000Y-4572000D03*
X3556000Y-4318000D03*
X2794000Y-4318000D03*
X3810000Y-4318000D03*
X3048000Y-4318000D03*
X3302000Y-4318000D03*
X2286000Y-4572000D03*
X1524000Y-4572000D03*
X2540000Y-4572000D03*
X1778000Y-4572000D03*
X2032000Y-4572000D03*
X2286000Y-4318000D03*
X1524000Y-4318000D03*
X2540000Y-4318000D03*
X1778000Y-4318000D03*
X2032000Y-4318000D03*
X1016000Y-4572000D03*
X254000Y-4572000D03*
X1270000Y-4572000D03*
X508000Y-4572000D03*
X762000Y-4572000D03*
X1016000Y-4318000D03*
X254000Y-4318000D03*
X1270000Y-4318000D03*
X508000Y-4318000D03*
X762000Y-4318000D03*
X1016000Y-4064000D03*
X254000Y-4064000D03*
X1270000Y-4064000D03*
X508000Y-4064000D03*
X762000Y-4064000D03*
X1016000Y-3810000D03*
X254000Y-3810000D03*
X1270000Y-3810000D03*
X508000Y-3810000D03*
X762000Y-3810000D03*
X1016000Y-3556000D03*
X254000Y-3556000D03*
X1270000Y-3556000D03*
X508000Y-3556000D03*
X762000Y-3556000D03*
X1016000Y-3302000D03*
X254000Y-3302000D03*
X1270000Y-3302000D03*
X508000Y-3302000D03*
X762000Y-3302000D03*
X1016000Y-3048000D03*
X254000Y-3048000D03*
X1270000Y-3048000D03*
X508000Y-3048000D03*
X762000Y-3048000D03*
X1016000Y-2794000D03*
X254000Y-2794000D03*
X1270000Y-2794000D03*
X508000Y-2794000D03*
X762000Y-2794000D03*
X1016000Y-2540000D03*
X254000Y-2540000D03*
X1270000Y-2540000D03*
X508000Y-2540000D03*
X762000Y-2540000D03*
X1016000Y-2286000D03*
X254000Y-2286000D03*
X1270000Y-2286000D03*
X508000Y-2286000D03*
X762000Y-2286000D03*
X1016000Y-2032000D03*
X254000Y-2032000D03*
X1270000Y-2032000D03*
X508000Y-2032000D03*
X762000Y-2032000D03*
X1016000Y-1778000D03*
X254000Y-1778000D03*
X1270000Y-1778000D03*
X508000Y-1778000D03*
X762000Y-1778000D03*
X1016000Y-1524000D03*
X254000Y-1524000D03*
X1270000Y-1524000D03*
X508000Y-1524000D03*
X762000Y-1524000D03*
X1016000Y-1270000D03*
X254000Y-1270000D03*
X1270000Y-1270000D03*
X508000Y-1270000D03*
X762000Y-1270000D03*
X1270000Y-1016000D03*
X1016000Y-1016000D03*
X762000Y-1016000D03*
X508000Y-1016000D03*
X254000Y-1016000D03*
D14*
X2095500Y-1778000D03*
X2095500Y-1938000D03*
X2413000Y-1938000D03*
X2413000Y-1778000D03*
D15*
X5969000Y-3487000D03*
X6619000Y-3487000D03*
X5969000Y-3937000D03*
X6619000Y-3937000D03*
D10*
X6350000Y-254000D03*
X6096000Y-254000D03*
X5842000Y-254000D03*
X5588000Y-254000D03*
X5334000Y-254000D03*
X5080000Y-254000D03*
X4826000Y-254000D03*
X4572000Y-254000D03*
D16*
X6604000Y-1778000D03*
X1524000Y-254000D03*
X6604000Y-4572000D03*
X1397000Y-5080000D03*
D10*
X6350000Y-5080000D03*
X6096000Y-5080000D03*
X5842000Y-5080000D03*
X5588000Y-5080000D03*
X5334000Y-5080000D03*
X5080000Y-5080000D03*
X4572000Y-5080000D03*
X4318000Y-5080000D03*
X4064000Y-5080000D03*
X3810000Y-5080000D03*
X3556000Y-5080000D03*
X3302000Y-5080000D03*
X3048000Y-5080000D03*
X2794000Y-5080000D03*
D17*
X317500Y-444500D03*
D13*
X317500Y-190500D03*
D14*
X1681500Y-2032000D03*
X1841500Y-2032000D03*
X5111000Y-715000D03*
X4951000Y-715000D03*
X4647500Y-731500D03*
X4647500Y-571500D03*
X5365000Y-555000D03*
X5365000Y-715000D03*
X2984500Y-1918000D03*
X2984500Y-1758000D03*
X2730500Y-1758000D03*
X2730500Y-1918000D03*
X4330000Y-731500D03*
X4330000Y-571500D03*
X4012500Y-748000D03*
X4012500Y-588000D03*
X3758500Y-588000D03*
X3758500Y-748000D03*
D15*
X5664600Y-3937000D03*
X5014600Y-3937000D03*
X5664600Y-3487000D03*
X5014600Y-3487000D03*
X4064600Y-3487000D03*
X4714600Y-3487000D03*
X4064600Y-3937000D03*
X4714600Y-3937000D03*
X3764600Y-3937000D03*
X3114600Y-3937000D03*
X3764600Y-3487000D03*
X3114600Y-3487000D03*
D18*
X2114000Y-3169000D03*
X2304000Y-3169000D03*
D17*
X2114000Y-2978500D03*
D13*
X2876000Y-2216500D03*
X2368000Y-2978500D03*
X2622000Y-2216500D03*
X2622000Y-2978500D03*
X2368000Y-2216500D03*
X2876000Y-2978500D03*
X2114000Y-2216500D03*
D14*
X872500Y-190500D03*
X1032500Y-190500D03*
X6176000Y-3175000D03*
X6016000Y-3175000D03*
X5110500Y-3175000D03*
X5270500Y-3175000D03*
X4334500Y-3175000D03*
X4174500Y-3175000D03*
X3332500Y-3175000D03*
X3492500Y-3175000D03*
X6477000Y-3175000D03*
X6637000Y-3175000D03*
X5684500Y-3175000D03*
X5524500Y-3175000D03*
X4602500Y-3175000D03*
X4762500Y-3175000D03*
X3906500Y-3175000D03*
X3746500Y-3175000D03*
X3365500Y-762000D03*
X3205500Y-762000D03*
D17*
X2095500Y-1460500D03*
D13*
X2857500Y-698500D03*
X2349500Y-1460500D03*
X2603500Y-698500D03*
X2603500Y-1460500D03*
X2349500Y-698500D03*
X2857500Y-1460500D03*
X2095500Y-698500D03*
D19*
X4254500Y-444500D03*
X3556000Y-1778000D03*
X4064000Y-1778000D03*
X4064000Y-2286000D03*
X4572000Y-2286000D03*
X6604000Y-2286000D03*
X6604000Y-2794000D03*
X6096000Y-762000D03*
X3556000Y-1270000D03*
X4064000Y-1270000D03*
X4572000Y-1270000D03*
X4572000Y-1778000D03*
X5080000Y-1270000D03*
X6096000Y-1778000D03*
X6096000Y-2286000D03*
X6096000Y-1270000D03*
X1778000Y-3302000D03*
X1778000Y-3810000D03*
X5842000Y-3048000D03*
X5207000Y-2794000D03*
X2032000Y-5080000D03*
X2286000Y-5080000D03*
X889000Y-571500D03*
X698500Y-571500D03*
X1778000Y-2794000D03*
X1778000Y-2286000D03*
X1778000Y-1270000D03*
X2794000Y-3810000D03*
X2794000Y-3302000D03*
X3556000Y-2286000D03*
X2984500Y-2095500D03*
X5016500Y-1905000D03*
X1079500Y-571500D03*
X3810000Y-2794000D03*
D20*
X4064000Y-5080000D02*
X4318000Y-5080000D01*
D21*
X4334500Y-3483500D02*
X4334500Y-3175000D01*
X4151000Y-3667000D02*
X4334500Y-3483500D01*
X3678200Y-3667000D02*
X4151000Y-3667000D01*
X3492500Y-3481300D02*
X3678200Y-3667000D01*
X3492500Y-3175000D02*
X3492500Y-3481300D01*
X5270500Y-3497500D02*
X5270500Y-3175000D01*
X4628200Y-3667000D02*
X5101000Y-3667000D01*
X4334500Y-3373300D02*
X4628200Y-3667000D01*
X5101000Y-3667000D02*
X5270500Y-3497500D01*
X4334500Y-3175000D02*
X4334500Y-3373300D01*
X6176000Y-3546400D02*
X6176000Y-3175000D01*
X5270500Y-3359300D02*
X5578200Y-3667000D01*
X6055400Y-3667000D02*
X6176000Y-3546400D01*
X5578200Y-3667000D02*
X6055400Y-3667000D01*
X5270500Y-3175000D02*
X5270500Y-3359300D01*
D22*
X3810000Y-5048135D02*
X3810000Y-5080000D01*
X3984736Y-4873399D02*
X3810000Y-5048135D01*
X6048601Y-4873399D02*
X3984736Y-4873399D01*
X6223000Y-4699000D02*
X6048601Y-4873399D01*
X6223000Y-3746500D02*
X6223000Y-4699000D01*
D21*
X6176000Y-3699500D02*
X6223000Y-3746500D01*
X6176000Y-3175000D02*
X6176000Y-3699500D01*
D22*
X3429000Y-2540000D02*
X3492500Y-2603500D01*
X3365500Y-2476500D02*
X3429000Y-2540000D01*
X2222500Y-2476500D02*
X3365500Y-2476500D01*
X2114000Y-2368000D02*
X2222500Y-2476500D01*
X2114000Y-2216500D02*
X2114000Y-2368000D01*
D21*
X2026000Y-2216500D02*
X1841500Y-2032000D01*
X2114000Y-2216500D02*
X2026000Y-2216500D01*
X1841500Y-1714500D02*
X2095500Y-1460500D01*
X1841500Y-2032000D02*
X1841500Y-1714500D01*
X2001500Y-2032000D02*
X2095500Y-1938000D01*
X1841500Y-2032000D02*
X2001500Y-2032000D01*
X2095500Y-1938000D02*
X2413000Y-1938000D01*
X2984500Y-1758000D02*
X2730500Y-1758000D01*
X2626500Y-1758000D02*
X2730500Y-1758000D01*
X2590500Y-1864500D02*
X2590500Y-1794000D01*
X2590500Y-1794000D02*
X2626500Y-1758000D01*
X2517000Y-1938000D02*
X2590500Y-1864500D01*
X2413000Y-1938000D02*
X2517000Y-1938000D01*
X3492500Y-3175000D02*
X3492500Y-2603500D01*
D22*
X3492500Y-2603500D02*
X3492500Y-2921000D01*
D21*
X3365500Y-1377000D02*
X2984500Y-1758000D01*
X3365500Y-762000D02*
X3365500Y-1377000D01*
D23*
X5011000Y-901000D02*
X5011000Y-969000D01*
X5111000Y-801000D02*
X5011000Y-901000D01*
X5111000Y-715000D02*
X5111000Y-801000D01*
D21*
X4861000Y-805000D02*
X4861000Y-969000D01*
X4951000Y-715000D02*
X4861000Y-805000D01*
D20*
X5161000Y-892423D02*
X5161000Y-969000D01*
X5338423Y-715000D02*
X5161000Y-892423D01*
X5365000Y-715000D02*
X5338423Y-715000D01*
D21*
X317500Y-190500D02*
X872500Y-190500D01*
D22*
X2065078Y-1063501D02*
X2349500Y-1347923D01*
X1932141Y-1063501D02*
X2065078Y-1063501D01*
X1730499Y-861859D02*
X1932141Y-1063501D01*
X1730499Y-535141D02*
X1730499Y-861859D01*
X1879600Y-386040D02*
X1730499Y-535141D01*
X2349500Y-1347923D02*
X2349500Y-1460500D01*
X1879600Y-254000D02*
X1879600Y-386040D01*
D21*
X2730500Y-2108000D02*
X2622000Y-2216500D01*
X2730500Y-1918000D02*
X2730500Y-2108000D01*
X2159000Y-1778000D02*
X2095500Y-1778000D01*
X2349500Y-1587500D02*
X2159000Y-1778000D01*
X2349500Y-1460500D02*
X2349500Y-1587500D01*
D22*
X1910500Y-787300D02*
X2006700Y-883500D01*
X2139637Y-883500D02*
X2603500Y-1347363D01*
X1910500Y-609700D02*
X1910500Y-787300D01*
X2603500Y-1347363D02*
X2603500Y-1460500D01*
X2006700Y-883500D02*
X2139637Y-883500D01*
X2133600Y-254000D02*
X2133600Y-386600D01*
X2133600Y-386600D02*
X1910500Y-609700D01*
D21*
X2603500Y-1587500D02*
X2413000Y-1778000D01*
X2603500Y-1460500D02*
X2603500Y-1587500D01*
X2984500Y-2108000D02*
X2876000Y-2216500D01*
X2984500Y-1918000D02*
X2984500Y-2095500D01*
X2984500Y-2095500D02*
X2984500Y-2108000D01*
X2984500Y-2095500D02*
X2984500Y-2095500D01*
X3979500Y-969000D02*
X3758500Y-748000D01*
X4111000Y-969000D02*
X3979500Y-969000D01*
X4711000Y-795000D02*
X4647500Y-731500D01*
X4711000Y-969000D02*
X4711000Y-795000D01*
X4847000Y-555000D02*
X4865000Y-555000D01*
X5365000Y-555000D02*
X4847000Y-555000D01*
D23*
X4821000Y-644000D02*
X4821000Y-581000D01*
X4821000Y-581000D02*
X4847000Y-555000D01*
X4733500Y-731500D02*
X4821000Y-644000D01*
X4647500Y-731500D02*
X4733500Y-731500D01*
D21*
X3758500Y-588000D02*
X4012500Y-588000D01*
X2286000Y-508000D02*
X2095500Y-698500D01*
X3255000Y-588000D02*
X3175000Y-508000D01*
X3175000Y-508000D02*
X2286000Y-508000D01*
X3758500Y-588000D02*
X3255000Y-588000D01*
X4174500Y-588000D02*
X4191000Y-571500D01*
X4012500Y-588000D02*
X4174500Y-588000D01*
X4543500Y-731500D02*
X4647500Y-731500D01*
X4507500Y-695500D02*
X4543500Y-731500D01*
X4507500Y-645000D02*
X4507500Y-695500D01*
X4434000Y-571500D02*
X4507500Y-645000D01*
X4330000Y-571500D02*
X4434000Y-571500D01*
X4711000Y-1599500D02*
X5016500Y-1905000D01*
X4711000Y-969000D02*
X4711000Y-1599500D01*
X4191000Y-571500D02*
X4330000Y-571500D01*
X1032500Y-524500D02*
X1079500Y-571500D01*
X1032500Y-190500D02*
X1032500Y-524500D01*
X6477000Y-3345000D02*
X6619000Y-3487000D01*
X6477000Y-3175000D02*
X6477000Y-3345000D01*
X5842000Y-2540000D02*
X5842000Y-254000D01*
X6477000Y-3175000D02*
X5842000Y-2540000D01*
X5524500Y-3346900D02*
X5524500Y-3175000D01*
X5664600Y-3487000D02*
X5524500Y-3346900D01*
X5524500Y-3071000D02*
X5524500Y-3175000D01*
X5635001Y-2960499D02*
X5524500Y-3071000D01*
X5635001Y-371152D02*
X5635001Y-2960499D01*
X5588000Y-324151D02*
X5635001Y-371152D01*
X5588000Y-254000D02*
X5588000Y-324151D01*
X4602500Y-3374900D02*
X4602500Y-3175000D01*
X4714600Y-3487000D02*
X4602500Y-3374900D01*
X4602500Y-2854700D02*
X4602500Y-3175000D01*
X5505000Y-1952200D02*
X4602500Y-2854700D01*
X5505000Y-425000D02*
X5505000Y-1952200D01*
X5334000Y-254000D02*
X5505000Y-425000D01*
X3746500Y-2857500D02*
X3746500Y-3175000D01*
X3810000Y-2794000D02*
X3746500Y-2857500D01*
X3746500Y-3468900D02*
X3764600Y-3487000D01*
X3746500Y-3175000D02*
X3746500Y-3468900D01*
X2114000Y-2978500D02*
X2114000Y-3169000D01*
X2368000Y-3105000D02*
X2304000Y-3169000D01*
X2368000Y-2978500D02*
X2368000Y-3105000D01*
D20*
X4261000Y-876500D02*
X4261000Y-969000D01*
X4132500Y-748000D02*
X4261000Y-876500D01*
X4012500Y-748000D02*
X4132500Y-748000D01*
D21*
X4411000Y-812500D02*
X4330000Y-731500D01*
X4411000Y-969000D02*
X4411000Y-812500D01*
X6016000Y-3440000D02*
X5969000Y-3487000D01*
X6016000Y-3175000D02*
X6016000Y-3440000D01*
X5014600Y-3270900D02*
X5110500Y-3175000D01*
X5014600Y-3487000D02*
X5014600Y-3270900D01*
X4064600Y-3284900D02*
X4174500Y-3175000D01*
X4064600Y-3487000D02*
X4064600Y-3284900D01*
X3332500Y-3269100D02*
X3114600Y-3487000D01*
X3332500Y-3175000D02*
X3332500Y-3269100D01*
X3205500Y-1112500D02*
X2857500Y-1460500D01*
X3205500Y-762000D02*
X3205500Y-1112500D01*
D24*
X4074400Y-5069600D02*
X4307600Y-5069600D01*
X4307600Y-5067600D01*
X4328400Y-5067600D01*
X4328400Y-5069600D01*
X4330400Y-5069600D01*
X4330400Y-5090400D01*
X4328400Y-5090400D01*
X4328400Y-5230551D01*
X4352019Y-5243548D01*
X4358266Y-5242227D01*
X4386168Y-5231547D01*
X4411450Y-5215629D01*
X4433141Y-5195084D01*
X4438726Y-5187198D01*
X4457349Y-5209891D01*
X4481920Y-5230055D01*
X4509952Y-5245039D01*
X4531252Y-5251500D01*
X3850748Y-5251500D01*
X3872049Y-5245039D01*
X3900080Y-5230055D01*
X3924651Y-5209891D01*
X3943274Y-5187198D01*
X3948859Y-5195084D01*
X3970550Y-5215629D01*
X3995832Y-5231547D01*
X4023734Y-5242227D01*
X4029981Y-5243548D01*
X4053600Y-5230551D01*
X4053600Y-5090400D01*
X4074400Y-5090400D01*
X4074400Y-5230551D01*
X4098019Y-5243548D01*
X4104266Y-5242227D01*
X4132168Y-5231547D01*
X4157450Y-5215629D01*
X4179141Y-5195084D01*
X4191000Y-5178339D01*
X4202859Y-5195084D01*
X4224550Y-5215629D01*
X4249832Y-5231547D01*
X4277734Y-5242227D01*
X4283981Y-5243548D01*
X4307600Y-5230551D01*
X4307600Y-5090400D01*
X4074400Y-5090400D01*
X4053600Y-5090400D01*
X4051600Y-5090400D01*
X4051600Y-5069600D01*
X4053600Y-5069600D01*
X4053600Y-5067600D01*
X4074400Y-5067600D01*
X4074400Y-5069600D01*
G04 #@! TA.AperFunction,Conductor*
D25*
G36*
X4074400Y-5069600D02*
G01*
X4307600Y-5069600D01*
X4307600Y-5067600D01*
X4328400Y-5067600D01*
X4328400Y-5069600D01*
X4330400Y-5069600D01*
X4330400Y-5090400D01*
X4328400Y-5090400D01*
X4328400Y-5230551D01*
X4352019Y-5243548D01*
X4358266Y-5242227D01*
X4386168Y-5231547D01*
X4411450Y-5215629D01*
X4433141Y-5195084D01*
X4438726Y-5187198D01*
X4457349Y-5209891D01*
X4481920Y-5230055D01*
X4509952Y-5245039D01*
X4531252Y-5251500D01*
X3850748Y-5251500D01*
X3872049Y-5245039D01*
X3900080Y-5230055D01*
X3924651Y-5209891D01*
X3943274Y-5187198D01*
X3948859Y-5195084D01*
X3970550Y-5215629D01*
X3995832Y-5231547D01*
X4023734Y-5242227D01*
X4029981Y-5243548D01*
X4053600Y-5230551D01*
X4053600Y-5090400D01*
X4074400Y-5090400D01*
X4074400Y-5230551D01*
X4098019Y-5243548D01*
X4104266Y-5242227D01*
X4132168Y-5231547D01*
X4157450Y-5215629D01*
X4179141Y-5195084D01*
X4191000Y-5178339D01*
X4202859Y-5195084D01*
X4224550Y-5215629D01*
X4249832Y-5231547D01*
X4277734Y-5242227D01*
X4283981Y-5243548D01*
X4307600Y-5230551D01*
X4307600Y-5090400D01*
X4074400Y-5090400D01*
X4053600Y-5090400D01*
X4051600Y-5090400D01*
X4051600Y-5069600D01*
X4053600Y-5069600D01*
X4053600Y-5067600D01*
X4074400Y-5067600D01*
X4074400Y-5069600D01*
G37*
G04 #@! TD.AperFunction*
D24*
X3709145Y-4936858D02*
X3703421Y-4941556D01*
X3698571Y-4947465D01*
X3695349Y-4950109D01*
X3683000Y-4965157D01*
X3670651Y-4950109D01*
X3646080Y-4929945D01*
X3618048Y-4914962D01*
X3587632Y-4905735D01*
X3556000Y-4902619D01*
X3524368Y-4905735D01*
X3493951Y-4914962D01*
X3465919Y-4929945D01*
X3441349Y-4950109D01*
X3429000Y-4965157D01*
X3416651Y-4950109D01*
X3392080Y-4929945D01*
X3364048Y-4914962D01*
X3333632Y-4905735D01*
X3302000Y-4902619D01*
X3270368Y-4905735D01*
X3239951Y-4914962D01*
X3211919Y-4929945D01*
X3187349Y-4950109D01*
X3175000Y-4965157D01*
X3162651Y-4950109D01*
X3138080Y-4929945D01*
X3110048Y-4914962D01*
X3079632Y-4905735D01*
X3048000Y-4902619D01*
X3016368Y-4905735D01*
X2985951Y-4914962D01*
X2957919Y-4929945D01*
X2933349Y-4950109D01*
X2921000Y-4965157D01*
X2908651Y-4950109D01*
X2884080Y-4929945D01*
X2856048Y-4914962D01*
X2825632Y-4905735D01*
X2794000Y-4902619D01*
X2762368Y-4905735D01*
X2731951Y-4914962D01*
X2703920Y-4929945D01*
X2679349Y-4950109D01*
X2659185Y-4974680D01*
X2644202Y-5002712D01*
X2634975Y-5033128D01*
X2632640Y-5056834D01*
X2632640Y-5103167D01*
X2634975Y-5126872D01*
X2644202Y-5157289D01*
X2659185Y-5185321D01*
X2679349Y-5209891D01*
X2703920Y-5230055D01*
X2731952Y-5245039D01*
X2753252Y-5251500D01*
X1584572Y-5251500D01*
X1621630Y-5230348D01*
X1646645Y-5183636D01*
X1662066Y-5132941D01*
X1667301Y-5080212D01*
X1662149Y-5027475D01*
X1646807Y-4976756D01*
X1621865Y-4930005D01*
X1621630Y-4929652D01*
X1583703Y-4908004D01*
X1411708Y-5080000D01*
X1413122Y-5081414D01*
X1398414Y-5096122D01*
X1397000Y-5094708D01*
X1395586Y-5096122D01*
X1380878Y-5081414D01*
X1382292Y-5080000D01*
X1210297Y-4908004D01*
X1172370Y-4929652D01*
X1158000Y-4956486D01*
X1158000Y-4893297D01*
X1225004Y-4893297D01*
X1397000Y-5065292D01*
X1568996Y-4893297D01*
X1547348Y-4855370D01*
X1500636Y-4830355D01*
X1449941Y-4814934D01*
X1397212Y-4809699D01*
X1344475Y-4814851D01*
X1293756Y-4830193D01*
X1247005Y-4855135D01*
X1246652Y-4855370D01*
X1225004Y-4893297D01*
X1158000Y-4893297D01*
X1158000Y-4777500D01*
X3868503Y-4777500D01*
X3709145Y-4936858D01*
G04 #@! TA.AperFunction,Conductor*
D25*
G36*
X3709145Y-4936858D02*
G01*
X3703421Y-4941556D01*
X3698571Y-4947465D01*
X3695349Y-4950109D01*
X3683000Y-4965157D01*
X3670651Y-4950109D01*
X3646080Y-4929945D01*
X3618048Y-4914962D01*
X3587632Y-4905735D01*
X3556000Y-4902619D01*
X3524368Y-4905735D01*
X3493951Y-4914962D01*
X3465919Y-4929945D01*
X3441349Y-4950109D01*
X3429000Y-4965157D01*
X3416651Y-4950109D01*
X3392080Y-4929945D01*
X3364048Y-4914962D01*
X3333632Y-4905735D01*
X3302000Y-4902619D01*
X3270368Y-4905735D01*
X3239951Y-4914962D01*
X3211919Y-4929945D01*
X3187349Y-4950109D01*
X3175000Y-4965157D01*
X3162651Y-4950109D01*
X3138080Y-4929945D01*
X3110048Y-4914962D01*
X3079632Y-4905735D01*
X3048000Y-4902619D01*
X3016368Y-4905735D01*
X2985951Y-4914962D01*
X2957919Y-4929945D01*
X2933349Y-4950109D01*
X2921000Y-4965157D01*
X2908651Y-4950109D01*
X2884080Y-4929945D01*
X2856048Y-4914962D01*
X2825632Y-4905735D01*
X2794000Y-4902619D01*
X2762368Y-4905735D01*
X2731951Y-4914962D01*
X2703920Y-4929945D01*
X2679349Y-4950109D01*
X2659185Y-4974680D01*
X2644202Y-5002712D01*
X2634975Y-5033128D01*
X2632640Y-5056834D01*
X2632640Y-5103167D01*
X2634975Y-5126872D01*
X2644202Y-5157289D01*
X2659185Y-5185321D01*
X2679349Y-5209891D01*
X2703920Y-5230055D01*
X2731952Y-5245039D01*
X2753252Y-5251500D01*
X1584572Y-5251500D01*
X1621630Y-5230348D01*
X1646645Y-5183636D01*
X1662066Y-5132941D01*
X1667301Y-5080212D01*
X1662149Y-5027475D01*
X1646807Y-4976756D01*
X1621865Y-4930005D01*
X1621630Y-4929652D01*
X1583703Y-4908004D01*
X1411708Y-5080000D01*
X1413122Y-5081414D01*
X1398414Y-5096122D01*
X1397000Y-5094708D01*
X1395586Y-5096122D01*
X1380878Y-5081414D01*
X1382292Y-5080000D01*
X1210297Y-4908004D01*
X1172370Y-4929652D01*
X1158000Y-4956486D01*
X1158000Y-4893297D01*
X1225004Y-4893297D01*
X1397000Y-5065292D01*
X1568996Y-4893297D01*
X1547348Y-4855370D01*
X1500636Y-4830355D01*
X1449941Y-4814934D01*
X1397212Y-4809699D01*
X1344475Y-4814851D01*
X1293756Y-4830193D01*
X1247005Y-4855135D01*
X1246652Y-4855370D01*
X1225004Y-4893297D01*
X1158000Y-4893297D01*
X1158000Y-4777500D01*
X3868503Y-4777500D01*
X3709145Y-4936858D01*
G37*
G04 #@! TD.AperFunction*
D24*
X6341637Y-3216414D02*
X6341637Y-3235000D01*
X6343085Y-3249703D01*
X6347374Y-3263840D01*
X6352000Y-3272495D01*
X6352000Y-3338860D01*
X6351395Y-3345000D01*
X6352000Y-3351140D01*
X6352000Y-3351140D01*
X6352198Y-3353146D01*
X6353809Y-3369504D01*
X6360956Y-3393067D01*
X6365167Y-3400944D01*
X6372563Y-3414782D01*
X6388184Y-3433816D01*
X6392954Y-3437730D01*
X6444000Y-3488777D01*
X6444000Y-3504236D01*
X6450725Y-3538046D01*
X6463917Y-3569894D01*
X6483069Y-3598556D01*
X6507444Y-3622931D01*
X6536106Y-3642083D01*
X6567954Y-3655275D01*
X6601764Y-3662000D01*
X6636236Y-3662000D01*
X6670046Y-3655275D01*
X6701894Y-3642083D01*
X6730556Y-3622931D01*
X6754931Y-3598556D01*
X6774083Y-3569894D01*
X6775500Y-3566473D01*
X6775500Y-3857527D01*
X6774083Y-3854106D01*
X6754931Y-3825444D01*
X6730556Y-3801069D01*
X6701894Y-3781917D01*
X6670046Y-3768725D01*
X6636236Y-3762000D01*
X6601764Y-3762000D01*
X6567954Y-3768725D01*
X6536106Y-3781917D01*
X6507444Y-3801069D01*
X6483069Y-3825444D01*
X6463917Y-3854106D01*
X6450725Y-3885954D01*
X6444000Y-3919764D01*
X6444000Y-3954236D01*
X6450725Y-3988046D01*
X6463917Y-4019894D01*
X6483069Y-4048556D01*
X6507444Y-4072931D01*
X6536106Y-4092083D01*
X6567954Y-4105275D01*
X6601764Y-4112000D01*
X6636236Y-4112000D01*
X6670046Y-4105275D01*
X6701894Y-4092083D01*
X6730556Y-4072931D01*
X6754931Y-4048556D01*
X6774083Y-4019894D01*
X6775500Y-4016473D01*
X6775500Y-4384428D01*
X6754348Y-4347370D01*
X6707636Y-4322355D01*
X6656941Y-4306934D01*
X6604212Y-4301699D01*
X6551475Y-4306851D01*
X6500756Y-4322193D01*
X6454005Y-4347135D01*
X6453652Y-4347370D01*
X6432004Y-4385297D01*
X6604000Y-4557292D01*
X6605414Y-4555878D01*
X6620122Y-4570586D01*
X6618708Y-4572000D01*
X6620122Y-4573414D01*
X6605414Y-4588122D01*
X6604000Y-4586708D01*
X6432004Y-4758703D01*
X6453652Y-4796630D01*
X6500364Y-4821645D01*
X6551059Y-4837066D01*
X6603788Y-4842302D01*
X6656525Y-4837149D01*
X6707244Y-4821807D01*
X6753995Y-4796865D01*
X6754348Y-4796630D01*
X6775500Y-4759572D01*
X6775500Y-4791827D01*
X6548529Y-5018798D01*
X6545382Y-5021382D01*
X6535072Y-5033944D01*
X6531425Y-5040767D01*
X6527411Y-5048276D01*
X6522694Y-5063827D01*
X6521101Y-5080000D01*
X6521500Y-5084052D01*
X6521500Y-5251500D01*
X6390748Y-5251500D01*
X6412049Y-5245039D01*
X6440080Y-5230055D01*
X6464651Y-5209891D01*
X6484815Y-5185321D01*
X6499798Y-5157289D01*
X6509025Y-5126872D01*
X6511360Y-5103167D01*
X6511360Y-5056833D01*
X6509025Y-5033128D01*
X6499798Y-5002711D01*
X6484815Y-4974680D01*
X6464651Y-4950109D01*
X6440080Y-4929945D01*
X6412048Y-4914962D01*
X6381632Y-4905735D01*
X6350000Y-4902619D01*
X6318368Y-4905735D01*
X6287951Y-4914962D01*
X6259919Y-4929945D01*
X6235349Y-4950109D01*
X6223000Y-4965157D01*
X6210651Y-4950109D01*
X6196025Y-4938107D01*
X6323855Y-4810277D01*
X6329579Y-4805579D01*
X6348324Y-4782739D01*
X6351146Y-4777458D01*
X6353647Y-4777212D01*
X6356461Y-4776358D01*
X6359055Y-4774972D01*
X6361328Y-4773107D01*
X6363193Y-4770834D01*
X6364579Y-4768240D01*
X6365433Y-4765426D01*
X6365721Y-4762500D01*
X6365721Y-4745246D01*
X6370829Y-4728405D01*
X6372657Y-4709853D01*
X6379135Y-4721995D01*
X6379370Y-4722348D01*
X6417297Y-4743996D01*
X6589292Y-4572000D01*
X6417297Y-4400004D01*
X6379370Y-4421652D01*
X6373000Y-4433548D01*
X6373000Y-3739132D01*
X6370829Y-3717095D01*
X6362252Y-3688820D01*
X6348324Y-3662761D01*
X6329579Y-3639921D01*
X6306739Y-3621176D01*
X6301000Y-3618109D01*
X6301000Y-3552540D01*
X6301605Y-3546400D01*
X6301000Y-3540260D01*
X6301000Y-3272495D01*
X6305626Y-3263840D01*
X6309915Y-3249703D01*
X6311363Y-3235000D01*
X6311363Y-3186139D01*
X6341637Y-3216414D01*
G04 #@! TA.AperFunction,Conductor*
D25*
G36*
X6341637Y-3216414D02*
G01*
X6341637Y-3235000D01*
X6343085Y-3249703D01*
X6347374Y-3263840D01*
X6352000Y-3272495D01*
X6352000Y-3338860D01*
X6351395Y-3345000D01*
X6352000Y-3351140D01*
X6352000Y-3351140D01*
X6352198Y-3353146D01*
X6353809Y-3369504D01*
X6360956Y-3393067D01*
X6365167Y-3400944D01*
X6372563Y-3414782D01*
X6388184Y-3433816D01*
X6392954Y-3437730D01*
X6444000Y-3488777D01*
X6444000Y-3504236D01*
X6450725Y-3538046D01*
X6463917Y-3569894D01*
X6483069Y-3598556D01*
X6507444Y-3622931D01*
X6536106Y-3642083D01*
X6567954Y-3655275D01*
X6601764Y-3662000D01*
X6636236Y-3662000D01*
X6670046Y-3655275D01*
X6701894Y-3642083D01*
X6730556Y-3622931D01*
X6754931Y-3598556D01*
X6774083Y-3569894D01*
X6775500Y-3566473D01*
X6775500Y-3857527D01*
X6774083Y-3854106D01*
X6754931Y-3825444D01*
X6730556Y-3801069D01*
X6701894Y-3781917D01*
X6670046Y-3768725D01*
X6636236Y-3762000D01*
X6601764Y-3762000D01*
X6567954Y-3768725D01*
X6536106Y-3781917D01*
X6507444Y-3801069D01*
X6483069Y-3825444D01*
X6463917Y-3854106D01*
X6450725Y-3885954D01*
X6444000Y-3919764D01*
X6444000Y-3954236D01*
X6450725Y-3988046D01*
X6463917Y-4019894D01*
X6483069Y-4048556D01*
X6507444Y-4072931D01*
X6536106Y-4092083D01*
X6567954Y-4105275D01*
X6601764Y-4112000D01*
X6636236Y-4112000D01*
X6670046Y-4105275D01*
X6701894Y-4092083D01*
X6730556Y-4072931D01*
X6754931Y-4048556D01*
X6774083Y-4019894D01*
X6775500Y-4016473D01*
X6775500Y-4384428D01*
X6754348Y-4347370D01*
X6707636Y-4322355D01*
X6656941Y-4306934D01*
X6604212Y-4301699D01*
X6551475Y-4306851D01*
X6500756Y-4322193D01*
X6454005Y-4347135D01*
X6453652Y-4347370D01*
X6432004Y-4385297D01*
X6604000Y-4557292D01*
X6605414Y-4555878D01*
X6620122Y-4570586D01*
X6618708Y-4572000D01*
X6620122Y-4573414D01*
X6605414Y-4588122D01*
X6604000Y-4586708D01*
X6432004Y-4758703D01*
X6453652Y-4796630D01*
X6500364Y-4821645D01*
X6551059Y-4837066D01*
X6603788Y-4842302D01*
X6656525Y-4837149D01*
X6707244Y-4821807D01*
X6753995Y-4796865D01*
X6754348Y-4796630D01*
X6775500Y-4759572D01*
X6775500Y-4791827D01*
X6548529Y-5018798D01*
X6545382Y-5021382D01*
X6535072Y-5033944D01*
X6531425Y-5040767D01*
X6527411Y-5048276D01*
X6522694Y-5063827D01*
X6521101Y-5080000D01*
X6521500Y-5084052D01*
X6521500Y-5251500D01*
X6390748Y-5251500D01*
X6412049Y-5245039D01*
X6440080Y-5230055D01*
X6464651Y-5209891D01*
X6484815Y-5185321D01*
X6499798Y-5157289D01*
X6509025Y-5126872D01*
X6511360Y-5103167D01*
X6511360Y-5056833D01*
X6509025Y-5033128D01*
X6499798Y-5002711D01*
X6484815Y-4974680D01*
X6464651Y-4950109D01*
X6440080Y-4929945D01*
X6412048Y-4914962D01*
X6381632Y-4905735D01*
X6350000Y-4902619D01*
X6318368Y-4905735D01*
X6287951Y-4914962D01*
X6259919Y-4929945D01*
X6235349Y-4950109D01*
X6223000Y-4965157D01*
X6210651Y-4950109D01*
X6196025Y-4938107D01*
X6323855Y-4810277D01*
X6329579Y-4805579D01*
X6348324Y-4782739D01*
X6351146Y-4777458D01*
X6353647Y-4777212D01*
X6356461Y-4776358D01*
X6359055Y-4774972D01*
X6361328Y-4773107D01*
X6363193Y-4770834D01*
X6364579Y-4768240D01*
X6365433Y-4765426D01*
X6365721Y-4762500D01*
X6365721Y-4745246D01*
X6370829Y-4728405D01*
X6372657Y-4709853D01*
X6379135Y-4721995D01*
X6379370Y-4722348D01*
X6417297Y-4743996D01*
X6589292Y-4572000D01*
X6417297Y-4400004D01*
X6379370Y-4421652D01*
X6373000Y-4433548D01*
X6373000Y-3739132D01*
X6370829Y-3717095D01*
X6362252Y-3688820D01*
X6348324Y-3662761D01*
X6329579Y-3639921D01*
X6306739Y-3621176D01*
X6301000Y-3618109D01*
X6301000Y-3552540D01*
X6301605Y-3546400D01*
X6301000Y-3540260D01*
X6301000Y-3272495D01*
X6305626Y-3263840D01*
X6309915Y-3249703D01*
X6311363Y-3235000D01*
X6311363Y-3186139D01*
X6341637Y-3216414D01*
G37*
G04 #@! TD.AperFunction*
D24*
X1299370Y-103652D02*
X1274355Y-150364D01*
X1258934Y-201059D01*
X1253699Y-253788D01*
X1258851Y-306525D01*
X1274193Y-357244D01*
X1299135Y-403995D01*
X1299370Y-404348D01*
X1337297Y-425996D01*
X1509292Y-254000D01*
X1507878Y-252586D01*
X1522586Y-237878D01*
X1524000Y-239292D01*
X1525414Y-237878D01*
X1540122Y-252586D01*
X1538708Y-254000D01*
X1540122Y-255414D01*
X1525414Y-270122D01*
X1524000Y-268708D01*
X1352004Y-440703D01*
X1373652Y-478630D01*
X1420364Y-503645D01*
X1471059Y-519066D01*
X1523788Y-524302D01*
X1576525Y-519149D01*
X1581496Y-517645D01*
X1579773Y-535141D01*
X1580499Y-542509D01*
X1580499Y-854490D01*
X1579773Y-861859D01*
X1582669Y-891264D01*
X1590838Y-918191D01*
X1591247Y-919539D01*
X1605175Y-945598D01*
X1623920Y-968438D01*
X1629643Y-973135D01*
X1820865Y-1164357D01*
X1825562Y-1170080D01*
X1848402Y-1188825D01*
X1874461Y-1202754D01*
X1902736Y-1211331D01*
X1924773Y-1213501D01*
X1924773Y-1213501D01*
X1932141Y-1214227D01*
X1939509Y-1213501D01*
X2002946Y-1213501D01*
X2094582Y-1305137D01*
X2015500Y-1305137D01*
X2000797Y-1306585D01*
X1986660Y-1310874D01*
X1973631Y-1317838D01*
X1962210Y-1327211D01*
X1952838Y-1338631D01*
X1945874Y-1351660D01*
X1941585Y-1365797D01*
X1940137Y-1380500D01*
X1940137Y-1439086D01*
X1757454Y-1621770D01*
X1752684Y-1625684D01*
X1737063Y-1644718D01*
X1732636Y-1653000D01*
X1725456Y-1666433D01*
X1718309Y-1689996D01*
X1715895Y-1714500D01*
X1716500Y-1720641D01*
X1716500Y-1906122D01*
X1708350Y-1906200D01*
X1691900Y-1922650D01*
X1691900Y-2021600D01*
X1693900Y-2021600D01*
X1693900Y-2042400D01*
X1691900Y-2042400D01*
X1691900Y-2141350D01*
X1708350Y-2157800D01*
X1741500Y-2158118D01*
X1745382Y-2157736D01*
X1752660Y-2161626D01*
X1766797Y-2165915D01*
X1781500Y-2167363D01*
X1800086Y-2167363D01*
X1933270Y-2300546D01*
X1937184Y-2305316D01*
X1956218Y-2320937D01*
X1964000Y-2325096D01*
X1964000Y-2360632D01*
X1963274Y-2368000D01*
X1964000Y-2375368D01*
X1966170Y-2397405D01*
X1974748Y-2425680D01*
X1988676Y-2451739D01*
X2007421Y-2474579D01*
X2013144Y-2479276D01*
X2111224Y-2577356D01*
X2115921Y-2583079D01*
X2138761Y-2601824D01*
X2164820Y-2615752D01*
X2191147Y-2623739D01*
X2193095Y-2624330D01*
X2222500Y-2627226D01*
X2229868Y-2626500D01*
X3303368Y-2626500D01*
X3328144Y-2651276D01*
X3328144Y-2651276D01*
X3342500Y-2665632D01*
X3342500Y-2928368D01*
X3344671Y-2950405D01*
X3353248Y-2978680D01*
X3367176Y-3004739D01*
X3367500Y-3005133D01*
X3367500Y-3039637D01*
X3272500Y-3039637D01*
X3257797Y-3041085D01*
X3243660Y-3045374D01*
X3230631Y-3052338D01*
X3219210Y-3061710D01*
X3209838Y-3073131D01*
X3202874Y-3086160D01*
X3198585Y-3100297D01*
X3197137Y-3115000D01*
X3197137Y-3227686D01*
X3112823Y-3312000D01*
X3097364Y-3312000D01*
X3063554Y-3318725D01*
X3031706Y-3331917D01*
X3003044Y-3351069D01*
X2978669Y-3375444D01*
X2959517Y-3404106D01*
X2946325Y-3435954D01*
X2939600Y-3469764D01*
X2939600Y-3504236D01*
X2946325Y-3538046D01*
X2959517Y-3569894D01*
X2978669Y-3598556D01*
X3003044Y-3622931D01*
X3031706Y-3642083D01*
X3063554Y-3655275D01*
X3097364Y-3662000D01*
X3131836Y-3662000D01*
X3165646Y-3655275D01*
X3197494Y-3642083D01*
X3226156Y-3622931D01*
X3250531Y-3598556D01*
X3269683Y-3569894D01*
X3282875Y-3538046D01*
X3289600Y-3504236D01*
X3289600Y-3488777D01*
X3367500Y-3410877D01*
X3367500Y-3475159D01*
X3366895Y-3481300D01*
X3369309Y-3505804D01*
X3376456Y-3529367D01*
X3377632Y-3531567D01*
X3388063Y-3551082D01*
X3403684Y-3570116D01*
X3408454Y-3574031D01*
X3585469Y-3751046D01*
X3589384Y-3755816D01*
X3608418Y-3771437D01*
X3628025Y-3781917D01*
X3630133Y-3783044D01*
X3653695Y-3790191D01*
X3656254Y-3790443D01*
X3667315Y-3791533D01*
X3653044Y-3801069D01*
X3628669Y-3825444D01*
X3609517Y-3854106D01*
X3596325Y-3885954D01*
X3589600Y-3919764D01*
X3589600Y-3954236D01*
X3596325Y-3988046D01*
X3609517Y-4019894D01*
X3628669Y-4048556D01*
X3629113Y-4049000D01*
X3250087Y-4049000D01*
X3250531Y-4048556D01*
X3269683Y-4019894D01*
X3282875Y-3988046D01*
X3289600Y-3954236D01*
X3289600Y-3919764D01*
X3282875Y-3885954D01*
X3269683Y-3854106D01*
X3250531Y-3825444D01*
X3226156Y-3801069D01*
X3197494Y-3781917D01*
X3165646Y-3768725D01*
X3131836Y-3762000D01*
X3097364Y-3762000D01*
X3063554Y-3768725D01*
X3031706Y-3781917D01*
X3003044Y-3801069D01*
X2978669Y-3825444D01*
X2959517Y-3854106D01*
X2946325Y-3885954D01*
X2939600Y-3919764D01*
X2939600Y-3954236D01*
X2946325Y-3988046D01*
X2959517Y-4019894D01*
X2978669Y-4048556D01*
X2979113Y-4049000D01*
X1539000Y-4049000D01*
X1539000Y-2898500D01*
X1958637Y-2898500D01*
X1958637Y-3058500D01*
X1960085Y-3073203D01*
X1964374Y-3087340D01*
X1971338Y-3100369D01*
X1980710Y-3111789D01*
X1989000Y-3118593D01*
X1989000Y-3156688D01*
X1989000Y-3156689D01*
X1989000Y-3181311D01*
X1990204Y-3187365D01*
X1990809Y-3193504D01*
X1992600Y-3199408D01*
X1993804Y-3205461D01*
X1996165Y-3211163D01*
X1997956Y-3217067D01*
X2000865Y-3222508D01*
X2003226Y-3228210D01*
X2006655Y-3233341D01*
X2009563Y-3238782D01*
X2013478Y-3243552D01*
X2016906Y-3248683D01*
X2021270Y-3253046D01*
X2025184Y-3257816D01*
X2029954Y-3261730D01*
X2034317Y-3266094D01*
X2039448Y-3269522D01*
X2044218Y-3273437D01*
X2049660Y-3276345D01*
X2054790Y-3279773D01*
X2060491Y-3282135D01*
X2065933Y-3285044D01*
X2071838Y-3286835D01*
X2077539Y-3289196D01*
X2083591Y-3290400D01*
X2089496Y-3292191D01*
X2095636Y-3292796D01*
X2101689Y-3294000D01*
X2107860Y-3294000D01*
X2114000Y-3294605D01*
X2120141Y-3294000D01*
X2126311Y-3294000D01*
X2132364Y-3292796D01*
X2138504Y-3292191D01*
X2144409Y-3290400D01*
X2150461Y-3289196D01*
X2156162Y-3286835D01*
X2162067Y-3285044D01*
X2167509Y-3282135D01*
X2173210Y-3279773D01*
X2178340Y-3276346D01*
X2183782Y-3273437D01*
X2188553Y-3269522D01*
X2193683Y-3266094D01*
X2198046Y-3261731D01*
X2202816Y-3257816D01*
X2206731Y-3253046D01*
X2209000Y-3250777D01*
X2211269Y-3253046D01*
X2215184Y-3257816D01*
X2219954Y-3261731D01*
X2224317Y-3266094D01*
X2229448Y-3269522D01*
X2234218Y-3273436D01*
X2239659Y-3276345D01*
X2244790Y-3279773D01*
X2250491Y-3282135D01*
X2255933Y-3285044D01*
X2261838Y-3286835D01*
X2267539Y-3289196D01*
X2273591Y-3290400D01*
X2279496Y-3292191D01*
X2285636Y-3292796D01*
X2291689Y-3294000D01*
X2297860Y-3294000D01*
X2304000Y-3294605D01*
X2310140Y-3294000D01*
X2316311Y-3294000D01*
X2322364Y-3292796D01*
X2328504Y-3292191D01*
X2334409Y-3290400D01*
X2340461Y-3289196D01*
X2346162Y-3286835D01*
X2352067Y-3285044D01*
X2357509Y-3282135D01*
X2363210Y-3279773D01*
X2368341Y-3276345D01*
X2373782Y-3273436D01*
X2378552Y-3269522D01*
X2383683Y-3266094D01*
X2452046Y-3197731D01*
X2456816Y-3193816D01*
X2472437Y-3174782D01*
X2484044Y-3153067D01*
X2491191Y-3129504D01*
X2493000Y-3111140D01*
X2493605Y-3105000D01*
X2493000Y-3098859D01*
X2493000Y-3070417D01*
X2495000Y-3067424D01*
X2501604Y-3077307D01*
X2523193Y-3098896D01*
X2548580Y-3115859D01*
X2576788Y-3127543D01*
X2606734Y-3133500D01*
X2637266Y-3133500D01*
X2667212Y-3127543D01*
X2695420Y-3115859D01*
X2720807Y-3098896D01*
X2742181Y-3077522D01*
X2791685Y-3077522D01*
X2798517Y-3102839D01*
X2824263Y-3115566D01*
X2851998Y-3123026D01*
X2880655Y-3124931D01*
X2909133Y-3121210D01*
X2936337Y-3112004D01*
X2953483Y-3102839D01*
X2960315Y-3077522D01*
X2876000Y-2993208D01*
X2791685Y-3077522D01*
X2742181Y-3077522D01*
X2742396Y-3077307D01*
X2755883Y-3057122D01*
X2776978Y-3062815D01*
X2861292Y-2978500D01*
X2890708Y-2978500D01*
X2975022Y-3062815D01*
X3000339Y-3055983D01*
X3013066Y-3030236D01*
X3020526Y-3002502D01*
X3022431Y-2973845D01*
X3018710Y-2945367D01*
X3009504Y-2918163D01*
X3000339Y-2901017D01*
X2975022Y-2894185D01*
X2890708Y-2978500D01*
X2861292Y-2978500D01*
X2776978Y-2894185D01*
X2755883Y-2899878D01*
X2742396Y-2879693D01*
X2742181Y-2879477D01*
X2791685Y-2879477D01*
X2876000Y-2963792D01*
X2960315Y-2879477D01*
X2953483Y-2854161D01*
X2927736Y-2841434D01*
X2900002Y-2833974D01*
X2871345Y-2832068D01*
X2842867Y-2835790D01*
X2815663Y-2844996D01*
X2798517Y-2854161D01*
X2791685Y-2879477D01*
X2742181Y-2879477D01*
X2720807Y-2858104D01*
X2695420Y-2841141D01*
X2667212Y-2829456D01*
X2637266Y-2823500D01*
X2606734Y-2823500D01*
X2576788Y-2829456D01*
X2548580Y-2841141D01*
X2523193Y-2858104D01*
X2501604Y-2879693D01*
X2495000Y-2889576D01*
X2488396Y-2879693D01*
X2466807Y-2858104D01*
X2441420Y-2841141D01*
X2413212Y-2829456D01*
X2383266Y-2823500D01*
X2352734Y-2823500D01*
X2322788Y-2829456D01*
X2294580Y-2841141D01*
X2269193Y-2858104D01*
X2261540Y-2865757D01*
X2256662Y-2856631D01*
X2247290Y-2845210D01*
X2235869Y-2835838D01*
X2222840Y-2828874D01*
X2208703Y-2824585D01*
X2194000Y-2823137D01*
X2034000Y-2823137D01*
X2019297Y-2824585D01*
X2005160Y-2828874D01*
X1992131Y-2835838D01*
X1980710Y-2845210D01*
X1971338Y-2856631D01*
X1964374Y-2869660D01*
X1960085Y-2883797D01*
X1958637Y-2898500D01*
X1539000Y-2898500D01*
X1539000Y-2092000D01*
X1555382Y-2092000D01*
X1556652Y-2104899D01*
X1560415Y-2117302D01*
X1566525Y-2128733D01*
X1574747Y-2138753D01*
X1584767Y-2146975D01*
X1596198Y-2153085D01*
X1608601Y-2156848D01*
X1621500Y-2158118D01*
X1654650Y-2157800D01*
X1671100Y-2141350D01*
X1671100Y-2042400D01*
X1572150Y-2042400D01*
X1555700Y-2058850D01*
X1555382Y-2092000D01*
X1539000Y-2092000D01*
X1539000Y-1972000D01*
X1555382Y-1972000D01*
X1555700Y-2005150D01*
X1572150Y-2021600D01*
X1671100Y-2021600D01*
X1671100Y-1922650D01*
X1654650Y-1906200D01*
X1621500Y-1905882D01*
X1608601Y-1907152D01*
X1596198Y-1910915D01*
X1584767Y-1917025D01*
X1574747Y-1925247D01*
X1566525Y-1935267D01*
X1560415Y-1946698D01*
X1556652Y-1959101D01*
X1555382Y-1972000D01*
X1539000Y-1972000D01*
X1539000Y-698500D01*
X1538712Y-695574D01*
X1537858Y-692760D01*
X1536472Y-690166D01*
X1534607Y-687893D01*
X1532334Y-686028D01*
X1529740Y-684642D01*
X1526926Y-683788D01*
X1524000Y-683500D01*
X1135132Y-683500D01*
X1149282Y-675937D01*
X1168316Y-660316D01*
X1183937Y-641282D01*
X1195544Y-619567D01*
X1202691Y-596004D01*
X1205105Y-571500D01*
X1202691Y-546996D01*
X1195544Y-523433D01*
X1183937Y-501718D01*
X1172230Y-487454D01*
X1157500Y-472723D01*
X1157500Y-287995D01*
X1162126Y-279340D01*
X1166415Y-265203D01*
X1167863Y-250500D01*
X1167863Y-130500D01*
X1166415Y-115797D01*
X1162126Y-101660D01*
X1155162Y-88631D01*
X1150131Y-82500D01*
X1336428Y-82500D01*
X1299370Y-103652D01*
G04 #@! TA.AperFunction,Conductor*
D25*
G36*
X1299370Y-103652D02*
G01*
X1274355Y-150364D01*
X1258934Y-201059D01*
X1253699Y-253788D01*
X1258851Y-306525D01*
X1274193Y-357244D01*
X1299135Y-403995D01*
X1299370Y-404348D01*
X1337297Y-425996D01*
X1509292Y-254000D01*
X1507878Y-252586D01*
X1522586Y-237878D01*
X1524000Y-239292D01*
X1525414Y-237878D01*
X1540122Y-252586D01*
X1538708Y-254000D01*
X1540122Y-255414D01*
X1525414Y-270122D01*
X1524000Y-268708D01*
X1352004Y-440703D01*
X1373652Y-478630D01*
X1420364Y-503645D01*
X1471059Y-519066D01*
X1523788Y-524302D01*
X1576525Y-519149D01*
X1581496Y-517645D01*
X1579773Y-535141D01*
X1580499Y-542509D01*
X1580499Y-854490D01*
X1579773Y-861859D01*
X1582669Y-891264D01*
X1590838Y-918191D01*
X1591247Y-919539D01*
X1605175Y-945598D01*
X1623920Y-968438D01*
X1629643Y-973135D01*
X1820865Y-1164357D01*
X1825562Y-1170080D01*
X1848402Y-1188825D01*
X1874461Y-1202754D01*
X1902736Y-1211331D01*
X1924773Y-1213501D01*
X1924773Y-1213501D01*
X1932141Y-1214227D01*
X1939509Y-1213501D01*
X2002946Y-1213501D01*
X2094582Y-1305137D01*
X2015500Y-1305137D01*
X2000797Y-1306585D01*
X1986660Y-1310874D01*
X1973631Y-1317838D01*
X1962210Y-1327211D01*
X1952838Y-1338631D01*
X1945874Y-1351660D01*
X1941585Y-1365797D01*
X1940137Y-1380500D01*
X1940137Y-1439086D01*
X1757454Y-1621770D01*
X1752684Y-1625684D01*
X1737063Y-1644718D01*
X1732636Y-1653000D01*
X1725456Y-1666433D01*
X1718309Y-1689996D01*
X1715895Y-1714500D01*
X1716500Y-1720641D01*
X1716500Y-1906122D01*
X1708350Y-1906200D01*
X1691900Y-1922650D01*
X1691900Y-2021600D01*
X1693900Y-2021600D01*
X1693900Y-2042400D01*
X1691900Y-2042400D01*
X1691900Y-2141350D01*
X1708350Y-2157800D01*
X1741500Y-2158118D01*
X1745382Y-2157736D01*
X1752660Y-2161626D01*
X1766797Y-2165915D01*
X1781500Y-2167363D01*
X1800086Y-2167363D01*
X1933270Y-2300546D01*
X1937184Y-2305316D01*
X1956218Y-2320937D01*
X1964000Y-2325096D01*
X1964000Y-2360632D01*
X1963274Y-2368000D01*
X1964000Y-2375368D01*
X1966170Y-2397405D01*
X1974748Y-2425680D01*
X1988676Y-2451739D01*
X2007421Y-2474579D01*
X2013144Y-2479276D01*
X2111224Y-2577356D01*
X2115921Y-2583079D01*
X2138761Y-2601824D01*
X2164820Y-2615752D01*
X2191147Y-2623739D01*
X2193095Y-2624330D01*
X2222500Y-2627226D01*
X2229868Y-2626500D01*
X3303368Y-2626500D01*
X3328144Y-2651276D01*
X3328144Y-2651276D01*
X3342500Y-2665632D01*
X3342500Y-2928368D01*
X3344671Y-2950405D01*
X3353248Y-2978680D01*
X3367176Y-3004739D01*
X3367500Y-3005133D01*
X3367500Y-3039637D01*
X3272500Y-3039637D01*
X3257797Y-3041085D01*
X3243660Y-3045374D01*
X3230631Y-3052338D01*
X3219210Y-3061710D01*
X3209838Y-3073131D01*
X3202874Y-3086160D01*
X3198585Y-3100297D01*
X3197137Y-3115000D01*
X3197137Y-3227686D01*
X3112823Y-3312000D01*
X3097364Y-3312000D01*
X3063554Y-3318725D01*
X3031706Y-3331917D01*
X3003044Y-3351069D01*
X2978669Y-3375444D01*
X2959517Y-3404106D01*
X2946325Y-3435954D01*
X2939600Y-3469764D01*
X2939600Y-3504236D01*
X2946325Y-3538046D01*
X2959517Y-3569894D01*
X2978669Y-3598556D01*
X3003044Y-3622931D01*
X3031706Y-3642083D01*
X3063554Y-3655275D01*
X3097364Y-3662000D01*
X3131836Y-3662000D01*
X3165646Y-3655275D01*
X3197494Y-3642083D01*
X3226156Y-3622931D01*
X3250531Y-3598556D01*
X3269683Y-3569894D01*
X3282875Y-3538046D01*
X3289600Y-3504236D01*
X3289600Y-3488777D01*
X3367500Y-3410877D01*
X3367500Y-3475159D01*
X3366895Y-3481300D01*
X3369309Y-3505804D01*
X3376456Y-3529367D01*
X3377632Y-3531567D01*
X3388063Y-3551082D01*
X3403684Y-3570116D01*
X3408454Y-3574031D01*
X3585469Y-3751046D01*
X3589384Y-3755816D01*
X3608418Y-3771437D01*
X3628025Y-3781917D01*
X3630133Y-3783044D01*
X3653695Y-3790191D01*
X3656254Y-3790443D01*
X3667315Y-3791533D01*
X3653044Y-3801069D01*
X3628669Y-3825444D01*
X3609517Y-3854106D01*
X3596325Y-3885954D01*
X3589600Y-3919764D01*
X3589600Y-3954236D01*
X3596325Y-3988046D01*
X3609517Y-4019894D01*
X3628669Y-4048556D01*
X3629113Y-4049000D01*
X3250087Y-4049000D01*
X3250531Y-4048556D01*
X3269683Y-4019894D01*
X3282875Y-3988046D01*
X3289600Y-3954236D01*
X3289600Y-3919764D01*
X3282875Y-3885954D01*
X3269683Y-3854106D01*
X3250531Y-3825444D01*
X3226156Y-3801069D01*
X3197494Y-3781917D01*
X3165646Y-3768725D01*
X3131836Y-3762000D01*
X3097364Y-3762000D01*
X3063554Y-3768725D01*
X3031706Y-3781917D01*
X3003044Y-3801069D01*
X2978669Y-3825444D01*
X2959517Y-3854106D01*
X2946325Y-3885954D01*
X2939600Y-3919764D01*
X2939600Y-3954236D01*
X2946325Y-3988046D01*
X2959517Y-4019894D01*
X2978669Y-4048556D01*
X2979113Y-4049000D01*
X1539000Y-4049000D01*
X1539000Y-2898500D01*
X1958637Y-2898500D01*
X1958637Y-3058500D01*
X1960085Y-3073203D01*
X1964374Y-3087340D01*
X1971338Y-3100369D01*
X1980710Y-3111789D01*
X1989000Y-3118593D01*
X1989000Y-3156688D01*
X1989000Y-3156689D01*
X1989000Y-3181311D01*
X1990204Y-3187365D01*
X1990809Y-3193504D01*
X1992600Y-3199408D01*
X1993804Y-3205461D01*
X1996165Y-3211163D01*
X1997956Y-3217067D01*
X2000865Y-3222508D01*
X2003226Y-3228210D01*
X2006655Y-3233341D01*
X2009563Y-3238782D01*
X2013478Y-3243552D01*
X2016906Y-3248683D01*
X2021270Y-3253046D01*
X2025184Y-3257816D01*
X2029954Y-3261730D01*
X2034317Y-3266094D01*
X2039448Y-3269522D01*
X2044218Y-3273437D01*
X2049660Y-3276345D01*
X2054790Y-3279773D01*
X2060491Y-3282135D01*
X2065933Y-3285044D01*
X2071838Y-3286835D01*
X2077539Y-3289196D01*
X2083591Y-3290400D01*
X2089496Y-3292191D01*
X2095636Y-3292796D01*
X2101689Y-3294000D01*
X2107860Y-3294000D01*
X2114000Y-3294605D01*
X2120141Y-3294000D01*
X2126311Y-3294000D01*
X2132364Y-3292796D01*
X2138504Y-3292191D01*
X2144409Y-3290400D01*
X2150461Y-3289196D01*
X2156162Y-3286835D01*
X2162067Y-3285044D01*
X2167509Y-3282135D01*
X2173210Y-3279773D01*
X2178340Y-3276346D01*
X2183782Y-3273437D01*
X2188553Y-3269522D01*
X2193683Y-3266094D01*
X2198046Y-3261731D01*
X2202816Y-3257816D01*
X2206731Y-3253046D01*
X2209000Y-3250777D01*
X2211269Y-3253046D01*
X2215184Y-3257816D01*
X2219954Y-3261731D01*
X2224317Y-3266094D01*
X2229448Y-3269522D01*
X2234218Y-3273436D01*
X2239659Y-3276345D01*
X2244790Y-3279773D01*
X2250491Y-3282135D01*
X2255933Y-3285044D01*
X2261838Y-3286835D01*
X2267539Y-3289196D01*
X2273591Y-3290400D01*
X2279496Y-3292191D01*
X2285636Y-3292796D01*
X2291689Y-3294000D01*
X2297860Y-3294000D01*
X2304000Y-3294605D01*
X2310140Y-3294000D01*
X2316311Y-3294000D01*
X2322364Y-3292796D01*
X2328504Y-3292191D01*
X2334409Y-3290400D01*
X2340461Y-3289196D01*
X2346162Y-3286835D01*
X2352067Y-3285044D01*
X2357509Y-3282135D01*
X2363210Y-3279773D01*
X2368341Y-3276345D01*
X2373782Y-3273436D01*
X2378552Y-3269522D01*
X2383683Y-3266094D01*
X2452046Y-3197731D01*
X2456816Y-3193816D01*
X2472437Y-3174782D01*
X2484044Y-3153067D01*
X2491191Y-3129504D01*
X2493000Y-3111140D01*
X2493605Y-3105000D01*
X2493000Y-3098859D01*
X2493000Y-3070417D01*
X2495000Y-3067424D01*
X2501604Y-3077307D01*
X2523193Y-3098896D01*
X2548580Y-3115859D01*
X2576788Y-3127543D01*
X2606734Y-3133500D01*
X2637266Y-3133500D01*
X2667212Y-3127543D01*
X2695420Y-3115859D01*
X2720807Y-3098896D01*
X2742181Y-3077522D01*
X2791685Y-3077522D01*
X2798517Y-3102839D01*
X2824263Y-3115566D01*
X2851998Y-3123026D01*
X2880655Y-3124931D01*
X2909133Y-3121210D01*
X2936337Y-3112004D01*
X2953483Y-3102839D01*
X2960315Y-3077522D01*
X2876000Y-2993208D01*
X2791685Y-3077522D01*
X2742181Y-3077522D01*
X2742396Y-3077307D01*
X2755883Y-3057122D01*
X2776978Y-3062815D01*
X2861292Y-2978500D01*
X2890708Y-2978500D01*
X2975022Y-3062815D01*
X3000339Y-3055983D01*
X3013066Y-3030236D01*
X3020526Y-3002502D01*
X3022431Y-2973845D01*
X3018710Y-2945367D01*
X3009504Y-2918163D01*
X3000339Y-2901017D01*
X2975022Y-2894185D01*
X2890708Y-2978500D01*
X2861292Y-2978500D01*
X2776978Y-2894185D01*
X2755883Y-2899878D01*
X2742396Y-2879693D01*
X2742181Y-2879477D01*
X2791685Y-2879477D01*
X2876000Y-2963792D01*
X2960315Y-2879477D01*
X2953483Y-2854161D01*
X2927736Y-2841434D01*
X2900002Y-2833974D01*
X2871345Y-2832068D01*
X2842867Y-2835790D01*
X2815663Y-2844996D01*
X2798517Y-2854161D01*
X2791685Y-2879477D01*
X2742181Y-2879477D01*
X2720807Y-2858104D01*
X2695420Y-2841141D01*
X2667212Y-2829456D01*
X2637266Y-2823500D01*
X2606734Y-2823500D01*
X2576788Y-2829456D01*
X2548580Y-2841141D01*
X2523193Y-2858104D01*
X2501604Y-2879693D01*
X2495000Y-2889576D01*
X2488396Y-2879693D01*
X2466807Y-2858104D01*
X2441420Y-2841141D01*
X2413212Y-2829456D01*
X2383266Y-2823500D01*
X2352734Y-2823500D01*
X2322788Y-2829456D01*
X2294580Y-2841141D01*
X2269193Y-2858104D01*
X2261540Y-2865757D01*
X2256662Y-2856631D01*
X2247290Y-2845210D01*
X2235869Y-2835838D01*
X2222840Y-2828874D01*
X2208703Y-2824585D01*
X2194000Y-2823137D01*
X2034000Y-2823137D01*
X2019297Y-2824585D01*
X2005160Y-2828874D01*
X1992131Y-2835838D01*
X1980710Y-2845210D01*
X1971338Y-2856631D01*
X1964374Y-2869660D01*
X1960085Y-2883797D01*
X1958637Y-2898500D01*
X1539000Y-2898500D01*
X1539000Y-2092000D01*
X1555382Y-2092000D01*
X1556652Y-2104899D01*
X1560415Y-2117302D01*
X1566525Y-2128733D01*
X1574747Y-2138753D01*
X1584767Y-2146975D01*
X1596198Y-2153085D01*
X1608601Y-2156848D01*
X1621500Y-2158118D01*
X1654650Y-2157800D01*
X1671100Y-2141350D01*
X1671100Y-2042400D01*
X1572150Y-2042400D01*
X1555700Y-2058850D01*
X1555382Y-2092000D01*
X1539000Y-2092000D01*
X1539000Y-1972000D01*
X1555382Y-1972000D01*
X1555700Y-2005150D01*
X1572150Y-2021600D01*
X1671100Y-2021600D01*
X1671100Y-1922650D01*
X1654650Y-1906200D01*
X1621500Y-1905882D01*
X1608601Y-1907152D01*
X1596198Y-1910915D01*
X1584767Y-1917025D01*
X1574747Y-1925247D01*
X1566525Y-1935267D01*
X1560415Y-1946698D01*
X1556652Y-1959101D01*
X1555382Y-1972000D01*
X1539000Y-1972000D01*
X1539000Y-698500D01*
X1538712Y-695574D01*
X1537858Y-692760D01*
X1536472Y-690166D01*
X1534607Y-687893D01*
X1532334Y-686028D01*
X1529740Y-684642D01*
X1526926Y-683788D01*
X1524000Y-683500D01*
X1135132Y-683500D01*
X1149282Y-675937D01*
X1168316Y-660316D01*
X1183937Y-641282D01*
X1195544Y-619567D01*
X1202691Y-596004D01*
X1205105Y-571500D01*
X1202691Y-546996D01*
X1195544Y-523433D01*
X1183937Y-501718D01*
X1172230Y-487454D01*
X1157500Y-472723D01*
X1157500Y-287995D01*
X1162126Y-279340D01*
X1166415Y-265203D01*
X1167863Y-250500D01*
X1167863Y-130500D01*
X1166415Y-115797D01*
X1162126Y-101660D01*
X1155162Y-88631D01*
X1150131Y-82500D01*
X1336428Y-82500D01*
X1299370Y-103652D01*
G37*
G04 #@! TD.AperFunction*
D24*
X6521500Y-191992D02*
X6521500Y-1291349D01*
X6521101Y-1295400D01*
X6521500Y-1299451D01*
X6521500Y-1299452D01*
X6522060Y-1305137D01*
X6522682Y-1311457D01*
X6522694Y-1311573D01*
X6526221Y-1323200D01*
X6526221Y-1333500D01*
X6526509Y-1336426D01*
X6527363Y-1339240D01*
X6528749Y-1341834D01*
X6530614Y-1344107D01*
X6723195Y-1536687D01*
X6707636Y-1528355D01*
X6656941Y-1512934D01*
X6604212Y-1507698D01*
X6551475Y-1512851D01*
X6500756Y-1528193D01*
X6454005Y-1553135D01*
X6453652Y-1553370D01*
X6432004Y-1591297D01*
X6604000Y-1763292D01*
X6605414Y-1761878D01*
X6620122Y-1776586D01*
X6618708Y-1778000D01*
X6620122Y-1779414D01*
X6605414Y-1794122D01*
X6604000Y-1792708D01*
X6432004Y-1964703D01*
X6453652Y-2002630D01*
X6500364Y-2027645D01*
X6551059Y-2043066D01*
X6603788Y-2048301D01*
X6656525Y-2043149D01*
X6707244Y-2027807D01*
X6753995Y-2002865D01*
X6754348Y-2002630D01*
X6775500Y-1965571D01*
X6775500Y-3407527D01*
X6774083Y-3404106D01*
X6754931Y-3375444D01*
X6730556Y-3351069D01*
X6701894Y-3331917D01*
X6670046Y-3318725D01*
X6636236Y-3312000D01*
X6620777Y-3312000D01*
X6609582Y-3300805D01*
X6610150Y-3300800D01*
X6626600Y-3284350D01*
X6626600Y-3185400D01*
X6647400Y-3185400D01*
X6647400Y-3284350D01*
X6663850Y-3300800D01*
X6697000Y-3301118D01*
X6709899Y-3299848D01*
X6722302Y-3296085D01*
X6733733Y-3289975D01*
X6743753Y-3281753D01*
X6751975Y-3271733D01*
X6758085Y-3260302D01*
X6761848Y-3247899D01*
X6763118Y-3235000D01*
X6762800Y-3201850D01*
X6746350Y-3185400D01*
X6647400Y-3185400D01*
X6626600Y-3185400D01*
X6624600Y-3185400D01*
X6624600Y-3164600D01*
X6626600Y-3164600D01*
X6626600Y-3065650D01*
X6647400Y-3065650D01*
X6647400Y-3164600D01*
X6746350Y-3164600D01*
X6762800Y-3148150D01*
X6763118Y-3115000D01*
X6761848Y-3102101D01*
X6758085Y-3089698D01*
X6751975Y-3078267D01*
X6743753Y-3068247D01*
X6733733Y-3060025D01*
X6722302Y-3053915D01*
X6709899Y-3050152D01*
X6697000Y-3048882D01*
X6663850Y-3049200D01*
X6647400Y-3065650D01*
X6626600Y-3065650D01*
X6610150Y-3049200D01*
X6577000Y-3048882D01*
X6573118Y-3049264D01*
X6565840Y-3045374D01*
X6551703Y-3041085D01*
X6537000Y-3039637D01*
X6518414Y-3039637D01*
X5967000Y-2488223D01*
X5967000Y-1777788D01*
X6333698Y-1777788D01*
X6338851Y-1830525D01*
X6354193Y-1881244D01*
X6379135Y-1927995D01*
X6379370Y-1928348D01*
X6417297Y-1949996D01*
X6589292Y-1778000D01*
X6417297Y-1606004D01*
X6379370Y-1627652D01*
X6354355Y-1674364D01*
X6338934Y-1725059D01*
X6333698Y-1777788D01*
X5967000Y-1777788D01*
X5967000Y-371280D01*
X5969000Y-368843D01*
X5981349Y-383891D01*
X6005920Y-404055D01*
X6033951Y-419038D01*
X6064368Y-428265D01*
X6096000Y-431381D01*
X6127632Y-428265D01*
X6158049Y-419038D01*
X6186080Y-404055D01*
X6210651Y-383891D01*
X6223000Y-368843D01*
X6235349Y-383891D01*
X6259920Y-404055D01*
X6287951Y-419038D01*
X6318368Y-428265D01*
X6350000Y-431381D01*
X6381632Y-428265D01*
X6412049Y-419038D01*
X6440080Y-404055D01*
X6464651Y-383891D01*
X6484815Y-359320D01*
X6499798Y-331289D01*
X6509025Y-300872D01*
X6511360Y-277167D01*
X6511360Y-230833D01*
X6509025Y-207128D01*
X6499798Y-176711D01*
X6492426Y-162918D01*
X6521500Y-191992D01*
G04 #@! TA.AperFunction,Conductor*
D25*
G36*
X6521500Y-191992D02*
G01*
X6521500Y-1291349D01*
X6521101Y-1295400D01*
X6521500Y-1299451D01*
X6521500Y-1299452D01*
X6522060Y-1305137D01*
X6522682Y-1311457D01*
X6522694Y-1311573D01*
X6526221Y-1323200D01*
X6526221Y-1333500D01*
X6526509Y-1336426D01*
X6527363Y-1339240D01*
X6528749Y-1341834D01*
X6530614Y-1344107D01*
X6723195Y-1536687D01*
X6707636Y-1528355D01*
X6656941Y-1512934D01*
X6604212Y-1507698D01*
X6551475Y-1512851D01*
X6500756Y-1528193D01*
X6454005Y-1553135D01*
X6453652Y-1553370D01*
X6432004Y-1591297D01*
X6604000Y-1763292D01*
X6605414Y-1761878D01*
X6620122Y-1776586D01*
X6618708Y-1778000D01*
X6620122Y-1779414D01*
X6605414Y-1794122D01*
X6604000Y-1792708D01*
X6432004Y-1964703D01*
X6453652Y-2002630D01*
X6500364Y-2027645D01*
X6551059Y-2043066D01*
X6603788Y-2048301D01*
X6656525Y-2043149D01*
X6707244Y-2027807D01*
X6753995Y-2002865D01*
X6754348Y-2002630D01*
X6775500Y-1965571D01*
X6775500Y-3407527D01*
X6774083Y-3404106D01*
X6754931Y-3375444D01*
X6730556Y-3351069D01*
X6701894Y-3331917D01*
X6670046Y-3318725D01*
X6636236Y-3312000D01*
X6620777Y-3312000D01*
X6609582Y-3300805D01*
X6610150Y-3300800D01*
X6626600Y-3284350D01*
X6626600Y-3185400D01*
X6647400Y-3185400D01*
X6647400Y-3284350D01*
X6663850Y-3300800D01*
X6697000Y-3301118D01*
X6709899Y-3299848D01*
X6722302Y-3296085D01*
X6733733Y-3289975D01*
X6743753Y-3281753D01*
X6751975Y-3271733D01*
X6758085Y-3260302D01*
X6761848Y-3247899D01*
X6763118Y-3235000D01*
X6762800Y-3201850D01*
X6746350Y-3185400D01*
X6647400Y-3185400D01*
X6626600Y-3185400D01*
X6624600Y-3185400D01*
X6624600Y-3164600D01*
X6626600Y-3164600D01*
X6626600Y-3065650D01*
X6647400Y-3065650D01*
X6647400Y-3164600D01*
X6746350Y-3164600D01*
X6762800Y-3148150D01*
X6763118Y-3115000D01*
X6761848Y-3102101D01*
X6758085Y-3089698D01*
X6751975Y-3078267D01*
X6743753Y-3068247D01*
X6733733Y-3060025D01*
X6722302Y-3053915D01*
X6709899Y-3050152D01*
X6697000Y-3048882D01*
X6663850Y-3049200D01*
X6647400Y-3065650D01*
X6626600Y-3065650D01*
X6610150Y-3049200D01*
X6577000Y-3048882D01*
X6573118Y-3049264D01*
X6565840Y-3045374D01*
X6551703Y-3041085D01*
X6537000Y-3039637D01*
X6518414Y-3039637D01*
X5967000Y-2488223D01*
X5967000Y-1777788D01*
X6333698Y-1777788D01*
X6338851Y-1830525D01*
X6354193Y-1881244D01*
X6379135Y-1927995D01*
X6379370Y-1928348D01*
X6417297Y-1949996D01*
X6589292Y-1778000D01*
X6417297Y-1606004D01*
X6379370Y-1627652D01*
X6354355Y-1674364D01*
X6338934Y-1725059D01*
X6333698Y-1777788D01*
X5967000Y-1777788D01*
X5967000Y-371280D01*
X5969000Y-368843D01*
X5981349Y-383891D01*
X6005920Y-404055D01*
X6033951Y-419038D01*
X6064368Y-428265D01*
X6096000Y-431381D01*
X6127632Y-428265D01*
X6158049Y-419038D01*
X6186080Y-404055D01*
X6210651Y-383891D01*
X6223000Y-368843D01*
X6235349Y-383891D01*
X6259920Y-404055D01*
X6287951Y-419038D01*
X6318368Y-428265D01*
X6350000Y-431381D01*
X6381632Y-428265D01*
X6412049Y-419038D01*
X6440080Y-404055D01*
X6464651Y-383891D01*
X6484815Y-359320D01*
X6499798Y-331289D01*
X6509025Y-300872D01*
X6511360Y-277167D01*
X6511360Y-230833D01*
X6509025Y-207128D01*
X6499798Y-176711D01*
X6492426Y-162918D01*
X6521500Y-191992D01*
G37*
G04 #@! TD.AperFunction*
D24*
X6164860Y-3039637D02*
X6116000Y-3039637D01*
X6101297Y-3041085D01*
X6096000Y-3042692D01*
X6090703Y-3041085D01*
X6076000Y-3039637D01*
X5956000Y-3039637D01*
X5941297Y-3041085D01*
X5927160Y-3045374D01*
X5914131Y-3052338D01*
X5902710Y-3061710D01*
X5893338Y-3073131D01*
X5886374Y-3086160D01*
X5882085Y-3100297D01*
X5880637Y-3115000D01*
X5880637Y-3235000D01*
X5882085Y-3249703D01*
X5886374Y-3263840D01*
X5891000Y-3272495D01*
X5891000Y-3329890D01*
X5886106Y-3331917D01*
X5857444Y-3351069D01*
X5833069Y-3375444D01*
X5816800Y-3399792D01*
X5800531Y-3375444D01*
X5776156Y-3351069D01*
X5747494Y-3331917D01*
X5715646Y-3318725D01*
X5681836Y-3312000D01*
X5666377Y-3312000D01*
X5655200Y-3300823D01*
X5657650Y-3300800D01*
X5674100Y-3284350D01*
X5674100Y-3185400D01*
X5694900Y-3185400D01*
X5694900Y-3284350D01*
X5711350Y-3300800D01*
X5744500Y-3301118D01*
X5757399Y-3299848D01*
X5769802Y-3296085D01*
X5781233Y-3289975D01*
X5791253Y-3281753D01*
X5799475Y-3271733D01*
X5805585Y-3260302D01*
X5809348Y-3247899D01*
X5810618Y-3235000D01*
X5810300Y-3201850D01*
X5793850Y-3185400D01*
X5694900Y-3185400D01*
X5674100Y-3185400D01*
X5672100Y-3185400D01*
X5672100Y-3164600D01*
X5674100Y-3164600D01*
X5674100Y-3162600D01*
X5694900Y-3162600D01*
X5694900Y-3164600D01*
X5793850Y-3164600D01*
X5810300Y-3148150D01*
X5810618Y-3115000D01*
X5809348Y-3102101D01*
X5805585Y-3089698D01*
X5799475Y-3078267D01*
X5791253Y-3068247D01*
X5781233Y-3060025D01*
X5769802Y-3053915D01*
X5757399Y-3050152D01*
X5744500Y-3048882D01*
X5724011Y-3049078D01*
X5739438Y-3030281D01*
X5751045Y-3008566D01*
X5758192Y-2985003D01*
X5758745Y-2979395D01*
X5760606Y-2960499D01*
X5760001Y-2954358D01*
X5760001Y-2634778D01*
X6164860Y-3039637D01*
G04 #@! TA.AperFunction,Conductor*
D25*
G36*
X6164860Y-3039637D02*
G01*
X6116000Y-3039637D01*
X6101297Y-3041085D01*
X6096000Y-3042692D01*
X6090703Y-3041085D01*
X6076000Y-3039637D01*
X5956000Y-3039637D01*
X5941297Y-3041085D01*
X5927160Y-3045374D01*
X5914131Y-3052338D01*
X5902710Y-3061710D01*
X5893338Y-3073131D01*
X5886374Y-3086160D01*
X5882085Y-3100297D01*
X5880637Y-3115000D01*
X5880637Y-3235000D01*
X5882085Y-3249703D01*
X5886374Y-3263840D01*
X5891000Y-3272495D01*
X5891000Y-3329890D01*
X5886106Y-3331917D01*
X5857444Y-3351069D01*
X5833069Y-3375444D01*
X5816800Y-3399792D01*
X5800531Y-3375444D01*
X5776156Y-3351069D01*
X5747494Y-3331917D01*
X5715646Y-3318725D01*
X5681836Y-3312000D01*
X5666377Y-3312000D01*
X5655200Y-3300823D01*
X5657650Y-3300800D01*
X5674100Y-3284350D01*
X5674100Y-3185400D01*
X5694900Y-3185400D01*
X5694900Y-3284350D01*
X5711350Y-3300800D01*
X5744500Y-3301118D01*
X5757399Y-3299848D01*
X5769802Y-3296085D01*
X5781233Y-3289975D01*
X5791253Y-3281753D01*
X5799475Y-3271733D01*
X5805585Y-3260302D01*
X5809348Y-3247899D01*
X5810618Y-3235000D01*
X5810300Y-3201850D01*
X5793850Y-3185400D01*
X5694900Y-3185400D01*
X5674100Y-3185400D01*
X5672100Y-3185400D01*
X5672100Y-3164600D01*
X5674100Y-3164600D01*
X5674100Y-3162600D01*
X5694900Y-3162600D01*
X5694900Y-3164600D01*
X5793850Y-3164600D01*
X5810300Y-3148150D01*
X5810618Y-3115000D01*
X5809348Y-3102101D01*
X5805585Y-3089698D01*
X5799475Y-3078267D01*
X5791253Y-3068247D01*
X5781233Y-3060025D01*
X5769802Y-3053915D01*
X5757399Y-3050152D01*
X5744500Y-3048882D01*
X5724011Y-3049078D01*
X5739438Y-3030281D01*
X5751045Y-3008566D01*
X5758192Y-2985003D01*
X5758745Y-2979395D01*
X5760606Y-2960499D01*
X5760001Y-2954358D01*
X5760001Y-2634778D01*
X6164860Y-3039637D01*
G37*
G04 #@! TD.AperFunction*
D24*
X3623137Y-808000D02*
X3624585Y-822703D01*
X3628874Y-836840D01*
X3635838Y-849869D01*
X3645210Y-861289D01*
X3656631Y-870662D01*
X3669660Y-877626D01*
X3683797Y-881915D01*
X3698500Y-883363D01*
X3717086Y-883363D01*
X3886770Y-1053046D01*
X3890684Y-1057816D01*
X3909718Y-1073437D01*
X3931433Y-1085044D01*
X3954996Y-1092191D01*
X3973359Y-1094000D01*
X3973360Y-1094000D01*
X3979500Y-1094605D01*
X3985640Y-1094000D01*
X4029719Y-1094000D01*
X4041218Y-1103437D01*
X4062933Y-1115044D01*
X4086496Y-1122191D01*
X4111000Y-1124605D01*
X4135504Y-1122191D01*
X4159067Y-1115044D01*
X4180782Y-1103437D01*
X4186000Y-1099155D01*
X4191218Y-1103437D01*
X4212933Y-1115044D01*
X4236496Y-1122191D01*
X4261000Y-1124605D01*
X4285504Y-1122191D01*
X4309067Y-1115044D01*
X4330782Y-1103437D01*
X4336000Y-1099155D01*
X4341218Y-1103437D01*
X4362933Y-1115044D01*
X4386496Y-1122191D01*
X4411000Y-1124605D01*
X4435504Y-1122191D01*
X4459067Y-1115044D01*
X4480782Y-1103437D01*
X4493485Y-1093012D01*
X4505312Y-1101062D01*
X4526294Y-1109965D01*
X4532686Y-1111285D01*
X4550600Y-1097804D01*
X4550600Y-979400D01*
X4548600Y-979400D01*
X4548600Y-958600D01*
X4550600Y-958600D01*
X4550600Y-956600D01*
X4571400Y-956600D01*
X4571400Y-958600D01*
X4573400Y-958600D01*
X4573400Y-979400D01*
X4571400Y-979400D01*
X4571400Y-1097804D01*
X4586000Y-1108791D01*
X4586000Y-1593359D01*
X4585395Y-1599500D01*
X4587809Y-1624004D01*
X4594956Y-1647567D01*
X4594956Y-1647567D01*
X4606564Y-1669282D01*
X4622184Y-1688316D01*
X4626954Y-1692230D01*
X4932454Y-1997730D01*
X4946718Y-2009436D01*
X4968433Y-2021044D01*
X4991996Y-2028191D01*
X5016500Y-2030605D01*
X5041004Y-2028191D01*
X5064567Y-2021044D01*
X5086282Y-2009436D01*
X5105316Y-1993816D01*
X5120937Y-1974782D01*
X5132544Y-1953067D01*
X5139691Y-1929504D01*
X5142105Y-1905000D01*
X5139691Y-1880496D01*
X5132544Y-1856933D01*
X5120937Y-1835218D01*
X5109230Y-1820954D01*
X4836000Y-1547723D01*
X4836000Y-1122041D01*
X4836496Y-1122191D01*
X4861000Y-1124605D01*
X4885504Y-1122191D01*
X4909067Y-1115044D01*
X4930782Y-1103437D01*
X4936000Y-1099155D01*
X4941218Y-1103437D01*
X4962933Y-1115044D01*
X4986496Y-1122191D01*
X5011000Y-1124605D01*
X5035504Y-1122191D01*
X5059067Y-1115044D01*
X5080782Y-1103437D01*
X5086000Y-1099155D01*
X5091218Y-1103437D01*
X5112933Y-1115044D01*
X5136496Y-1122191D01*
X5161000Y-1124605D01*
X5185504Y-1122191D01*
X5209067Y-1115044D01*
X5217657Y-1110452D01*
X5219131Y-1111662D01*
X5232160Y-1118626D01*
X5246297Y-1122915D01*
X5261000Y-1124363D01*
X5361000Y-1124363D01*
X5375703Y-1122915D01*
X5380000Y-1121611D01*
X5380000Y-1900423D01*
X4518454Y-2761969D01*
X4513684Y-2765884D01*
X4498063Y-2784918D01*
X4486456Y-2806633D01*
X4479309Y-2830196D01*
X4477500Y-2848559D01*
X4477500Y-2848560D01*
X4476895Y-2854700D01*
X4477500Y-2860840D01*
X4477500Y-3077505D01*
X4472874Y-3086160D01*
X4468585Y-3100297D01*
X4468500Y-3101163D01*
X4468415Y-3100297D01*
X4464126Y-3086160D01*
X4457162Y-3073131D01*
X4447790Y-3061710D01*
X4436369Y-3052338D01*
X4423340Y-3045374D01*
X4409203Y-3041085D01*
X4394500Y-3039637D01*
X4274500Y-3039637D01*
X4259797Y-3041085D01*
X4254500Y-3042692D01*
X4249203Y-3041085D01*
X4234500Y-3039637D01*
X4114500Y-3039637D01*
X4099797Y-3041085D01*
X4085660Y-3045374D01*
X4072631Y-3052338D01*
X4061210Y-3061710D01*
X4051838Y-3073131D01*
X4044874Y-3086160D01*
X4040585Y-3100297D01*
X4039137Y-3115000D01*
X4039137Y-3133586D01*
X4032375Y-3140348D01*
X4032618Y-3115000D01*
X4031348Y-3102101D01*
X4027585Y-3089698D01*
X4021475Y-3078267D01*
X4013253Y-3068247D01*
X4003233Y-3060025D01*
X3991802Y-3053915D01*
X3979399Y-3050152D01*
X3966500Y-3048882D01*
X3933350Y-3049200D01*
X3916900Y-3065650D01*
X3916900Y-3164600D01*
X3918900Y-3164600D01*
X3918900Y-3185400D01*
X3916900Y-3185400D01*
X3916900Y-3284350D01*
X3933350Y-3300800D01*
X3939600Y-3300860D01*
X3939600Y-3364512D01*
X3928669Y-3375444D01*
X3914600Y-3396499D01*
X3900531Y-3375444D01*
X3876156Y-3351069D01*
X3871500Y-3347958D01*
X3871500Y-3300878D01*
X3879650Y-3300800D01*
X3896100Y-3284350D01*
X3896100Y-3185400D01*
X3894100Y-3185400D01*
X3894100Y-3164600D01*
X3896100Y-3164600D01*
X3896100Y-3065650D01*
X3879650Y-3049200D01*
X3871500Y-3049122D01*
X3871500Y-2909277D01*
X3902730Y-2878046D01*
X3914436Y-2863782D01*
X3926044Y-2842067D01*
X3933191Y-2818504D01*
X3935605Y-2794000D01*
X3933191Y-2769496D01*
X3926044Y-2745933D01*
X3914436Y-2724218D01*
X3898816Y-2705184D01*
X3879782Y-2689564D01*
X3858067Y-2677956D01*
X3834504Y-2670809D01*
X3810000Y-2668395D01*
X3785496Y-2670809D01*
X3761933Y-2677956D01*
X3740218Y-2689564D01*
X3725954Y-2701270D01*
X3662454Y-2764769D01*
X3657684Y-2768684D01*
X3642500Y-2787186D01*
X3642500Y-2610868D01*
X3643226Y-2603500D01*
X3640329Y-2574095D01*
X3631752Y-2545820D01*
X3624788Y-2532791D01*
X3617824Y-2519761D01*
X3599079Y-2496921D01*
X3593356Y-2492224D01*
X3540276Y-2439145D01*
X3540276Y-2439144D01*
X3476777Y-2375645D01*
X3472079Y-2369921D01*
X3449239Y-2351176D01*
X3423180Y-2337248D01*
X3394905Y-2328671D01*
X3372868Y-2326500D01*
X3365500Y-2325774D01*
X3358132Y-2326500D01*
X2985203Y-2326500D01*
X2996396Y-2315307D01*
X3013359Y-2289920D01*
X3025043Y-2261712D01*
X3029383Y-2239893D01*
X3068546Y-2200731D01*
X3073316Y-2196816D01*
X3088937Y-2177782D01*
X3097572Y-2161626D01*
X3100544Y-2156067D01*
X3107691Y-2132504D01*
X3110105Y-2108000D01*
X3109500Y-2101860D01*
X3109500Y-2101641D01*
X3110105Y-2095500D01*
X3109500Y-2089359D01*
X3109500Y-2015495D01*
X3114126Y-2006840D01*
X3118415Y-1992703D01*
X3119863Y-1978000D01*
X3119863Y-1858000D01*
X3118415Y-1843297D01*
X3116808Y-1838000D01*
X3118415Y-1832703D01*
X3119863Y-1818000D01*
X3119863Y-1799414D01*
X3449546Y-1469730D01*
X3454316Y-1465816D01*
X3469937Y-1446782D01*
X3481544Y-1425067D01*
X3488691Y-1401504D01*
X3490500Y-1383141D01*
X3491105Y-1377000D01*
X3490500Y-1370860D01*
X3490500Y-859495D01*
X3495126Y-850840D01*
X3499415Y-836703D01*
X3500863Y-822000D01*
X3500863Y-713000D01*
X3623137Y-713000D01*
X3623137Y-808000D01*
G04 #@! TA.AperFunction,Conductor*
D25*
G36*
X3623137Y-808000D02*
G01*
X3624585Y-822703D01*
X3628874Y-836840D01*
X3635838Y-849869D01*
X3645210Y-861289D01*
X3656631Y-870662D01*
X3669660Y-877626D01*
X3683797Y-881915D01*
X3698500Y-883363D01*
X3717086Y-883363D01*
X3886770Y-1053046D01*
X3890684Y-1057816D01*
X3909718Y-1073437D01*
X3931433Y-1085044D01*
X3954996Y-1092191D01*
X3973359Y-1094000D01*
X3973360Y-1094000D01*
X3979500Y-1094605D01*
X3985640Y-1094000D01*
X4029719Y-1094000D01*
X4041218Y-1103437D01*
X4062933Y-1115044D01*
X4086496Y-1122191D01*
X4111000Y-1124605D01*
X4135504Y-1122191D01*
X4159067Y-1115044D01*
X4180782Y-1103437D01*
X4186000Y-1099155D01*
X4191218Y-1103437D01*
X4212933Y-1115044D01*
X4236496Y-1122191D01*
X4261000Y-1124605D01*
X4285504Y-1122191D01*
X4309067Y-1115044D01*
X4330782Y-1103437D01*
X4336000Y-1099155D01*
X4341218Y-1103437D01*
X4362933Y-1115044D01*
X4386496Y-1122191D01*
X4411000Y-1124605D01*
X4435504Y-1122191D01*
X4459067Y-1115044D01*
X4480782Y-1103437D01*
X4493485Y-1093012D01*
X4505312Y-1101062D01*
X4526294Y-1109965D01*
X4532686Y-1111285D01*
X4550600Y-1097804D01*
X4550600Y-979400D01*
X4548600Y-979400D01*
X4548600Y-958600D01*
X4550600Y-958600D01*
X4550600Y-956600D01*
X4571400Y-956600D01*
X4571400Y-958600D01*
X4573400Y-958600D01*
X4573400Y-979400D01*
X4571400Y-979400D01*
X4571400Y-1097804D01*
X4586000Y-1108791D01*
X4586000Y-1593359D01*
X4585395Y-1599500D01*
X4587809Y-1624004D01*
X4594956Y-1647567D01*
X4594956Y-1647567D01*
X4606564Y-1669282D01*
X4622184Y-1688316D01*
X4626954Y-1692230D01*
X4932454Y-1997730D01*
X4946718Y-2009436D01*
X4968433Y-2021044D01*
X4991996Y-2028191D01*
X5016500Y-2030605D01*
X5041004Y-2028191D01*
X5064567Y-2021044D01*
X5086282Y-2009436D01*
X5105316Y-1993816D01*
X5120937Y-1974782D01*
X5132544Y-1953067D01*
X5139691Y-1929504D01*
X5142105Y-1905000D01*
X5139691Y-1880496D01*
X5132544Y-1856933D01*
X5120937Y-1835218D01*
X5109230Y-1820954D01*
X4836000Y-1547723D01*
X4836000Y-1122041D01*
X4836496Y-1122191D01*
X4861000Y-1124605D01*
X4885504Y-1122191D01*
X4909067Y-1115044D01*
X4930782Y-1103437D01*
X4936000Y-1099155D01*
X4941218Y-1103437D01*
X4962933Y-1115044D01*
X4986496Y-1122191D01*
X5011000Y-1124605D01*
X5035504Y-1122191D01*
X5059067Y-1115044D01*
X5080782Y-1103437D01*
X5086000Y-1099155D01*
X5091218Y-1103437D01*
X5112933Y-1115044D01*
X5136496Y-1122191D01*
X5161000Y-1124605D01*
X5185504Y-1122191D01*
X5209067Y-1115044D01*
X5217657Y-1110452D01*
X5219131Y-1111662D01*
X5232160Y-1118626D01*
X5246297Y-1122915D01*
X5261000Y-1124363D01*
X5361000Y-1124363D01*
X5375703Y-1122915D01*
X5380000Y-1121611D01*
X5380000Y-1900423D01*
X4518454Y-2761969D01*
X4513684Y-2765884D01*
X4498063Y-2784918D01*
X4486456Y-2806633D01*
X4479309Y-2830196D01*
X4477500Y-2848559D01*
X4477500Y-2848560D01*
X4476895Y-2854700D01*
X4477500Y-2860840D01*
X4477500Y-3077505D01*
X4472874Y-3086160D01*
X4468585Y-3100297D01*
X4468500Y-3101163D01*
X4468415Y-3100297D01*
X4464126Y-3086160D01*
X4457162Y-3073131D01*
X4447790Y-3061710D01*
X4436369Y-3052338D01*
X4423340Y-3045374D01*
X4409203Y-3041085D01*
X4394500Y-3039637D01*
X4274500Y-3039637D01*
X4259797Y-3041085D01*
X4254500Y-3042692D01*
X4249203Y-3041085D01*
X4234500Y-3039637D01*
X4114500Y-3039637D01*
X4099797Y-3041085D01*
X4085660Y-3045374D01*
X4072631Y-3052338D01*
X4061210Y-3061710D01*
X4051838Y-3073131D01*
X4044874Y-3086160D01*
X4040585Y-3100297D01*
X4039137Y-3115000D01*
X4039137Y-3133586D01*
X4032375Y-3140348D01*
X4032618Y-3115000D01*
X4031348Y-3102101D01*
X4027585Y-3089698D01*
X4021475Y-3078267D01*
X4013253Y-3068247D01*
X4003233Y-3060025D01*
X3991802Y-3053915D01*
X3979399Y-3050152D01*
X3966500Y-3048882D01*
X3933350Y-3049200D01*
X3916900Y-3065650D01*
X3916900Y-3164600D01*
X3918900Y-3164600D01*
X3918900Y-3185400D01*
X3916900Y-3185400D01*
X3916900Y-3284350D01*
X3933350Y-3300800D01*
X3939600Y-3300860D01*
X3939600Y-3364512D01*
X3928669Y-3375444D01*
X3914600Y-3396499D01*
X3900531Y-3375444D01*
X3876156Y-3351069D01*
X3871500Y-3347958D01*
X3871500Y-3300878D01*
X3879650Y-3300800D01*
X3896100Y-3284350D01*
X3896100Y-3185400D01*
X3894100Y-3185400D01*
X3894100Y-3164600D01*
X3896100Y-3164600D01*
X3896100Y-3065650D01*
X3879650Y-3049200D01*
X3871500Y-3049122D01*
X3871500Y-2909277D01*
X3902730Y-2878046D01*
X3914436Y-2863782D01*
X3926044Y-2842067D01*
X3933191Y-2818504D01*
X3935605Y-2794000D01*
X3933191Y-2769496D01*
X3926044Y-2745933D01*
X3914436Y-2724218D01*
X3898816Y-2705184D01*
X3879782Y-2689564D01*
X3858067Y-2677956D01*
X3834504Y-2670809D01*
X3810000Y-2668395D01*
X3785496Y-2670809D01*
X3761933Y-2677956D01*
X3740218Y-2689564D01*
X3725954Y-2701270D01*
X3662454Y-2764769D01*
X3657684Y-2768684D01*
X3642500Y-2787186D01*
X3642500Y-2610868D01*
X3643226Y-2603500D01*
X3640329Y-2574095D01*
X3631752Y-2545820D01*
X3624788Y-2532791D01*
X3617824Y-2519761D01*
X3599079Y-2496921D01*
X3593356Y-2492224D01*
X3540276Y-2439145D01*
X3540276Y-2439144D01*
X3476777Y-2375645D01*
X3472079Y-2369921D01*
X3449239Y-2351176D01*
X3423180Y-2337248D01*
X3394905Y-2328671D01*
X3372868Y-2326500D01*
X3365500Y-2325774D01*
X3358132Y-2326500D01*
X2985203Y-2326500D01*
X2996396Y-2315307D01*
X3013359Y-2289920D01*
X3025043Y-2261712D01*
X3029383Y-2239893D01*
X3068546Y-2200731D01*
X3073316Y-2196816D01*
X3088937Y-2177782D01*
X3097572Y-2161626D01*
X3100544Y-2156067D01*
X3107691Y-2132504D01*
X3110105Y-2108000D01*
X3109500Y-2101860D01*
X3109500Y-2101641D01*
X3110105Y-2095500D01*
X3109500Y-2089359D01*
X3109500Y-2015495D01*
X3114126Y-2006840D01*
X3118415Y-1992703D01*
X3119863Y-1978000D01*
X3119863Y-1858000D01*
X3118415Y-1843297D01*
X3116808Y-1838000D01*
X3118415Y-1832703D01*
X3119863Y-1818000D01*
X3119863Y-1799414D01*
X3449546Y-1469730D01*
X3454316Y-1465816D01*
X3469937Y-1446782D01*
X3481544Y-1425067D01*
X3488691Y-1401504D01*
X3490500Y-1383141D01*
X3491105Y-1377000D01*
X3490500Y-1370860D01*
X3490500Y-859495D01*
X3495126Y-850840D01*
X3499415Y-836703D01*
X3500863Y-822000D01*
X3500863Y-713000D01*
X3623137Y-713000D01*
X3623137Y-808000D01*
G37*
G04 #@! TD.AperFunction*
D24*
X5510001Y-2908722D02*
X5440454Y-2978269D01*
X5435684Y-2982184D01*
X5420063Y-3001218D01*
X5408456Y-3022933D01*
X5401309Y-3046496D01*
X5399500Y-3064859D01*
X5399500Y-3064860D01*
X5398895Y-3071000D01*
X5399500Y-3077140D01*
X5399500Y-3077505D01*
X5397500Y-3081247D01*
X5393162Y-3073131D01*
X5383790Y-3061710D01*
X5372369Y-3052338D01*
X5359340Y-3045374D01*
X5345203Y-3041085D01*
X5330500Y-3039637D01*
X5210500Y-3039637D01*
X5195797Y-3041085D01*
X5190500Y-3042692D01*
X5185203Y-3041085D01*
X5170500Y-3039637D01*
X5050500Y-3039637D01*
X5035797Y-3041085D01*
X5021660Y-3045374D01*
X5008631Y-3052338D01*
X4997211Y-3061710D01*
X4987838Y-3073131D01*
X4980874Y-3086160D01*
X4976585Y-3100297D01*
X4975137Y-3115000D01*
X4975137Y-3133586D01*
X4930554Y-3178170D01*
X4925784Y-3182084D01*
X4910164Y-3201118D01*
X4907842Y-3205461D01*
X4898556Y-3222833D01*
X4891409Y-3246396D01*
X4888995Y-3270900D01*
X4889600Y-3277041D01*
X4889600Y-3364512D01*
X4878669Y-3375444D01*
X4864600Y-3396499D01*
X4850531Y-3375444D01*
X4826156Y-3351069D01*
X4797494Y-3331917D01*
X4765646Y-3318725D01*
X4731836Y-3312000D01*
X4727500Y-3312000D01*
X4727500Y-3300878D01*
X4735650Y-3300800D01*
X4752100Y-3284350D01*
X4752100Y-3185400D01*
X4772900Y-3185400D01*
X4772900Y-3284350D01*
X4789350Y-3300800D01*
X4822500Y-3301118D01*
X4835399Y-3299848D01*
X4847802Y-3296085D01*
X4859233Y-3289975D01*
X4869253Y-3281753D01*
X4877475Y-3271733D01*
X4883585Y-3260302D01*
X4887348Y-3247899D01*
X4888618Y-3235000D01*
X4888300Y-3201850D01*
X4871850Y-3185400D01*
X4772900Y-3185400D01*
X4752100Y-3185400D01*
X4750100Y-3185400D01*
X4750100Y-3164600D01*
X4752100Y-3164600D01*
X4752100Y-3065650D01*
X4772900Y-3065650D01*
X4772900Y-3164600D01*
X4871850Y-3164600D01*
X4888300Y-3148150D01*
X4888618Y-3115000D01*
X4887348Y-3102101D01*
X4883585Y-3089698D01*
X4877475Y-3078267D01*
X4869253Y-3068247D01*
X4859233Y-3060025D01*
X4847802Y-3053915D01*
X4835399Y-3050152D01*
X4822500Y-3048882D01*
X4789350Y-3049200D01*
X4772900Y-3065650D01*
X4752100Y-3065650D01*
X4735650Y-3049200D01*
X4727500Y-3049122D01*
X4727500Y-2906476D01*
X5510001Y-2123975D01*
X5510001Y-2908722D01*
G04 #@! TA.AperFunction,Conductor*
D25*
G36*
X5510001Y-2908722D02*
G01*
X5440454Y-2978269D01*
X5435684Y-2982184D01*
X5420063Y-3001218D01*
X5408456Y-3022933D01*
X5401309Y-3046496D01*
X5399500Y-3064859D01*
X5399500Y-3064860D01*
X5398895Y-3071000D01*
X5399500Y-3077140D01*
X5399500Y-3077505D01*
X5397500Y-3081247D01*
X5393162Y-3073131D01*
X5383790Y-3061710D01*
X5372369Y-3052338D01*
X5359340Y-3045374D01*
X5345203Y-3041085D01*
X5330500Y-3039637D01*
X5210500Y-3039637D01*
X5195797Y-3041085D01*
X5190500Y-3042692D01*
X5185203Y-3041085D01*
X5170500Y-3039637D01*
X5050500Y-3039637D01*
X5035797Y-3041085D01*
X5021660Y-3045374D01*
X5008631Y-3052338D01*
X4997211Y-3061710D01*
X4987838Y-3073131D01*
X4980874Y-3086160D01*
X4976585Y-3100297D01*
X4975137Y-3115000D01*
X4975137Y-3133586D01*
X4930554Y-3178170D01*
X4925784Y-3182084D01*
X4910164Y-3201118D01*
X4907842Y-3205461D01*
X4898556Y-3222833D01*
X4891409Y-3246396D01*
X4888995Y-3270900D01*
X4889600Y-3277041D01*
X4889600Y-3364512D01*
X4878669Y-3375444D01*
X4864600Y-3396499D01*
X4850531Y-3375444D01*
X4826156Y-3351069D01*
X4797494Y-3331917D01*
X4765646Y-3318725D01*
X4731836Y-3312000D01*
X4727500Y-3312000D01*
X4727500Y-3300878D01*
X4735650Y-3300800D01*
X4752100Y-3284350D01*
X4752100Y-3185400D01*
X4772900Y-3185400D01*
X4772900Y-3284350D01*
X4789350Y-3300800D01*
X4822500Y-3301118D01*
X4835399Y-3299848D01*
X4847802Y-3296085D01*
X4859233Y-3289975D01*
X4869253Y-3281753D01*
X4877475Y-3271733D01*
X4883585Y-3260302D01*
X4887348Y-3247899D01*
X4888618Y-3235000D01*
X4888300Y-3201850D01*
X4871850Y-3185400D01*
X4772900Y-3185400D01*
X4752100Y-3185400D01*
X4750100Y-3185400D01*
X4750100Y-3164600D01*
X4752100Y-3164600D01*
X4752100Y-3065650D01*
X4772900Y-3065650D01*
X4772900Y-3164600D01*
X4871850Y-3164600D01*
X4888300Y-3148150D01*
X4888618Y-3115000D01*
X4887348Y-3102101D01*
X4883585Y-3089698D01*
X4877475Y-3078267D01*
X4869253Y-3068247D01*
X4859233Y-3060025D01*
X4847802Y-3053915D01*
X4835399Y-3050152D01*
X4822500Y-3048882D01*
X4789350Y-3049200D01*
X4772900Y-3065650D01*
X4752100Y-3065650D01*
X4735650Y-3049200D01*
X4727500Y-3049122D01*
X4727500Y-2906476D01*
X5510001Y-2123975D01*
X5510001Y-2908722D01*
G37*
G04 #@! TD.AperFunction*
D24*
X3103631Y-639338D02*
X3092210Y-648711D01*
X3082838Y-660131D01*
X3075874Y-673160D01*
X3071585Y-687297D01*
X3070137Y-702000D01*
X3070137Y-822000D01*
X3071585Y-836703D01*
X3075874Y-850840D01*
X3080500Y-859495D01*
X3080500Y-1060723D01*
X2834107Y-1307117D01*
X2812288Y-1311457D01*
X2784080Y-1323141D01*
X2758693Y-1340104D01*
X2753975Y-1344821D01*
X2751330Y-1317958D01*
X2747880Y-1306585D01*
X2742752Y-1289683D01*
X2728824Y-1263624D01*
X2710079Y-1240784D01*
X2704356Y-1236087D01*
X2318674Y-850405D01*
X2334234Y-853500D01*
X2364766Y-853500D01*
X2394712Y-847543D01*
X2422920Y-835859D01*
X2448307Y-818896D01*
X2469896Y-797307D01*
X2476500Y-787424D01*
X2483104Y-797307D01*
X2504693Y-818896D01*
X2530080Y-835859D01*
X2558288Y-847543D01*
X2588234Y-853500D01*
X2618766Y-853500D01*
X2648712Y-847543D01*
X2676920Y-835859D01*
X2702307Y-818896D01*
X2723681Y-797522D01*
X2773185Y-797522D01*
X2780017Y-822839D01*
X2805763Y-835566D01*
X2833498Y-843026D01*
X2862155Y-844931D01*
X2890633Y-841210D01*
X2917837Y-832004D01*
X2934983Y-822839D01*
X2941815Y-797522D01*
X2857500Y-713208D01*
X2773185Y-797522D01*
X2723681Y-797522D01*
X2723896Y-797307D01*
X2737383Y-777122D01*
X2758478Y-782815D01*
X2842792Y-698500D01*
X2841378Y-697086D01*
X2856086Y-682378D01*
X2857500Y-683792D01*
X2858914Y-682378D01*
X2873622Y-697086D01*
X2872208Y-698500D01*
X2956522Y-782815D01*
X2981839Y-775983D01*
X2994566Y-750236D01*
X3002026Y-722502D01*
X3003931Y-693845D01*
X3000210Y-665367D01*
X2991004Y-638163D01*
X2988244Y-633000D01*
X3115488Y-633000D01*
X3103631Y-639338D01*
G04 #@! TA.AperFunction,Conductor*
D25*
G36*
X3103631Y-639338D02*
G01*
X3092210Y-648711D01*
X3082838Y-660131D01*
X3075874Y-673160D01*
X3071585Y-687297D01*
X3070137Y-702000D01*
X3070137Y-822000D01*
X3071585Y-836703D01*
X3075874Y-850840D01*
X3080500Y-859495D01*
X3080500Y-1060723D01*
X2834107Y-1307117D01*
X2812288Y-1311457D01*
X2784080Y-1323141D01*
X2758693Y-1340104D01*
X2753975Y-1344821D01*
X2751330Y-1317958D01*
X2747880Y-1306585D01*
X2742752Y-1289683D01*
X2728824Y-1263624D01*
X2710079Y-1240784D01*
X2704356Y-1236087D01*
X2318674Y-850405D01*
X2334234Y-853500D01*
X2364766Y-853500D01*
X2394712Y-847543D01*
X2422920Y-835859D01*
X2448307Y-818896D01*
X2469896Y-797307D01*
X2476500Y-787424D01*
X2483104Y-797307D01*
X2504693Y-818896D01*
X2530080Y-835859D01*
X2558288Y-847543D01*
X2588234Y-853500D01*
X2618766Y-853500D01*
X2648712Y-847543D01*
X2676920Y-835859D01*
X2702307Y-818896D01*
X2723681Y-797522D01*
X2773185Y-797522D01*
X2780017Y-822839D01*
X2805763Y-835566D01*
X2833498Y-843026D01*
X2862155Y-844931D01*
X2890633Y-841210D01*
X2917837Y-832004D01*
X2934983Y-822839D01*
X2941815Y-797522D01*
X2857500Y-713208D01*
X2773185Y-797522D01*
X2723681Y-797522D01*
X2723896Y-797307D01*
X2737383Y-777122D01*
X2758478Y-782815D01*
X2842792Y-698500D01*
X2841378Y-697086D01*
X2856086Y-682378D01*
X2857500Y-683792D01*
X2858914Y-682378D01*
X2873622Y-697086D01*
X2872208Y-698500D01*
X2956522Y-782815D01*
X2981839Y-775983D01*
X2994566Y-750236D01*
X3002026Y-722502D01*
X3003931Y-693845D01*
X3000210Y-665367D01*
X2991004Y-638163D01*
X2988244Y-633000D01*
X3115488Y-633000D01*
X3103631Y-639338D01*
G37*
G04 #@! TD.AperFunction*
D24*
X197104Y-91693D02*
X180141Y-117080D01*
X168457Y-145288D01*
X162500Y-175234D01*
X162500Y-205766D01*
X168457Y-235712D01*
X180141Y-263920D01*
X197104Y-289307D01*
X211555Y-303758D01*
X200767Y-309525D01*
X190747Y-317747D01*
X182525Y-327767D01*
X176415Y-339198D01*
X172652Y-351601D01*
X171382Y-364500D01*
X171700Y-417650D01*
X188150Y-434100D01*
X307100Y-434100D01*
X307100Y-432100D01*
X327900Y-432100D01*
X327900Y-434100D01*
X446850Y-434100D01*
X463300Y-417650D01*
X463618Y-364500D01*
X462348Y-351601D01*
X458585Y-339198D01*
X452475Y-327767D01*
X444253Y-317747D01*
X441514Y-315500D01*
X775005Y-315500D01*
X783660Y-320126D01*
X797797Y-324415D01*
X812500Y-325863D01*
X907500Y-325863D01*
X907500Y-518359D01*
X906895Y-524500D01*
X909309Y-549004D01*
X916456Y-572567D01*
X920164Y-579504D01*
X928063Y-594282D01*
X943684Y-613316D01*
X948454Y-617230D01*
X995454Y-664230D01*
X1009718Y-675937D01*
X1023868Y-683500D01*
X82500Y-683500D01*
X82500Y-524500D01*
X171382Y-524500D01*
X172652Y-537399D01*
X176415Y-549802D01*
X182525Y-561233D01*
X190747Y-571253D01*
X200767Y-579475D01*
X212198Y-585585D01*
X224601Y-589348D01*
X237500Y-590618D01*
X290650Y-590300D01*
X307100Y-573850D01*
X307100Y-454900D01*
X327900Y-454900D01*
X327900Y-573850D01*
X344350Y-590300D01*
X397500Y-590618D01*
X410399Y-589348D01*
X422802Y-585585D01*
X434233Y-579475D01*
X444253Y-571253D01*
X452475Y-561233D01*
X458585Y-549802D01*
X462348Y-537399D01*
X463618Y-524500D01*
X463300Y-471350D01*
X446850Y-454900D01*
X327900Y-454900D01*
X307100Y-454900D01*
X188150Y-454900D01*
X171700Y-471350D01*
X171382Y-524500D01*
X82500Y-524500D01*
X82500Y-82500D01*
X206297Y-82500D01*
X197104Y-91693D01*
G04 #@! TA.AperFunction,Conductor*
D25*
G36*
X197104Y-91693D02*
G01*
X180141Y-117080D01*
X168457Y-145288D01*
X162500Y-175234D01*
X162500Y-205766D01*
X168457Y-235712D01*
X180141Y-263920D01*
X197104Y-289307D01*
X211555Y-303758D01*
X200767Y-309525D01*
X190747Y-317747D01*
X182525Y-327767D01*
X176415Y-339198D01*
X172652Y-351601D01*
X171382Y-364500D01*
X171700Y-417650D01*
X188150Y-434100D01*
X307100Y-434100D01*
X307100Y-432100D01*
X327900Y-432100D01*
X327900Y-434100D01*
X446850Y-434100D01*
X463300Y-417650D01*
X463618Y-364500D01*
X462348Y-351601D01*
X458585Y-339198D01*
X452475Y-327767D01*
X444253Y-317747D01*
X441514Y-315500D01*
X775005Y-315500D01*
X783660Y-320126D01*
X797797Y-324415D01*
X812500Y-325863D01*
X907500Y-325863D01*
X907500Y-518359D01*
X906895Y-524500D01*
X909309Y-549004D01*
X916456Y-572567D01*
X920164Y-579504D01*
X928063Y-594282D01*
X943684Y-613316D01*
X948454Y-617230D01*
X995454Y-664230D01*
X1009718Y-675937D01*
X1023868Y-683500D01*
X82500Y-683500D01*
X82500Y-524500D01*
X171382Y-524500D01*
X172652Y-537399D01*
X176415Y-549802D01*
X182525Y-561233D01*
X190747Y-571253D01*
X200767Y-579475D01*
X212198Y-585585D01*
X224601Y-589348D01*
X237500Y-590618D01*
X290650Y-590300D01*
X307100Y-573850D01*
X307100Y-454900D01*
X327900Y-454900D01*
X327900Y-573850D01*
X344350Y-590300D01*
X397500Y-590618D01*
X410399Y-589348D01*
X422802Y-585585D01*
X434233Y-579475D01*
X444253Y-571253D01*
X452475Y-561233D01*
X458585Y-549802D01*
X462348Y-537399D01*
X463618Y-524500D01*
X463300Y-471350D01*
X446850Y-454900D01*
X327900Y-454900D01*
X307100Y-454900D01*
X188150Y-454900D01*
X171700Y-471350D01*
X171382Y-524500D01*
X82500Y-524500D01*
X82500Y-82500D01*
X206297Y-82500D01*
X197104Y-91693D01*
G37*
G04 #@! TD.AperFunction*
D24*
X4509951Y-88961D02*
X4481920Y-103945D01*
X4457349Y-124109D01*
X4437185Y-148680D01*
X4422202Y-176711D01*
X4412975Y-207128D01*
X4410640Y-230833D01*
X4410640Y-277167D01*
X4412975Y-300872D01*
X4422202Y-331289D01*
X4437185Y-359320D01*
X4457349Y-383891D01*
X4481920Y-404055D01*
X4509952Y-419038D01*
X4540368Y-428265D01*
X4572000Y-431381D01*
X4603632Y-428265D01*
X4634049Y-419038D01*
X4662081Y-404055D01*
X4686651Y-383891D01*
X4699000Y-368843D01*
X4711349Y-383891D01*
X4735920Y-404055D01*
X4763952Y-419038D01*
X4794368Y-428265D01*
X4826000Y-431381D01*
X4857632Y-428265D01*
X4888049Y-419038D01*
X4916081Y-404055D01*
X4940651Y-383891D01*
X4953000Y-368843D01*
X4965349Y-383891D01*
X4989920Y-404055D01*
X5017952Y-419038D01*
X5048368Y-428265D01*
X5065982Y-430000D01*
X4840859Y-430000D01*
X4822496Y-431809D01*
X4798933Y-438956D01*
X4777218Y-450563D01*
X4758184Y-466184D01*
X4756808Y-467861D01*
X4754253Y-464747D01*
X4744233Y-456525D01*
X4732802Y-450415D01*
X4720399Y-446652D01*
X4707500Y-445382D01*
X4674350Y-445700D01*
X4657900Y-462150D01*
X4657900Y-561100D01*
X4659900Y-561100D01*
X4659900Y-581900D01*
X4657900Y-581900D01*
X4657900Y-583900D01*
X4637100Y-583900D01*
X4637100Y-581900D01*
X4635100Y-581900D01*
X4635100Y-561100D01*
X4637100Y-561100D01*
X4637100Y-462150D01*
X4620650Y-445700D01*
X4587500Y-445382D01*
X4574601Y-446652D01*
X4562198Y-450415D01*
X4550767Y-456525D01*
X4540747Y-464747D01*
X4532525Y-474767D01*
X4526415Y-486198D01*
X4526222Y-486834D01*
X4522816Y-482684D01*
X4503783Y-467063D01*
X4482067Y-455456D01*
X4458505Y-448309D01*
X4440141Y-446500D01*
X4440140Y-446500D01*
X4434000Y-445895D01*
X4427860Y-446500D01*
X4427495Y-446500D01*
X4418840Y-441874D01*
X4404703Y-437585D01*
X4390000Y-436137D01*
X4270000Y-436137D01*
X4255297Y-437585D01*
X4241160Y-441874D01*
X4232505Y-446500D01*
X4197140Y-446500D01*
X4191000Y-445895D01*
X4184860Y-446500D01*
X4184859Y-446500D01*
X4166496Y-448309D01*
X4142933Y-455456D01*
X4128820Y-463000D01*
X4109995Y-463000D01*
X4101340Y-458374D01*
X4087203Y-454085D01*
X4072500Y-452637D01*
X3952500Y-452637D01*
X3937797Y-454085D01*
X3923660Y-458374D01*
X3915005Y-463000D01*
X3855995Y-463000D01*
X3847340Y-458374D01*
X3833203Y-454085D01*
X3818500Y-452637D01*
X3698500Y-452637D01*
X3683797Y-454085D01*
X3669660Y-458374D01*
X3661005Y-463000D01*
X3306777Y-463000D01*
X3267731Y-423954D01*
X3263816Y-419184D01*
X3244782Y-403563D01*
X3242056Y-402106D01*
X3264251Y-383891D01*
X3276600Y-368843D01*
X3288949Y-383891D01*
X3313520Y-404055D01*
X3341551Y-419038D01*
X3371968Y-428265D01*
X3403600Y-431381D01*
X3435232Y-428265D01*
X3465649Y-419038D01*
X3493680Y-404055D01*
X3518251Y-383891D01*
X3530600Y-368843D01*
X3542949Y-383891D01*
X3567520Y-404055D01*
X3595551Y-419038D01*
X3625968Y-428265D01*
X3657600Y-431381D01*
X3689232Y-428265D01*
X3719649Y-419038D01*
X3747680Y-404055D01*
X3772251Y-383891D01*
X3784600Y-368843D01*
X3796949Y-383891D01*
X3821520Y-404055D01*
X3849551Y-419038D01*
X3879968Y-428265D01*
X3911600Y-431381D01*
X3943232Y-428265D01*
X3973649Y-419038D01*
X4001680Y-404055D01*
X4026251Y-383891D01*
X4038600Y-368843D01*
X4050949Y-383891D01*
X4075520Y-404055D01*
X4103551Y-419038D01*
X4133968Y-428265D01*
X4165600Y-431381D01*
X4197232Y-428265D01*
X4227649Y-419038D01*
X4255681Y-404055D01*
X4280251Y-383891D01*
X4300415Y-359320D01*
X4315399Y-331289D01*
X4324625Y-300872D01*
X4326960Y-277167D01*
X4326960Y-230833D01*
X4324625Y-207128D01*
X4315399Y-176711D01*
X4300415Y-148680D01*
X4280251Y-124109D01*
X4255680Y-103945D01*
X4227649Y-88961D01*
X4206348Y-82500D01*
X4531252Y-82500D01*
X4509951Y-88961D01*
G04 #@! TA.AperFunction,Conductor*
D25*
G36*
X4509951Y-88961D02*
G01*
X4481920Y-103945D01*
X4457349Y-124109D01*
X4437185Y-148680D01*
X4422202Y-176711D01*
X4412975Y-207128D01*
X4410640Y-230833D01*
X4410640Y-277167D01*
X4412975Y-300872D01*
X4422202Y-331289D01*
X4437185Y-359320D01*
X4457349Y-383891D01*
X4481920Y-404055D01*
X4509952Y-419038D01*
X4540368Y-428265D01*
X4572000Y-431381D01*
X4603632Y-428265D01*
X4634049Y-419038D01*
X4662081Y-404055D01*
X4686651Y-383891D01*
X4699000Y-368843D01*
X4711349Y-383891D01*
X4735920Y-404055D01*
X4763952Y-419038D01*
X4794368Y-428265D01*
X4826000Y-431381D01*
X4857632Y-428265D01*
X4888049Y-419038D01*
X4916081Y-404055D01*
X4940651Y-383891D01*
X4953000Y-368843D01*
X4965349Y-383891D01*
X4989920Y-404055D01*
X5017952Y-419038D01*
X5048368Y-428265D01*
X5065982Y-430000D01*
X4840859Y-430000D01*
X4822496Y-431809D01*
X4798933Y-438956D01*
X4777218Y-450563D01*
X4758184Y-466184D01*
X4756808Y-467861D01*
X4754253Y-464747D01*
X4744233Y-456525D01*
X4732802Y-450415D01*
X4720399Y-446652D01*
X4707500Y-445382D01*
X4674350Y-445700D01*
X4657900Y-462150D01*
X4657900Y-561100D01*
X4659900Y-561100D01*
X4659900Y-581900D01*
X4657900Y-581900D01*
X4657900Y-583900D01*
X4637100Y-583900D01*
X4637100Y-581900D01*
X4635100Y-581900D01*
X4635100Y-561100D01*
X4637100Y-561100D01*
X4637100Y-462150D01*
X4620650Y-445700D01*
X4587500Y-445382D01*
X4574601Y-446652D01*
X4562198Y-450415D01*
X4550767Y-456525D01*
X4540747Y-464747D01*
X4532525Y-474767D01*
X4526415Y-486198D01*
X4526222Y-486834D01*
X4522816Y-482684D01*
X4503783Y-467063D01*
X4482067Y-455456D01*
X4458505Y-448309D01*
X4440141Y-446500D01*
X4440140Y-446500D01*
X4434000Y-445895D01*
X4427860Y-446500D01*
X4427495Y-446500D01*
X4418840Y-441874D01*
X4404703Y-437585D01*
X4390000Y-436137D01*
X4270000Y-436137D01*
X4255297Y-437585D01*
X4241160Y-441874D01*
X4232505Y-446500D01*
X4197140Y-446500D01*
X4191000Y-445895D01*
X4184860Y-446500D01*
X4184859Y-446500D01*
X4166496Y-448309D01*
X4142933Y-455456D01*
X4128820Y-463000D01*
X4109995Y-463000D01*
X4101340Y-458374D01*
X4087203Y-454085D01*
X4072500Y-452637D01*
X3952500Y-452637D01*
X3937797Y-454085D01*
X3923660Y-458374D01*
X3915005Y-463000D01*
X3855995Y-463000D01*
X3847340Y-458374D01*
X3833203Y-454085D01*
X3818500Y-452637D01*
X3698500Y-452637D01*
X3683797Y-454085D01*
X3669660Y-458374D01*
X3661005Y-463000D01*
X3306777Y-463000D01*
X3267731Y-423954D01*
X3263816Y-419184D01*
X3244782Y-403563D01*
X3242056Y-402106D01*
X3264251Y-383891D01*
X3276600Y-368843D01*
X3288949Y-383891D01*
X3313520Y-404055D01*
X3341551Y-419038D01*
X3371968Y-428265D01*
X3403600Y-431381D01*
X3435232Y-428265D01*
X3465649Y-419038D01*
X3493680Y-404055D01*
X3518251Y-383891D01*
X3530600Y-368843D01*
X3542949Y-383891D01*
X3567520Y-404055D01*
X3595551Y-419038D01*
X3625968Y-428265D01*
X3657600Y-431381D01*
X3689232Y-428265D01*
X3719649Y-419038D01*
X3747680Y-404055D01*
X3772251Y-383891D01*
X3784600Y-368843D01*
X3796949Y-383891D01*
X3821520Y-404055D01*
X3849551Y-419038D01*
X3879968Y-428265D01*
X3911600Y-431381D01*
X3943232Y-428265D01*
X3973649Y-419038D01*
X4001680Y-404055D01*
X4026251Y-383891D01*
X4038600Y-368843D01*
X4050949Y-383891D01*
X4075520Y-404055D01*
X4103551Y-419038D01*
X4133968Y-428265D01*
X4165600Y-431381D01*
X4197232Y-428265D01*
X4227649Y-419038D01*
X4255681Y-404055D01*
X4280251Y-383891D01*
X4300415Y-359320D01*
X4315399Y-331289D01*
X4324625Y-300872D01*
X4326960Y-277167D01*
X4326960Y-230833D01*
X4324625Y-207128D01*
X4315399Y-176711D01*
X4300415Y-148680D01*
X4280251Y-124109D01*
X4255680Y-103945D01*
X4227649Y-88961D01*
X4206348Y-82500D01*
X4531252Y-82500D01*
X4509951Y-88961D01*
G37*
G04 #@! TD.AperFunction*
D24*
X2833551Y-88961D02*
X2805519Y-103945D01*
X2780949Y-124109D01*
X2762326Y-146802D01*
X2756741Y-138916D01*
X2735050Y-118371D01*
X2709768Y-102453D01*
X2681866Y-91773D01*
X2675619Y-90452D01*
X2652000Y-103449D01*
X2652000Y-243600D01*
X2654000Y-243600D01*
X2654000Y-264400D01*
X2652000Y-264400D01*
X2652000Y-266400D01*
X2631200Y-266400D01*
X2631200Y-264400D01*
X2629200Y-264400D01*
X2629200Y-243600D01*
X2631200Y-243600D01*
X2631200Y-103449D01*
X2607581Y-90452D01*
X2601334Y-91773D01*
X2573432Y-102453D01*
X2548150Y-118371D01*
X2526459Y-138916D01*
X2520874Y-146802D01*
X2502251Y-124109D01*
X2477680Y-103945D01*
X2449649Y-88961D01*
X2428348Y-82500D01*
X2854852Y-82500D01*
X2833551Y-88961D01*
G04 #@! TA.AperFunction,Conductor*
D25*
G36*
X2833551Y-88961D02*
G01*
X2805519Y-103945D01*
X2780949Y-124109D01*
X2762326Y-146802D01*
X2756741Y-138916D01*
X2735050Y-118371D01*
X2709768Y-102453D01*
X2681866Y-91773D01*
X2675619Y-90452D01*
X2652000Y-103449D01*
X2652000Y-243600D01*
X2654000Y-243600D01*
X2654000Y-264400D01*
X2652000Y-264400D01*
X2652000Y-266400D01*
X2631200Y-266400D01*
X2631200Y-264400D01*
X2629200Y-264400D01*
X2629200Y-243600D01*
X2631200Y-243600D01*
X2631200Y-103449D01*
X2607581Y-90452D01*
X2601334Y-91773D01*
X2573432Y-102453D01*
X2548150Y-118371D01*
X2526459Y-138916D01*
X2520874Y-146802D01*
X2502251Y-124109D01*
X2477680Y-103945D01*
X2449649Y-88961D01*
X2428348Y-82500D01*
X2854852Y-82500D01*
X2833551Y-88961D01*
G37*
G04 #@! TD.AperFunction*
M02*
