M48
; DRILL file {KiCad (5.1.12)-1} date 12/10/21 10:06:59
; FORMAT={-:-/ absolute / metric / decimal}
; #@! TF.CreationDate,2021-12-10T10:06:59+09:00
; #@! TF.GenerationSoftware,Kicad,Pcbnew,(5.1.12)-1
FMAT,2
METRIC
T1C0.300
T2C0.500
T3C0.800
T4C1.000
T5C1.016
T6C3.048
%
G90
G05
T1
X6.985Y-5.715
X8.89Y-5.715
X10.795Y-5.715
X17.78Y-12.7
X17.78Y-22.86
X17.78Y-27.94
X17.78Y-33.02
X17.78Y-38.1
X20.32Y-50.8
X22.86Y-50.8
X27.94Y-33.02
X27.94Y-38.1
X29.845Y-20.955
X35.56Y-12.7
X35.56Y-17.78
X35.56Y-22.86
X38.1Y-27.94
X40.64Y-12.7
X40.64Y-17.78
X40.64Y-22.86
X42.545Y-4.445
X45.72Y-12.7
X45.72Y-17.78
X45.72Y-22.86
X50.165Y-19.05
X50.8Y-12.7
X52.07Y-27.94
X58.42Y-30.48
X60.96Y-7.62
X60.96Y-12.7
X60.96Y-17.78
X60.96Y-22.86
X66.04Y-22.86
X66.04Y-27.94
T2
X21.14Y-31.69
X23.04Y-31.69
T3
X3.175Y-1.905
X3.175Y-4.445
X20.955Y-6.985
X20.955Y-14.605
X21.14Y-22.165
X21.14Y-29.785
X23.495Y-6.985
X23.495Y-14.605
X23.68Y-22.165
X23.68Y-29.785
X26.035Y-6.985
X26.035Y-14.605
X26.22Y-22.165
X26.22Y-29.785
X28.575Y-6.985
X28.575Y-14.605
X28.76Y-22.165
X28.76Y-29.785
X41.11Y-9.69
X42.61Y-9.69
X44.11Y-9.69
X45.61Y-9.69
X47.11Y-9.69
X48.61Y-9.69
X50.11Y-9.69
X51.61Y-9.69
X53.11Y-9.69
T4
X2.54Y-10.16
X2.54Y-12.7
X2.54Y-15.24
X2.54Y-17.78
X2.54Y-20.32
X2.54Y-22.86
X2.54Y-25.4
X2.54Y-27.94
X2.54Y-30.48
X2.54Y-33.02
X2.54Y-35.56
X2.54Y-38.1
X2.54Y-40.64
X2.54Y-43.18
X2.54Y-45.72
X2.54Y-48.26
X2.54Y-50.8
X5.08Y-10.16
X5.08Y-12.7
X5.08Y-15.24
X5.08Y-17.78
X5.08Y-20.32
X5.08Y-22.86
X5.08Y-25.4
X5.08Y-27.94
X5.08Y-30.48
X5.08Y-33.02
X5.08Y-35.56
X5.08Y-38.1
X5.08Y-40.64
X5.08Y-43.18
X5.08Y-45.72
X5.08Y-48.26
X5.08Y-50.8
X7.62Y-10.16
X7.62Y-12.7
X7.62Y-15.24
X7.62Y-17.78
X7.62Y-20.32
X7.62Y-22.86
X7.62Y-25.4
X7.62Y-27.94
X7.62Y-30.48
X7.62Y-33.02
X7.62Y-35.56
X7.62Y-38.1
X7.62Y-40.64
X7.62Y-43.18
X7.62Y-45.72
X7.62Y-48.26
X7.62Y-50.8
X10.16Y-10.16
X10.16Y-12.7
X10.16Y-15.24
X10.16Y-17.78
X10.16Y-20.32
X10.16Y-22.86
X10.16Y-25.4
X10.16Y-27.94
X10.16Y-30.48
X10.16Y-33.02
X10.16Y-35.56
X10.16Y-38.1
X10.16Y-40.64
X10.16Y-43.18
X10.16Y-45.72
X12.7Y-10.16
X12.7Y-12.7
X12.7Y-15.24
X12.7Y-17.78
X12.7Y-20.32
X12.7Y-22.86
X12.7Y-25.4
X12.7Y-27.94
X12.7Y-30.48
X12.7Y-33.02
X12.7Y-35.56
X12.7Y-38.1
X12.7Y-40.64
X12.7Y-43.18
X12.7Y-45.72
X15.24Y-43.18
X15.24Y-45.72
X17.78Y-43.18
X17.78Y-45.72
X20.32Y-43.18
X20.32Y-45.72
X22.86Y-43.18
X22.86Y-45.72
X25.4Y-43.18
X25.4Y-45.72
X27.94Y-43.18
X27.94Y-45.72
X30.48Y-43.18
X30.48Y-45.72
X31.146Y-34.87
X31.146Y-39.37
X33.02Y-43.18
X33.02Y-45.72
X35.56Y-43.18
X35.56Y-45.72
X37.646Y-34.87
X37.646Y-39.37
X38.1Y-43.18
X38.1Y-45.72
X40.64Y-43.18
X40.64Y-45.72
X40.646Y-34.87
X40.646Y-39.37
X43.18Y-43.18
X43.18Y-45.72
X45.72Y-43.18
X45.72Y-45.72
X47.146Y-34.87
X47.146Y-39.37
X48.26Y-43.18
X48.26Y-45.72
X50.146Y-34.87
X50.146Y-39.37
X50.8Y-43.18
X50.8Y-45.72
X53.34Y-43.18
X53.34Y-45.72
X55.88Y-43.18
X55.88Y-45.72
X56.646Y-34.87
X56.646Y-39.37
X58.42Y-43.18
X58.42Y-45.72
X59.69Y-34.87
X59.69Y-39.37
X66.19Y-34.87
X66.19Y-39.37
T5
X18.796Y-2.54
X21.336Y-2.54
X23.876Y-2.54
X26.416Y-2.54
X27.94Y-50.8
X28.956Y-2.54
X30.48Y-50.8
X31.496Y-2.54
X33.02Y-50.8
X34.036Y-2.54
X35.56Y-50.8
X36.576Y-2.54
X38.1Y-50.8
X39.116Y-2.54
X40.64Y-50.8
X41.656Y-2.54
X43.18Y-50.8
X45.72Y-2.54
X45.72Y-50.8
X48.26Y-2.54
X50.8Y-2.54
X50.8Y-50.8
X53.34Y-2.54
X53.34Y-50.8
X55.88Y-2.54
X55.88Y-50.8
X58.42Y-2.54
X58.42Y-50.8
X60.96Y-2.54
X60.96Y-50.8
X63.5Y-2.54
X63.5Y-50.8
T6
X13.97Y-50.8
X15.24Y-2.54
X66.04Y-17.78
X66.04Y-45.72
T0
M30
