G04 #@! TF.GenerationSoftware,KiCad,Pcbnew,(5.1.12)-1*
G04 #@! TF.CreationDate,2021-12-01T17:13:29+09:00*
G04 #@! TF.ProjectId,kicad_arduino_LCD,6b696361-645f-4617-9264-75696e6f5f4c,rev?*
G04 #@! TF.SameCoordinates,PX7339f30PY4576b0c*
G04 #@! TF.FileFunction,Legend,Bot*
G04 #@! TF.FilePolarity,Positive*
%FSLAX45Y45*%
G04 Gerber Fmt 4.5, Leading zero omitted, Abs format (unit mm)*
G04 Created by KiCad (PCBNEW (5.1.12)-1) date 2021-12-01 17:13:29*
%MOMM*%
%LPD*%
G01*
G04 APERTURE LIST*
%ADD10O,1.100000X1.700000*%
%ADD11C,1.700000*%
%ADD12C,2.100000*%
%ADD13O,1.827200X2.132000*%
%ADD14C,4.164000*%
%ADD15C,1.100000*%
G04 APERTURE END LIST*
%LPC*%
D10*
X4111000Y-969000D03*
X4261000Y-969000D03*
X4411000Y-969000D03*
X4561000Y-969000D03*
X4711000Y-969000D03*
X4861000Y-969000D03*
X5011000Y-969000D03*
X5161000Y-969000D03*
G36*
G01*
X5366000Y-889000D02*
X5366000Y-1049000D01*
G75*
G02*
X5361000Y-1054000I-5000J0D01*
G01*
X5261000Y-1054000D01*
G75*
G02*
X5256000Y-1049000I0J5000D01*
G01*
X5256000Y-889000D01*
G75*
G02*
X5261000Y-884000I5000J0D01*
G01*
X5361000Y-884000D01*
G75*
G02*
X5366000Y-889000I0J-5000D01*
G01*
G37*
D11*
X762000Y-4826000D03*
X762000Y-5080000D03*
X508000Y-4826000D03*
X508000Y-5080000D03*
X254000Y-4826000D03*
X254000Y-5080000D03*
X5842000Y-4318000D03*
X5842000Y-4572000D03*
X5588000Y-4318000D03*
X5334000Y-4572000D03*
X5588000Y-4572000D03*
X5334000Y-4318000D03*
X4826000Y-4572000D03*
X4064000Y-4572000D03*
X5080000Y-4572000D03*
X4318000Y-4572000D03*
X4572000Y-4572000D03*
X4826000Y-4318000D03*
X4064000Y-4318000D03*
X5080000Y-4318000D03*
X4318000Y-4318000D03*
X4572000Y-4318000D03*
X3556000Y-4572000D03*
X2794000Y-4572000D03*
X3810000Y-4572000D03*
X3048000Y-4572000D03*
X3302000Y-4572000D03*
X3556000Y-4318000D03*
X2794000Y-4318000D03*
X3810000Y-4318000D03*
X3048000Y-4318000D03*
X3302000Y-4318000D03*
X2286000Y-4572000D03*
X1524000Y-4572000D03*
X2540000Y-4572000D03*
X1778000Y-4572000D03*
X2032000Y-4572000D03*
X2286000Y-4318000D03*
X1524000Y-4318000D03*
X2540000Y-4318000D03*
X1778000Y-4318000D03*
X2032000Y-4318000D03*
X1016000Y-4572000D03*
X254000Y-4572000D03*
X1270000Y-4572000D03*
X508000Y-4572000D03*
X762000Y-4572000D03*
X1016000Y-4318000D03*
X254000Y-4318000D03*
X1270000Y-4318000D03*
X508000Y-4318000D03*
X762000Y-4318000D03*
X1016000Y-4064000D03*
X254000Y-4064000D03*
X1270000Y-4064000D03*
X508000Y-4064000D03*
X762000Y-4064000D03*
X1016000Y-3810000D03*
X254000Y-3810000D03*
X1270000Y-3810000D03*
X508000Y-3810000D03*
X762000Y-3810000D03*
X1016000Y-3556000D03*
X254000Y-3556000D03*
X1270000Y-3556000D03*
X508000Y-3556000D03*
X762000Y-3556000D03*
X1016000Y-3302000D03*
X254000Y-3302000D03*
X1270000Y-3302000D03*
X508000Y-3302000D03*
X762000Y-3302000D03*
X1016000Y-3048000D03*
X254000Y-3048000D03*
X1270000Y-3048000D03*
X508000Y-3048000D03*
X762000Y-3048000D03*
X1016000Y-2794000D03*
X254000Y-2794000D03*
X1270000Y-2794000D03*
X508000Y-2794000D03*
X762000Y-2794000D03*
X1016000Y-2540000D03*
X254000Y-2540000D03*
X1270000Y-2540000D03*
X508000Y-2540000D03*
X762000Y-2540000D03*
X1016000Y-2286000D03*
X254000Y-2286000D03*
X1270000Y-2286000D03*
X508000Y-2286000D03*
X762000Y-2286000D03*
X1016000Y-2032000D03*
X254000Y-2032000D03*
X1270000Y-2032000D03*
X508000Y-2032000D03*
X762000Y-2032000D03*
X1016000Y-1778000D03*
X254000Y-1778000D03*
X1270000Y-1778000D03*
X508000Y-1778000D03*
X762000Y-1778000D03*
X1016000Y-1524000D03*
X254000Y-1524000D03*
X1270000Y-1524000D03*
X508000Y-1524000D03*
X762000Y-1524000D03*
X1016000Y-1270000D03*
X254000Y-1270000D03*
X1270000Y-1270000D03*
X508000Y-1270000D03*
X762000Y-1270000D03*
X1270000Y-1016000D03*
X1016000Y-1016000D03*
X762000Y-1016000D03*
X508000Y-1016000D03*
X254000Y-1016000D03*
D12*
X5969000Y-3487000D03*
X6619000Y-3487000D03*
X5969000Y-3937000D03*
X6619000Y-3937000D03*
D13*
X6350000Y-254000D03*
X6096000Y-254000D03*
X5842000Y-254000D03*
X5588000Y-254000D03*
X5334000Y-254000D03*
X5080000Y-254000D03*
X4826000Y-254000D03*
X4572000Y-254000D03*
D14*
X6604000Y-1778000D03*
X1524000Y-254000D03*
X6604000Y-4572000D03*
D13*
X4165600Y-254000D03*
X3911600Y-254000D03*
X3657600Y-254000D03*
X3403600Y-254000D03*
X3149600Y-254000D03*
X2895600Y-254000D03*
X2641600Y-254000D03*
X2387600Y-254000D03*
X2133600Y-254000D03*
X1879600Y-254000D03*
D14*
X1397000Y-5080000D03*
D13*
X6350000Y-5080000D03*
X6096000Y-5080000D03*
X5842000Y-5080000D03*
X5588000Y-5080000D03*
X5334000Y-5080000D03*
X5080000Y-5080000D03*
X4572000Y-5080000D03*
X4318000Y-5080000D03*
X4064000Y-5080000D03*
X3810000Y-5080000D03*
X3556000Y-5080000D03*
X3302000Y-5080000D03*
X3048000Y-5080000D03*
X2794000Y-5080000D03*
G36*
G01*
X397500Y-529500D02*
X237500Y-529500D01*
G75*
G02*
X232500Y-524500I0J5000D01*
G01*
X232500Y-364500D01*
G75*
G02*
X237500Y-359500I5000J0D01*
G01*
X397500Y-359500D01*
G75*
G02*
X402500Y-364500I0J-5000D01*
G01*
X402500Y-524500D01*
G75*
G02*
X397500Y-529500I-5000J0D01*
G01*
G37*
D11*
X317500Y-190500D03*
D12*
X5664600Y-3937000D03*
X5014600Y-3937000D03*
X5664600Y-3487000D03*
X5014600Y-3487000D03*
X4064600Y-3487000D03*
X4714600Y-3487000D03*
X4064600Y-3937000D03*
X4714600Y-3937000D03*
X3764600Y-3937000D03*
X3114600Y-3937000D03*
X3764600Y-3487000D03*
X3114600Y-3487000D03*
D15*
X2114000Y-3169000D03*
X2304000Y-3169000D03*
G36*
G01*
X2194000Y-3063500D02*
X2034000Y-3063500D01*
G75*
G02*
X2029000Y-3058500I0J5000D01*
G01*
X2029000Y-2898500D01*
G75*
G02*
X2034000Y-2893500I5000J0D01*
G01*
X2194000Y-2893500D01*
G75*
G02*
X2199000Y-2898500I0J-5000D01*
G01*
X2199000Y-3058500D01*
G75*
G02*
X2194000Y-3063500I-5000J0D01*
G01*
G37*
D11*
X2876000Y-2216500D03*
X2368000Y-2978500D03*
X2622000Y-2216500D03*
X2622000Y-2978500D03*
X2368000Y-2216500D03*
X2876000Y-2978500D03*
X2114000Y-2216500D03*
G36*
G01*
X2175500Y-1545500D02*
X2015500Y-1545500D01*
G75*
G02*
X2010500Y-1540500I0J5000D01*
G01*
X2010500Y-1380500D01*
G75*
G02*
X2015500Y-1375500I5000J0D01*
G01*
X2175500Y-1375500D01*
G75*
G02*
X2180500Y-1380500I0J-5000D01*
G01*
X2180500Y-1540500D01*
G75*
G02*
X2175500Y-1545500I-5000J0D01*
G01*
G37*
X2857500Y-698500D03*
X2349500Y-1460500D03*
X2603500Y-698500D03*
X2603500Y-1460500D03*
X2349500Y-698500D03*
X2857500Y-1460500D03*
X2095500Y-698500D03*
M02*
